<svg width="24" height="24" viewBox="0 0 24 24" fill="none" xmlns="http://www.w3.org/2000/svg">
<path d="M1.73085 5.02756C1.3916 5.46391 1.52156 6.08753 1.98292 6.39188C2.44368 6.69583 3.06017 6.56568 3.40494 6.13461C4.33056 4.97728 5.48506 4.01099 6.79986 3.30432C7.2863 3.04288 7.52603 2.45981 7.31024 1.95146C7.09432 1.44278 6.50463 1.20217 6.01428 1.45697C5.90966 1.51133 5.80588 1.56707 5.70295 1.62416C4.15907 2.48061 2.80788 3.64223 1.73085 5.02756Z" fill="currentColor"/>
<path d="M22.1744 6.26378C22.5038 5.93455 22.5661 5.40937 22.2693 5.02756C21.1205 3.54988 19.6597 2.32673 17.9859 1.45697C17.9246 1.42512 17.8617 1.40101 17.7983 1.3842C17.3539 1.26651 16.8788 1.50637 16.6899 1.95146C16.4741 2.45981 16.7139 3.04288 17.2003 3.30433C18.5151 4.01099 19.6696 4.97728 20.5952 6.13461C20.94 6.56568 21.5565 6.69584 22.0172 6.39188C22.0749 6.35384 22.1274 6.31081 22.1744 6.26378Z" fill="currentColor"/>
<path d="M11.5001 13.866C11.1907 13.6874 11.0001 13.3573 11.0001 13V9.99999C11.0001 9.44771 11.4478 9 12.0001 9C12.5524 9 13.0001 9.44771 13.0001 9.99999V12.4227L15.5312 13.884C16.0095 14.1601 16.1734 14.7717 15.8972 15.25C15.6211 15.7283 15.0095 15.8922 14.5312 15.616L11.5001 13.866Z" fill="currentColor"/>
<path fill-rule="evenodd" clip-rule="evenodd" d="M21.0001 13C21.0001 17.9706 16.9707 22 12.0001 22C7.02949 22 3.00005 17.9706 3.00005 13C3.00005 8.02942 7.02949 3.99998 12.0001 3.99998C16.9707 3.99998 21.0001 8.02942 21.0001 13ZM19.0001 13C19.0001 16.866 15.8661 20 12.0001 20C8.13406 20 5.00005 16.866 5.00005 13C5.00005 9.134 8.13406 5.99998 12.0001 5.99998C15.8661 5.99998 19.0001 9.134 19.0001 13Z" fill="currentColor"/>
</svg>
