<svg width="24" height="24" viewBox="0 0 24 24" fill="currentColor" xmlns="http://www.w3.org/2000/svg">
<path d="M17.3666 8.11396V15.9497L6.34578 4.92894C5.95526 4.53842 5.32209 4.53842 4.93157 4.92894C4.68749 5.17302 4.59596 5.51188 4.65698 5.82704C4.69359 6.01614 4.78512 6.19671 4.93157 6.34315L15.9524 17.364H8.1166C7.56431 17.364 7.1166 17.8117 7.1166 18.364C7.1166 18.9162 7.56431 19.364 8.1166 19.364H18.3666C18.9189 19.364 19.3666 18.9162 19.3666 18.364V8.11396C19.3666 7.56168 18.9189 7.11397 18.3666 7.11397C17.8143 7.11396 17.3666 7.56168 17.3666 8.11396Z" fill="currentColor"/>
</svg>
