<svg width="24" height="24" viewBox="0 0 24 24" fill="none" xmlns="http://www.w3.org/2000/svg">
<path d="M9.5 12.25C9.5 12.9404 8.94036 13.5 8.25 13.5C7.55965 13.5 7 12.9404 7 12.25C7 11.5596 7.55965 11 8.25 11C8.94036 11 9.5 11.5596 9.5 12.25Z" fill="currentColor"/>
<path d="M17 12.25C17 12.9404 16.4404 13.5 15.75 13.5C15.0596 13.5 14.5 12.9404 14.5 12.25C14.5 11.5596 15.0596 11 15.75 11C16.4404 11 17 11.5596 17 12.25Z" fill="currentColor"/>
<path fill-rule="evenodd" clip-rule="evenodd" d="M12 1C9.23858 1 7 3.23858 7 6V7H5C3.89543 7 3 7.89543 3 9V20C3 21.1046 3.89543 22 5 22H19C20.1046 22 21 21.1046 21 20V9C21 7.89543 20.1046 7 19 7H17V6C17 3.23858 14.7614 1 12 1ZM12 3C10.3431 3 9 4.34315 9 6V7H15V6C15 4.34315 13.6569 3 12 3ZM5 9V20H19V9H5Z" fill="currentColor"/>
</svg>
