<svg width="24" height="24" viewBox="0 0 24 24" fill="currentColor" xmlns="http://www.w3.org/2000/svg">
<path fill-rule="evenodd" clip-rule="evenodd" d="M12 2C8.13401 2 5 5.13401 5 9V11.9609C5 13.2665 4.48135 14.5187 3.55814 15.4419C3.20077 15.7992 3 16.2839 3 16.7893V17.6623C3 18.4011 3.59891 19 4.33771 19H8.06299C8.06299 19.3646 8.07046 20.1575 8.49515 20.9285C9.17297 22.1591 10.4869 23 12 23C13.5131 23 14.827 22.1591 15.5048 20.9285C15.9295 20.1575 15.937 19.3646 15.937 19H19.6623C20.4011 19 21 18.4011 21 17.6623V16.7893C21 16.2839 20.7992 15.7992 20.4419 15.4419C19.5187 14.5187 19 13.2665 19 11.9609V9C19 5.13401 15.866 2 12 2ZM13.937 19C13.937 19.332 13.9132 19.6728 13.753 19.9636C13.4137 20.5796 12.7591 20.9975 12.0066 21H12H11.9933C11.2409 20.9975 10.5863 20.5796 10.247 19.9636C10.0868 19.6728 10.063 19.332 10.063 19H13.937Z" fill="currentColor"/>
</svg>
