<svg width="24" height="24" viewBox="0 0 24 24" fill="none" xmlns="http://www.w3.org/2000/svg">
<path d="M9 10.5C9.39052 10.1095 10.0237 10.1095 10.4142 10.5L12 12.0858L13.5858 10.5C13.9763 10.1095 14.6095 10.1095 15 10.5C15.3905 10.8905 15.3905 11.5237 15 11.9142L13.4142 13.5L15 15.0858C15.3905 15.4763 15.3905 16.1095 15 16.5C14.6095 16.8905 13.9763 16.8905 13.5858 16.5L12 14.9142L10.4142 16.5C10.0237 16.8905 9.39053 16.8905 9 16.5C8.60948 16.1095 8.60948 15.4763 9 15.0858L10.5858 13.5L9 11.9142C8.60948 11.5237 8.60948 10.8905 9 10.5Z" fill="currentColor"/>
<path fill-rule="evenodd" clip-rule="evenodd" d="M9 0.999969C7.89543 0.999969 7 1.8954 7 2.99997V4.99997H3C2.44772 4.99997 2 5.44768 2 5.99997C2 6.55225 2.44772 6.99997 3 6.99997H4.11765L4.88926 20.1174C4.95145 21.1746 5.82686 22 6.88581 22H17.1142C18.1731 22 19.0486 21.1746 19.1107 20.1174L19.8824 6.99997H21C21.5523 6.99997 22 6.55225 22 5.99997C22 5.44768 21.5523 4.99997 21 4.99997H17V2.99997C17 1.8954 16.1046 0.999969 15 0.999969H9ZM15 4.99997V2.99997H9V4.99997H15ZM17.8789 6.99997H6.12111L6.88581 20H17.1142L17.8789 6.99997Z" fill="currentColor"/>
</svg>
