<svg width="24" height="24" viewBox="0 0 24 24" fill="none" xmlns="http://www.w3.org/2000/svg">
<path fill-rule="evenodd" clip-rule="evenodd" d="M4.00821 18.2584C4.00276 18.173 4 18.0868 4 18V6C4 3.79086 5.79086 2 8 2H18C19.1046 2 20 2.89543 20 4V20C20 21.1046 19.1046 22 18 22H7.5C5.567 22 4 20.433 4 18.5C4 18.4188 4.00277 18.3382 4.00821 18.2584ZM6 6C6 4.89543 6.89543 4 8 4H18V15H7.5C6.9632 15 6.45463 15.1208 6 15.3368V6ZM6.01782 18.2681C6.12929 17.5498 6.75044 17 7.5 17H18V20H8C6.98634 20 6.14882 19.2459 6.01782 18.2681Z" fill="currentColor"/>
</svg>
