<svg width="24" height="24" viewBox="0 0 24 24" fill="none" xmlns="http://www.w3.org/2000/svg">
<path d="M9.00001 10C9.39054 9.60948 10.0237 9.60948 10.4142 10L12 11.5858L13.5858 10C13.9763 9.60948 14.6095 9.60948 15 10C15.3905 10.3905 15.3905 11.0237 15 11.4142L13.4142 13L15 14.5858C15.3905 14.9763 15.3905 15.6095 15 16C14.6095 16.3905 13.9763 16.3905 13.5858 16L12 14.4142L10.4142 16C10.0237 16.3905 9.39053 16.3905 9.00001 16C8.60948 15.6095 8.60948 14.9763 9.00001 14.5858L10.5858 13L9.00001 11.4142C8.60949 11.0237 8.60949 10.3905 9.00001 10Z" fill="currentColor"/>
<path fill-rule="evenodd" clip-rule="evenodd" d="M4 5H6V3.75C6 3.19771 6.44772 2.75 7 2.75C7.55229 2.75 8 3.19771 8 3.75V5H16V3.75C16 3.19771 16.4477 2.75 17 2.75C17.5523 2.75 18 3.19771 18 3.75V5H20C21.1046 5 22 5.89543 22 7V19C22 20.1046 21.1046 21 20 21H4C2.89543 21 2 20.1046 2 19V7C2 5.89543 2.89543 5 4 5ZM4 19V7H20V19H4Z" fill="currentColor"/>
</svg>
