<svg width="24" height="24" viewBox="0 0 24 24" fill="currentColor" xmlns="http://www.w3.org/2000/svg">
<path d="M16.5 9.5C16.8905 9.89053 16.8905 10.5237 16.5 10.9142L11.7071 15.7071C11.3166 16.0976 10.6834 16.0976 10.2929 15.7071L8 13.4142C7.60948 13.0237 7.60948 12.3905 8 12C8.39053 11.6095 9.02369 11.6095 9.41422 12L11 13.5858L15.0858 9.5C15.1346 9.45119 15.1872 9.40847 15.2427 9.37186C15.6308 9.11558 16.1583 9.15829 16.5 9.5Z" fill="currentColor"/>
<path fill-rule="evenodd" clip-rule="evenodd" d="M4 5H6V3.75C6 3.19771 6.44772 2.75 7 2.75C7.55229 2.75 8 3.19771 8 3.75V5H16V3.75C16 3.19771 16.4477 2.75 17 2.75C17.5523 2.75 18 3.19771 18 3.75V5H20C21.1046 5 22 5.89543 22 7V19C22 20.1046 21.1046 21 20 21H4C2.89543 21 2 20.1046 2 19V7C2 5.89543 2.89543 5 4 5ZM4 19V7H20V19H4Z" fill="currentColor"/>
</svg>
