<svg width="24" height="24" viewBox="0 0 24 24" fill="none" xmlns="http://www.w3.org/2000/svg">
<path d="M2 6.99997C2 5.8954 2.89543 4.99997 4 4.99997H6V3.74997C6 3.19768 6.44772 2.74997 7 2.74997C7.55229 2.74997 8 3.19768 8 3.74997V4.99997H16V3.74997C16 3.19768 16.4477 2.74997 17 2.74997C17.5523 2.74997 18 3.19768 18 3.74997V4.99997H20C21.1046 4.99997 22 5.8954 22 6.99997V8.99997H2V6.99997Z" fill="currentColor"/>
<path d="M4 21C2.89543 21 2 20.1045 2 19V11H22V19C22 20.1045 21.1046 21 20 21H4Z" fill="currentColor"/>
</svg>
