<svg width="24" height="24" viewBox="0 0 24 24" fill="none" xmlns="http://www.w3.org/2000/svg">
<path fill-rule="evenodd" clip-rule="evenodd" d="M12 17C14.4853 17 16.5 14.9853 16.5 12.5C16.5 10.0147 14.4853 8 12 8C9.51472 8 7.5 10.0147 7.5 12.5C7.5 14.9853 9.51472 17 12 17ZM12 15C13.3807 15 14.5 13.8807 14.5 12.5C14.5 11.1193 13.3807 10 12 10C10.6193 10 9.5 11.1193 9.5 12.5C9.5 13.8807 10.6193 15 12 15Z" fill="currentColor"/>
<path fill-rule="evenodd" clip-rule="evenodd" d="M7.86599 3.50002L7 5H4C2.89543 5 2 5.89543 2 7V19C2 20.1046 2.89543 21 4 21H20C21.1046 21 22 20.1046 22 19V7C22 5.89543 21.1046 5 20 5H17L16.134 3.50002C15.7768 2.88121 15.1165 2.5 14.402 2.5H9.59805C8.88351 2.5 8.22325 2.88121 7.86599 3.50002ZM7 7C7.71454 7 8.3748 6.6188 8.73207 5.99998L9.59805 4.5H14.4019L15.2679 5.99998C15.6252 6.6188 16.2855 7 17 7H20V19H4V7H7Z" fill="currentColor"/>
</svg>
