<svg width="24" height="24" viewBox="0 0 24 24" fill="none" xmlns="http://www.w3.org/2000/svg">
<path fill-rule="evenodd" clip-rule="evenodd" d="M1.99995 6.99998C1.99995 6.29785 2.36176 5.68023 2.90911 5.32338L1.99992 4.4142C1.95111 4.36538 1.9084 4.31277 1.87178 4.25732C1.6155 3.86917 1.65822 3.34169 1.99992 2.99998C2.39045 2.60946 3.02361 2.60946 3.41414 2.99998L21.0908 20.6766C21.0896 20.6774 21.0883 20.6782 21.0871 20.679L21.0839 20.6811C21.3881 21.0733 21.3601 21.6398 20.9999 22C20.6094 22.3905 19.9762 22.3905 19.5857 22L18.5857 21H3.99995C2.89538 21 1.99995 20.1046 1.99995 19V6.99998ZM16.5857 19L14.0781 16.4924C13.4565 16.8167 12.7496 17 11.9999 17C9.51467 17 7.49995 14.9853 7.49995 12.5C7.49995 11.7503 7.68327 11.0435 8.00752 10.4218L4.58571 6.99998H3.99995V19H16.5857ZM9.55615 11.9704C9.51933 12.1411 9.49995 12.3183 9.49995 12.5C9.49995 13.8807 10.6192 15 11.9999 15C12.1816 15 12.3588 14.9806 12.5295 14.9438L9.55615 11.9704Z" fill="currentColor"/>
<path d="M11.2972 8.05455L16.4454 13.2027C16.4813 12.9738 16.4999 12.7391 16.4999 12.5C16.4999 10.0147 14.4852 8 11.9999 8C11.7609 8 11.5262 8.01864 11.2972 8.05455Z" fill="currentColor"/>
<path d="M15.2679 5.99998C15.6251 6.6188 16.2854 7 16.9999 7H19.9999V16.7573L21.9999 18.7573V7C21.9999 5.89543 21.1045 5 19.9999 5H16.9999L16.134 3.50002C15.7767 2.88121 15.1164 2.5 14.4019 2.5H9.598C8.88346 2.5 8.2232 2.88121 7.86594 3.50002L7.4548 4.21215L8.91891 5.67625L9.598 4.5H14.4019L15.2679 5.99998Z" fill="currentColor"/>
</svg>
