<svg width="24" height="24" viewBox="0 0 24 24" fill="none" xmlns="http://www.w3.org/2000/svg">
<path d="M21.5 12C22.0523 12 22.505 11.5509 22.4531 11.001C21.9811 5.99942 18.0006 2.01895 12.999 1.54691C12.4491 1.49501 12 1.94772 12 2.5V11C12 11.5523 12.4477 12 13 12H21.5Z" fill="currentColor"/>
<path d="M8.8108 3.04856C9.41051 2.83488 10 3.31122 10 3.94786V13C10 13.5523 10.4477 14 11 14H20.0521C20.6888 14 21.1651 14.5895 20.9514 15.1892C19.6409 18.8672 16.1279 21.5 12 21.5C6.7533 21.5 2.5 17.2467 2.5 12C2.5 7.87206 5.1328 4.35905 8.8108 3.04856Z" fill="currentColor"/>
</svg>
