<svg width="24" height="24" viewBox="0 0 24 24" fill="currentColor" xmlns="http://www.w3.org/2000/svg">
<path fill-rule="evenodd" clip-rule="evenodd" d="M3 5C3 3.89543 3.89543 3 5 3H19C20.1046 3 21 3.89543 21 5V19C21 20.1046 20.1046 21 19 21H5C3.89543 21 3 20.1046 3 19V5ZM12 18C11.4477 18 11 17.5523 11 17V8C11 7.44772 11.4477 7 12 7C12.5523 7 13 7.44772 13 8V17C13 17.5523 12.5523 18 12 18ZM6.5 17C6.5 17.5523 6.94772 18 7.5 18C8.05229 18 8.5 17.5523 8.5 17V11C8.5 10.4477 8.05229 10 7.5 10C6.94772 10 6.5 10.4477 6.5 11V17ZM16.5 18C15.9477 18 15.5 17.5523 15.5 17V13C15.5 12.4477 15.9477 12 16.5 12C17.0523 12 17.5 12.4477 17.5 13V17C17.5 17.5523 17.0523 18 16.5 18Z" fill="currentColor"/>
</svg>
