<svg width="24" height="24" viewBox="0 0 24 24" fill="currentColor" xmlns="http://www.w3.org/2000/svg">
<path fill-rule="evenodd" clip-rule="evenodd" d="M4.93186 19.0713C1.02662 15.1661 1.02662 8.83442 4.93186 4.92918C8.8371 1.02393 15.1688 1.02393 19.074 4.92918C22.9792 8.83442 22.9792 15.1661 19.074 19.0713C15.1688 22.9766 8.8371 22.9766 4.93186 19.0713ZM15.5384 9.87886L11.5887 13.8286H13.8315C14.3838 13.8286 14.8315 14.2763 14.8315 14.8286C14.8315 15.3809 14.3838 15.8286 13.8315 15.8286H9.17444C8.62216 15.8286 8.17444 15.3809 8.17444 14.8286V10.1719C8.17444 9.61964 8.62216 9.17192 9.17444 9.17192C9.72673 9.17192 10.1744 9.61964 10.1744 10.1719V12.4144L14.1242 8.46465C14.5147 8.07412 15.1479 8.07412 15.5384 8.46465C15.9289 8.85517 15.9289 9.48834 15.5384 9.87886Z" fill="currentColor"/>
</svg>
