<svg width="24" height="24" viewBox="0 0 24 24" fill="none" xmlns="http://www.w3.org/2000/svg">
<path d="M14.1243 15.5355L10.1746 11.5858V13.8286C10.1746 14.3809 9.72685 14.8286 9.17456 14.8286C8.62228 14.8286 8.17456 14.3809 8.17456 13.8286V9.17157C8.17456 8.61929 8.62228 8.17157 9.17456 8.17157H13.8312C14.3835 8.17157 14.8312 8.61928 14.8312 9.17157C14.8312 9.72385 14.3835 10.1716 13.8312 10.1716H11.5888L15.5385 14.1213C15.9291 14.5118 15.929 15.145 15.5385 15.5355C15.148 15.9261 14.5148 15.9261 14.1243 15.5355Z" fill="currentColor"/>
<path fill-rule="evenodd" clip-rule="evenodd" d="M4.93186 4.92899C8.83711 1.02375 15.1688 1.02375 19.074 4.92899C22.9792 8.83423 22.9792 15.1659 19.074 19.0711C15.1688 22.9764 8.8371 22.9764 4.93186 19.0711C1.02662 15.1659 1.02662 8.83423 4.93186 4.92899ZM6.34608 17.6569C3.22188 14.5327 3.22188 9.4674 6.34608 6.3432C9.47027 3.21901 14.5356 3.21901 17.6598 6.3432C20.784 9.4674 20.784 14.5327 17.6598 17.6569C14.5356 20.7811 9.47027 20.7811 6.34608 17.6569Z" fill="currentColor"/>
</svg>
