<svg width="24" height="24" viewBox="0 0 24 24" fill="none" xmlns="http://www.w3.org/2000/svg">
<path fill-rule="evenodd" clip-rule="evenodd" d="M19.074 19.0713C15.1688 22.9766 8.8371 22.9766 4.93186 19.0713C1.02662 15.1661 1.02662 8.83442 4.93186 4.92918C8.8371 1.02393 15.1688 1.02393 19.074 4.92918C22.9792 8.83442 22.9792 15.1661 19.074 19.0713ZM9.88157 8.46479L13.8313 12.4145V10.1717C13.8313 9.61945 14.279 9.17173 14.8313 9.17173C15.3836 9.17173 15.8313 9.61945 15.8313 10.1717V14.8288C15.8313 15.381 15.3836 15.8288 14.8313 15.8288H10.1746C9.62235 15.8288 9.17463 15.381 9.17463 14.8288C9.17463 14.2765 9.62235 13.8288 10.1746 13.8288H12.4171L8.46736 9.87901C8.07683 9.48848 8.07683 8.85532 8.46736 8.46479C8.85788 8.07427 9.49105 8.07427 9.88157 8.46479Z" fill="currentColor"/>
</svg>
