<svg width="24" height="24" viewBox="0 0 24 24" fill="none" xmlns="http://www.w3.org/2000/svg">
<path d="M8.46742 14.1212L12.4172 10.1715H10.1744C9.62208 10.1715 9.17436 9.7238 9.17436 9.17151C9.17436 8.61922 9.62208 8.17151 10.1744 8.17151H14.8314C15.3837 8.17151 15.8314 8.61922 15.8314 9.17151V13.8282C15.8314 14.3805 15.3837 14.8282 14.8314 14.8282C14.2791 14.8282 13.8314 14.3805 13.8314 13.8282V11.5857L9.88164 15.5355C9.49111 15.926 8.85795 15.926 8.46742 15.5355C8.0769 15.1449 8.0769 14.5118 8.46742 14.1212Z" fill="currentColor"/>
<path fill-rule="evenodd" clip-rule="evenodd" d="M19.074 4.92881C22.9792 8.83405 22.9792 15.1657 19.074 19.0709C15.1688 22.9762 8.83711 22.9762 4.93186 19.0709C1.02662 15.1657 1.02662 8.83405 4.93186 4.92881C8.83711 1.02357 15.1688 1.02357 19.074 4.92881ZM6.34608 6.34302C9.47027 3.21883 14.5356 3.21883 17.6598 6.34302C20.784 9.46722 20.784 14.5325 17.6598 17.6567C14.5356 20.7809 9.47027 20.7809 6.34608 17.6567C3.22188 14.5325 3.22188 9.46722 6.34608 6.34302Z" fill="currentColor"/>
</svg>
