<svg width="24" height="24" viewBox="0 0 24 24" fill="currentColor" xmlns="http://www.w3.org/2000/svg">
<path fill-rule="evenodd" clip-rule="evenodd" d="M12.0049 22.0002C6.48204 22.0002 2.00488 17.5231 2.00488 12.0002C2.00488 6.4774 6.48204 2.00024 12.0049 2.00024C17.5277 2.00024 22.0049 6.4774 22.0049 12.0002C22.0049 17.5231 17.5277 22.0002 12.0049 22.0002ZM13.0048 13.586L14.5907 12.0001C14.9812 11.6096 15.6144 11.6096 16.0049 12.0001C16.3955 12.3906 16.3955 13.0238 16.0049 13.4143L12.7119 16.7074C12.3214 17.0979 11.6882 17.0979 11.2977 16.7074L8.00494 13.4146C7.61441 13.0241 7.61441 12.3909 8.00493 12.0004C8.39546 11.6098 9.02862 11.6098 9.41915 12.0004L11.0048 13.586V8.00024C11.0048 7.44796 11.4525 7.00024 12.0048 7.00024C12.5571 7.00024 13.0048 7.44796 13.0048 8.00024V13.586Z" fill="currentColor"/>
</svg>
