<svg width="24" height="24" viewBox="0 0 24 24" fill="currentColor" xmlns="http://www.w3.org/2000/svg">
<path fill-rule="evenodd" clip-rule="evenodd" d="M22.002 12.0002C22.002 17.5231 17.5248 22.0002 12.002 22.0002C6.47911 22.0002 2.00195 17.5231 2.00195 12.0002C2.00195 6.4774 6.47911 2.00024 12.002 2.00024C17.5248 2.00024 22.002 6.4774 22.002 12.0002ZM13.5877 11.0003L12.0018 9.41438C11.6113 9.02386 11.6113 8.39069 12.0018 8.00017C12.3924 7.60964 13.0255 7.60964 13.4161 8.00017L16.7091 11.2932C17.0996 11.6837 17.0996 12.3169 16.7091 12.7074L13.4163 16.0002C13.0258 16.3907 12.3926 16.3907 12.0021 16.0002C11.6116 15.6096 11.6116 14.9765 12.0021 14.586L13.5878 13.0003H8.00196C7.44968 13.0003 7.00196 12.5526 7.00196 12.0003C7.00196 11.448 7.44968 11.0003 8.00196 11.0003H13.5877Z" fill="currentColor"/>
</svg>
