<svg width="24" height="24" viewBox="0 0 24 24" fill="currentColor" xmlns="http://www.w3.org/2000/svg">
<path fill-rule="evenodd" clip-rule="evenodd" d="M22 12C22 17.5228 17.5228 22 12 22C6.47715 22 2 17.5228 2 12C2 6.47715 6.47715 2 12 2C17.5228 2 22 6.47715 22 12ZM11.5 12.866C11.1906 12.6874 11 12.3573 11 12V8.5C11 7.94772 11.4477 7.5 12 7.5C12.5523 7.5 13 7.94772 13 8.5V11.4227L15.9641 13.134C16.4424 13.4101 16.6063 14.0217 16.3301 14.5C16.054 14.9783 15.4424 15.1422 14.9641 14.866L11.5 12.866Z" fill="currentColor"/>
</svg>
