<svg width="24" height="24" viewBox="0 0 24 24" fill="none" xmlns="http://www.w3.org/2000/svg">
<path d="M5.25763 9.01146C6.17933 8.92367 6.92028 8.21474 7.04867 7.29781C7.38869 4.86953 9.47771 3 12 3C14.0101 3 15.7474 4.18626 16.542 5.90556C16.8225 6.51241 17.3877 6.93898 18.0482 7.04239C19.7203 7.30417 21 8.7545 21 10.5C21 11.8067 20.2839 12.9461 19.2228 13.5473C18.8165 13.7775 18.5 14.1752 18.5 14.6422C18.5 15.3015 19.1051 15.8035 19.7089 15.5385C21.6466 14.6878 23 12.7519 23 10.5C23 7.75413 20.9878 5.47824 18.3575 5.06645C17.2479 2.66574 14.8185 1 12 1C8.46644 1 5.54439 3.6182 5.06799 7.02047C2.78538 7.23788 1 9.16044 1 11.5C1 13.6444 2.4999 15.4384 4.50781 15.8903C5.04662 16.0115 5.5 15.5523 5.50001 15C5.50001 14.4477 5.03487 14.0186 4.52627 13.8033C3.62931 13.4236 3 12.5353 3 11.5C3 10.2014 3.99164 9.13204 5.25763 9.01146Z" fill="currentColor"/>
<path d="M14.586 17.0001L13.0001 15.4142V21C13.0001 21.5523 12.5524 22 12.0001 22C11.4478 22 11.0001 21.5523 11.0001 21V15.4142L9.41441 16.9999C9.02389 17.3904 8.39072 17.3904 8.0002 16.9999C7.60967 16.6094 7.60967 15.9762 8.0002 15.5857L11.293 12.2929C11.6835 11.9024 12.3167 11.9024 12.7072 12.2929L16.0002 15.5859C16.3907 15.9764 16.3907 16.6096 16.0002 17.0001C15.6097 17.3906 14.9765 17.3906 14.586 17.0001Z" fill="currentColor"/>
</svg>
