<svg width="24" height="24" viewBox="0 0 24 24" fill="currentColor" xmlns="http://www.w3.org/2000/svg">
<path d="M15 11.4142C15.3905 11.0237 15.3905 10.3905 15 10C14.6095 9.60948 13.9763 9.60948 13.5858 10L10.5 13.0858L9.41422 12C9.02369 11.6095 8.39053 11.6095 8 12C7.60948 12.3905 7.60948 13.0237 8 13.4142L9.7929 15.2071C10.1834 15.5976 10.8166 15.5976 11.2071 15.2071L15 11.4142Z" fill="currentColor"/>
<path fill-rule="evenodd" clip-rule="evenodd" d="M4.0106 10.0979C1.72308 10.557 0 12.5773 0 15C0 17.7614 2.23858 20 5 20H18C21.3137 20 24 17.3137 24 14C24 10.883 21.6232 8.32114 18.5831 8.02797C17.5614 5.10039 14.776 3 11.5 3C7.49277 3 4.21955 6.14271 4.0106 10.0979ZM6.00781 10.2034C5.95963 11.1155 5.29968 11.879 4.4042 12.0588C3.03258 12.3341 2 13.5487 2 15C2 16.6569 3.34315 18 5 18H18C20.2091 18 22 16.2091 22 14C22 11.9232 20.4157 10.214 18.3911 10.0187C17.6142 9.94382 16.9519 9.42383 16.6947 8.68694C15.9446 6.53745 13.8993 5 11.5 5C8.56199 5 6.16095 7.30465 6.00781 10.2034Z" fill="currentColor"/>
</svg>
