<svg width="24" height="24" viewBox="0 0 24 24" fill="currentColor" xmlns="http://www.w3.org/2000/svg">
<path d="M3.41429 2.99992C3.02376 2.6094 2.3906 2.6094 2.00008 2.99992C1.60955 3.39045 1.60955 4.02361 2.00008 4.41414L4.77065 7.18471C4.33316 8.07104 4.06562 9.05628 4.0106 10.0979C1.72308 10.557 0 12.5773 0 15C0 17.7614 2.23858 20 5 20H17.5859L19.5859 21.9999C19.9764 22.3905 20.6096 22.3905 21.0001 21.9999C21.3906 21.6094 21.3906 20.9762 21.0001 20.5857L3.41429 2.99992Z" fill="currentColor"/>
<path d="M24 14C24 15.8496 23.163 17.5038 21.8472 18.6044L7.43731 4.19457C8.60805 3.43868 10.0028 2.99997 11.5 2.99997C14.776 2.99997 17.5614 5.10036 18.5831 8.02794C21.6232 8.32111 24 10.883 24 14Z" fill="currentColor"/>
</svg>
