<svg width="24" height="24" viewBox="0 0 24 24" fill="none" xmlns="http://www.w3.org/2000/svg">
<path d="M5.25763 9.01146C6.17933 8.92367 6.92028 8.21474 7.04867 7.29781C7.38869 4.86953 9.47771 3 12 3C14.0101 3 15.7474 4.18626 16.542 5.90556C16.8225 6.51241 17.3877 6.93898 18.0482 7.04239C19.7203 7.30417 21 8.7545 21 10.5C21 11.8067 20.2839 12.9461 19.2228 13.5473C18.8165 13.7775 18.5 14.1752 18.5 14.6422C18.5 15.3016 19.1051 15.8035 19.7088 15.5385C21.6466 14.6878 23 12.7519 23 10.5C23 7.75413 20.9878 5.47824 18.3575 5.06645C17.2479 2.66574 14.8185 1 12 1C8.46644 1 5.54439 3.6182 5.06799 7.02047C2.78538 7.23788 1 9.16044 1 11.5C1 13.6444 2.4999 15.4384 4.5078 15.8903C5.04661 16.0115 5.5 15.5523 5.5 15C5.5 14.4477 5.03486 14.0186 4.52626 13.8033C3.62931 13.4236 3 12.5353 3 11.5C3 10.2014 3.99164 9.13204 5.25763 9.01146Z" fill="currentColor"/>
<path d="M14.586 16.9999L13.0001 18.5858V13C13.0001 12.4477 12.5524 12 12.0001 12C11.4478 12 11.0001 12.4477 11.0001 13V18.5858L9.41441 17.0001C9.02389 16.6096 8.39072 16.6096 8.0002 17.0001C7.60967 17.3906 7.60967 18.0238 8.0002 18.4143L11.293 21.7071C11.6835 22.0976 12.3167 22.0976 12.7072 21.7071L16.0002 18.4141C16.3907 18.0236 16.3907 17.3904 16.0002 16.9999C15.6097 16.6094 14.9765 16.6094 14.586 16.9999Z" fill="currentColor"/>
</svg>
