<svg width="24" height="24" viewBox="0 0 24 24" fill="none" xmlns="http://www.w3.org/2000/svg">
<path fill-rule="evenodd" clip-rule="evenodd" d="M2.01562 3.27893V7.94768C2.01562 11.2008 2.02969 12.6446 2.06719 12.7242C2.09531 12.7852 2.175 12.8696 2.25 12.9117C2.37188 12.9867 3.1125 12.9914 12 12.9914C20.8875 12.9914 21.6281 12.9867 21.75 12.9117C21.825 12.8696 21.9047 12.7852 21.9328 12.7242C21.9703 12.6446 21.9844 11.2008 21.9844 7.94768V3.27893C21.9844 3.27893 21.925 3.02268 21.7125 3.00706C21.5 2.99143 12 3.00706 12 3.00706C12 3.00706 2.50352 2.99118 2.2875 3.00706C2.07148 3.02294 2.01562 3.27893 2.01562 3.27893ZM21 12.0071V3.99143H3V12.0071H21Z" fill="currentColor"/>
<path d="M5.77971 5.05081C5.47971 5.20081 5.4844 5.168 5.4844 7.97112C5.4844 10.6992 5.48909 10.7321 5.72346 10.9008C5.86409 10.9992 6.13596 10.9992 6.27659 10.9008C6.51096 10.7321 6.51565 10.6992 6.51565 7.97112C6.51565 5.15394 6.52034 5.19612 6.21096 5.05081C6.01877 4.95706 5.96721 4.95706 5.77971 5.05081Z" fill="currentColor"/>
<path d="M9.81565 5.04143C9.50159 5.17737 9.51565 5.04143 9.51565 8.01331V10.7039L9.65159 10.8399C9.87659 11.0602 10.261 11.0133 10.4203 10.7414C10.4906 10.6242 10.5 10.3524 10.5 7.99925C10.5 5.10706 10.5047 5.17268 10.1953 5.04143C10.0031 4.96175 9.99846 4.96175 9.81565 5.04143Z" fill="currentColor"/>
<path d="M13.7953 5.04612C13.4953 5.17737 13.5 5.11643 13.5 7.99925C13.5 10.3524 13.5094 10.6242 13.5797 10.7414C13.7391 11.0133 14.1235 11.0602 14.3485 10.8399L14.4844 10.7039V8.01331C14.4844 5.03206 14.4985 5.17737 14.175 5.04143C13.9875 4.96175 13.9828 4.96175 13.7953 5.04612Z" fill="currentColor"/>
<path d="M17.7797 5.05081C17.4797 5.20081 17.4844 5.168 17.4844 7.97112C17.4844 10.6992 17.4891 10.7321 17.7235 10.9008C17.8641 10.9992 18.136 10.9992 18.2766 10.9008C18.511 10.7321 18.5156 10.6992 18.5156 7.97112C18.5156 5.15394 18.5203 5.19612 18.211 5.05081C18.0188 4.95706 17.9672 4.95706 17.7797 5.05081Z" fill="currentColor"/>
<path fill-rule="evenodd" clip-rule="evenodd" d="M2.01562 3.27893V7.94768C2.01562 11.2008 2.02969 12.6446 2.06719 12.7242C2.09531 12.7852 2.175 12.8696 2.25 12.9117C2.37188 12.9867 3.1125 12.9914 12 12.9914C20.8875 12.9914 21.6281 12.9867 21.75 12.9117C21.825 12.8696 21.9047 12.7852 21.9328 12.7242C21.9703 12.6446 21.9844 11.2008 21.9844 7.94768V3.27893C21.9844 3.27893 21.925 3.02268 21.7125 3.00706C21.5 2.99143 12 3.00706 12 3.00706C12 3.00706 2.50352 2.99118 2.2875 3.00706C2.07148 3.02294 2.01562 3.27893 2.01562 3.27893ZM21 12.0071V3.99143H3V12.0071H21Z" stroke="currentColor" stroke-width="0.2"/>
<path d="M5.77971 5.05081C5.47971 5.20081 5.4844 5.168 5.4844 7.97112C5.4844 10.6992 5.48909 10.7321 5.72346 10.9008C5.86409 10.9992 6.13596 10.9992 6.27659 10.9008C6.51096 10.7321 6.51565 10.6992 6.51565 7.97112C6.51565 5.15394 6.52034 5.19612 6.21096 5.05081C6.01877 4.95706 5.96721 4.95706 5.77971 5.05081Z" stroke="currentColor" stroke-width="0.2"/>
<path d="M9.81565 5.04143C9.50159 5.17737 9.51565 5.04143 9.51565 8.01331V10.7039L9.65159 10.8399C9.87659 11.0602 10.261 11.0133 10.4203 10.7414C10.4906 10.6242 10.5 10.3524 10.5 7.99925C10.5 5.10706 10.5047 5.17268 10.1953 5.04143C10.0031 4.96175 9.99846 4.96175 9.81565 5.04143Z" stroke="currentColor" stroke-width="0.2"/>
<path d="M13.7953 5.04612C13.4953 5.17737 13.5 5.11643 13.5 7.99925C13.5 10.3524 13.5094 10.6242 13.5797 10.7414C13.7391 11.0133 14.1235 11.0602 14.3485 10.8399L14.4844 10.7039V8.01331C14.4844 5.03206 14.4985 5.17737 14.175 5.04143C13.9875 4.96175 13.9828 4.96175 13.7953 5.04612Z" stroke="currentColor" stroke-width="0.2"/>
<path d="M17.7797 5.05081C17.4797 5.20081 17.4844 5.168 17.4844 7.97112C17.4844 10.6992 17.4891 10.7321 17.7235 10.9008C17.8641 10.9992 18.136 10.9992 18.2766 10.9008C18.511 10.7321 18.5156 10.6992 18.5156 7.97112C18.5156 5.15394 18.5203 5.19612 18.211 5.05081C18.0188 4.95706 17.9672 4.95706 17.7797 5.05081Z" stroke="currentColor" stroke-width="0.2"/>
<path fill-rule="evenodd" clip-rule="evenodd" d="M2.01562 12.2789V16.9477C2.01562 20.2008 2.02969 21.6446 2.06719 21.7242C2.09531 21.7852 2.175 21.8696 2.25 21.9117C2.37188 21.9867 3.1125 21.9914 12 21.9914C20.8875 21.9914 21.6281 21.9867 21.75 21.9117C21.825 21.8696 21.9047 21.7852 21.9328 21.7242C21.9703 21.6446 21.9844 20.2008 21.9844 16.9477V12.2789C21.9844 12.2789 21.925 12.0227 21.7125 12.0071C21.5 11.9914 12 12.0071 12 12.0071C12 12.0071 2.50352 11.9912 2.2875 12.0071C2.07148 12.0229 2.01562 12.2789 2.01562 12.2789ZM21 21.0071V12.9914H3V21.0071H21Z" fill="currentColor"/>
<path d="M5.77971 14.0508C5.47971 14.2008 5.4844 14.168 5.4844 16.9711C5.4844 19.6992 5.48909 19.7321 5.72346 19.9008C5.86409 19.9992 6.13596 19.9992 6.27659 19.9008C6.51096 19.7321 6.51565 19.6992 6.51565 16.9711C6.51565 14.1539 6.52034 14.1961 6.21096 14.0508C6.01877 13.9571 5.96721 13.9571 5.77971 14.0508Z" fill="currentColor"/>
<path d="M9.81565 14.0414C9.50159 14.1774 9.51565 14.0414 9.51565 17.0133V19.7039L9.65159 19.8399C9.87659 20.0602 10.261 20.0133 10.4203 19.7414C10.4906 19.6242 10.5 19.3524 10.5 16.9992C10.5 14.1071 10.5047 14.1727 10.1953 14.0414C10.0031 13.9617 9.99846 13.9617 9.81565 14.0414Z" fill="currentColor"/>
<path d="M13.7953 14.0461C13.4953 14.1774 13.5 14.1164 13.5 16.9992C13.5 19.3524 13.5094 19.6242 13.5797 19.7414C13.7391 20.0133 14.1235 20.0602 14.3485 19.8399L14.4844 19.7039V17.0133C14.4844 14.0321 14.4985 14.1774 14.175 14.0414C13.9875 13.9617 13.9828 13.9617 13.7953 14.0461Z" fill="currentColor"/>
<path d="M17.7797 14.0508C17.4797 14.2008 17.4844 14.168 17.4844 16.9711C17.4844 19.6992 17.4891 19.7321 17.7235 19.9008C17.8641 19.9992 18.136 19.9992 18.2766 19.9008C18.511 19.7321 18.5156 19.6992 18.5156 16.9711C18.5156 14.1539 18.5203 14.1961 18.211 14.0508C18.0188 13.9571 17.9672 13.9571 17.7797 14.0508Z" fill="currentColor"/>
<path fill-rule="evenodd" clip-rule="evenodd" d="M2.01562 12.2789V16.9477C2.01562 20.2008 2.02969 21.6446 2.06719 21.7242C2.09531 21.7852 2.175 21.8696 2.25 21.9117C2.37188 21.9867 3.1125 21.9914 12 21.9914C20.8875 21.9914 21.6281 21.9867 21.75 21.9117C21.825 21.8696 21.9047 21.7852 21.9328 21.7242C21.9703 21.6446 21.9844 20.2008 21.9844 16.9477V12.2789C21.9844 12.2789 21.925 12.0227 21.7125 12.0071C21.5 11.9914 12 12.0071 12 12.0071C12 12.0071 2.50352 11.9912 2.2875 12.0071C2.07148 12.0229 2.01562 12.2789 2.01562 12.2789ZM21 21.0071V12.9914H3V21.0071H21Z" stroke="currentColor" stroke-width="0.2"/>
<path d="M5.77971 14.0508C5.47971 14.2008 5.4844 14.168 5.4844 16.9711C5.4844 19.6992 5.48909 19.7321 5.72346 19.9008C5.86409 19.9992 6.13596 19.9992 6.27659 19.9008C6.51096 19.7321 6.51565 19.6992 6.51565 16.9711C6.51565 14.1539 6.52034 14.1961 6.21096 14.0508C6.01877 13.9571 5.96721 13.9571 5.77971 14.0508Z" stroke="currentColor" stroke-width="0.2"/>
<path d="M9.81565 14.0414C9.50159 14.1774 9.51565 14.0414 9.51565 17.0133V19.7039L9.65159 19.8399C9.87659 20.0602 10.261 20.0133 10.4203 19.7414C10.4906 19.6242 10.5 19.3524 10.5 16.9992C10.5 14.1071 10.5047 14.1727 10.1953 14.0414C10.0031 13.9617 9.99846 13.9617 9.81565 14.0414Z" stroke="currentColor" stroke-width="0.2"/>
<path d="M13.7953 14.0461C13.4953 14.1774 13.5 14.1164 13.5 16.9992C13.5 19.3524 13.5094 19.6242 13.5797 19.7414C13.7391 20.0133 14.1235 20.0602 14.3485 19.8399L14.4844 19.7039V17.0133C14.4844 14.0321 14.4985 14.1774 14.175 14.0414C13.9875 13.9617 13.9828 13.9617 13.7953 14.0461Z" stroke="currentColor" stroke-width="0.2"/>
<path d="M17.7797 14.0508C17.4797 14.2008 17.4844 14.168 17.4844 16.9711C17.4844 19.6992 17.4891 19.7321 17.7235 19.9008C17.8641 19.9992 18.136 19.9992 18.2766 19.9008C18.511 19.7321 18.5156 19.6992 18.5156 16.9711C18.5156 14.1539 18.5203 14.1961 18.211 14.0508C18.0188 13.9571 17.9672 13.9571 17.7797 14.0508Z" stroke="currentColor" stroke-width="0.2"/>
</svg>
