<svg width="24" height="24" viewBox="0 0 24 24" fill="currentColor" xmlns="http://www.w3.org/2000/svg">
<path fill-rule="evenodd" clip-rule="evenodd" d="M22.6058 12.7781C21.501 14.7886 18.0534 20 12.0001 20C5.94677 20 2.49915 14.7886 1.39435 12.7781C1.12571 12.2893 1.12571 11.7107 1.39435 11.2219C2.49915 9.21141 5.94677 4 12.0001 4C18.0534 4 21.501 9.21142 22.6058 11.2219C22.8745 11.7107 22.8745 12.2893 22.6058 12.7781ZM15.5001 12C15.5001 13.933 13.9331 15.5 12.0001 15.5C10.0671 15.5 8.5001 13.933 8.5001 12C8.5001 10.067 10.0671 8.5 12.0001 8.5C13.9331 8.5 15.5001 10.067 15.5001 12Z" fill="currentColor"/>
</svg>
