<svg width="24" height="24" viewBox="0 0 24 24" fill="none" xmlns="http://www.w3.org/2000/svg">
<path d="M4 3C2.89543 3 2 3.89543 2 5V5.17157C2 5.70201 2.21071 6.21071 2.58579 6.58579L9.41421 13.4142C9.78929 13.7893 10 14.298 10 14.8284V22.382C10 23.1253 10.7823 23.6088 11.4472 23.2764L12.8944 22.5528C13.572 22.214 14 21.5215 14 20.7639V14.8284C14 14.298 14.2107 13.7893 14.5858 13.4142L21.4142 6.58579C21.7893 6.21071 22 5.70201 22 5.17157V5C22 3.89543 21.1046 3 20 3H4Z" fill="currentColor"/>
</svg>
