<svg width="24" height="24" viewBox="0 0 24 24" fill="currentColor" xmlns="http://www.w3.org/2000/svg">
<path d="M11 15.5C11 16.0523 11.4477 16.5 12 16.5C12.5522 16.5 13 16.0523 13 15.5V14H14.5C15.0522 14 15.5 13.5523 15.5 13C15.5 12.4477 15.0522 12 14.5 12H13V10.5C13 9.94771 12.5522 9.5 12 9.5C11.4477 9.5 11 9.94771 11 10.5V12H9.5C8.94771 12 8.5 12.4477 8.5 13C8.5 13.5523 8.94771 14 9.5 14H11V15.5Z" fill="currentColor"/>
<path fill-rule="evenodd" clip-rule="evenodd" d="M10.5857 4.58578L12 6H20C21.1045 6 22 6.89543 22 8V18C22 19.1045 21.1045 20 20 20H4C2.89544 20 2 19.1045 2 18V6C2 4.89543 2.89543 4 4 4H9.17158C9.70201 4 10.2107 4.21071 10.5857 4.58578ZM12 8C11.4695 8 10.9608 7.78928 10.5857 7.41421L9.17158 6H4V18H20V8H12Z" fill="currentColor"/>
</svg>
