<svg width="24" height="24" viewBox="0 0 24 24" fill="currentColor" xmlns="http://www.w3.org/2000/svg">
<path fill-rule="evenodd" clip-rule="evenodd" d="M22 18C22 19.1045 21.1045 20 20 20H4C2.89544 20 2 19.1045 2 18V5.99997C2 4.8954 2.89543 3.99997 4 3.99997H9.17158C9.70201 3.99997 10.2107 4.21068 10.5857 4.58576L12 5.99997H20C21.1045 5.99997 22 6.8954 22 7.99997V18ZM11 15.5C11 16.0523 11.4478 16.5 12 16.5C12.5522 16.5 13 16.0523 13 15.5V14H14.5C15.0522 14 15.5 13.5523 15.5 13C15.5 12.4477 15.0522 12 14.5 12H13V10.5C13 9.94768 12.5522 9.49997 12 9.49997C11.4478 9.49997 11 9.94768 11 10.5V12H9.50001C8.94772 12 8.50001 12.4477 8.50001 13C8.50001 13.5523 8.94772 14 9.50001 14H11V15.5Z" fill="currentColor"/>
</svg>
