<svg width="24" height="24" viewBox="0 0 24 24" fill="none" xmlns="http://www.w3.org/2000/svg">
<path fill-rule="evenodd" clip-rule="evenodd" d="M7.59715 3C4.46571 3 1.86087 5.4082 1.61558 8.53002L1.50009 10L0.82832 17.3894C0.652059 19.3283 2.17867 21 4.12554 21C5.2885 21 6.36619 20.3898 6.96453 19.3926L9.00009 16H15.0001L17.0356 19.3926C17.634 20.3898 18.7117 21 19.8746 21C21.8215 21 23.3481 19.3283 23.1719 17.3894L22.5001 10L22.3846 8.53002C22.1393 5.4082 19.5345 3 16.403 3H7.59715ZM8.00012 12C7.51687 12 7.12512 11.6083 7.12512 11.125V10.375H6.37512C5.89187 10.375 5.50012 9.98325 5.50012 9.5C5.50012 9.01675 5.89187 8.625 6.37512 8.625H7.12512V7.875C7.12512 7.39175 7.51687 7 8.00012 7C8.48337 7 8.87512 7.39175 8.87512 7.875V8.625H9.62512C10.1084 8.625 10.5001 9.01675 10.5001 9.5C10.5001 9.98325 10.1084 10.375 9.62512 10.375H8.87512V11.125C8.87512 11.6083 8.48337 12 8.00012 12ZM13.5001 9.5C13.5001 9.01675 13.8919 8.625 14.3751 8.625H17.6251C18.1084 8.625 18.5001 9.01675 18.5001 9.5C18.5001 9.98325 18.1084 10.375 17.6251 10.375H14.3751C13.8919 10.375 13.5001 9.98325 13.5001 9.5Z" fill="currentColor"/>
</svg>
