<svg width="24" height="24" viewBox="0 0 24 24" fill="none" xmlns="http://www.w3.org/2000/svg">
<path fill-rule="evenodd" clip-rule="evenodd" d="M5 5.5C5 6.0368 5.12085 6.54537 5.33682 7H4C2.89543 7 2 7.89543 2 9V12C2 13.1046 2.89543 14 4 14V20C4 21.1046 4.89543 22 6 22H18C19.1046 22 20 21.1046 20 20V14C21.1046 14 22 13.1046 22 12V9C22 7.89543 21.1046 7 20 7H18.6632C18.8792 6.54537 19 6.0368 19 5.5C19 3.567 17.433 2 15.5 2C13.8139 2 12.6985 2.9649 12 4.06536C11.3015 2.9649 10.1861 2 8.5 2C6.567 2 5 3.567 5 5.5ZM7 5.5C7 6.32843 7.67157 7 8.5 7H10.9999C10.9998 6.99956 10.9997 6.99883 10.9996 6.99779L10.9993 6.99493V6.99473V6.99464C10.9952 6.95639 10.9713 6.73156 10.863 6.36811C10.7497 5.98795 10.5748 5.56236 10.3365 5.17711C9.86375 4.41287 9.2918 4 8.5 4C7.67157 4 7 4.67157 7 5.5ZM11 9H4V12H11V9ZM13 9V12H20V9H13ZM17 5.5C17 6.32843 16.3284 7 15.5 7H13.0001C13.0002 6.99956 13.0003 6.99883 13.0004 6.99779C13.0005 6.99701 13.0006 6.99605 13.0007 6.99493V6.99473V6.99464C13.0048 6.95639 13.0287 6.73156 13.1371 6.36811C13.2503 5.98795 13.4252 5.56236 13.6635 5.17711C14.1363 4.41287 14.7082 4 15.5 4C16.3284 4 17 4.67157 17 5.5ZM6 14V20H11V14H6ZM18 20V14H13V20H18Z" fill="currentColor"/>
</svg>
