<svg width="24" height="24" viewBox="0 0 24 24" fill="none" xmlns="http://www.w3.org/2000/svg">
<path fill-rule="evenodd" clip-rule="evenodd" d="M21.9998 10.1667L19.9998 11.3334V17.1846C19.9998 17.8959 19.622 18.5538 19.0075 18.9122L13.0075 22.4122C12.3848 22.7754 11.6148 22.7754 10.992 22.4122L4.99201 18.9122C4.37757 18.5538 3.99975 17.8959 3.99975 17.1846V11.3334L1.48051 9.8638C0.818999 9.47793 0.818998 8.52212 1.48051 8.13624L10.992 2.58787C11.6148 2.22462 12.3848 2.22462 13.0075 2.58787L23.5037 8.71062C23.8109 8.88983 23.9998 9.21873 23.9998 9.57439V15C23.9998 15.5523 23.5521 16 22.9998 16C22.4475 16 21.9998 15.5523 21.9998 15V10.1667ZM5.99975 12.5V17.1846L11.9998 20.6846L17.9998 17.1846V12.5L13.0075 15.4122C12.3848 15.7754 11.6148 15.7754 10.992 15.4122L5.99975 12.5ZM20.0305 9.00002L11.9998 4.31543L3.96902 9.00002L11.9998 13.6846L20.0305 9.00002Z" fill="currentColor"/>
</svg>
