<svg width="24" height="24" viewBox="0 0 24 24" fill="currentColor" xmlns="http://www.w3.org/2000/svg">
<path d="M13.0075 2.58787C12.3848 2.22462 11.6148 2.22462 10.992 2.58787L1.48051 8.13624C0.818998 8.52212 0.818999 9.47793 1.48051 9.8638L10.992 15.4122C11.0699 15.4576 11.15 15.4973 11.2319 15.5314C11.805 15.7697 12.4626 15.73 13.0075 15.4122L21.9998 10.1667V15C21.9998 15.5523 22.4475 16 22.9998 16C23.5521 16 23.9998 15.5523 23.9998 15V9.57439C23.9998 9.21873 23.8109 8.88983 23.5037 8.71062L13.0075 2.58787Z" fill="currentColor"/>
<path d="M4.99201 18.9122C4.37757 18.5537 3.99975 17.8959 3.99975 17.1846V13.3334L10.992 17.4122C11.6148 17.7754 12.3848 17.7754 13.0075 17.4122L19.9998 13.3334V17.1846C19.9998 17.8959 19.622 18.5537 19.0075 18.9122L13.0075 22.4122C12.3848 22.7754 11.6148 22.7754 10.992 22.4122L4.99201 18.9122Z" fill="currentColor"/>
</svg>
