<svg width="24" height="24" viewBox="0 0 24 24" fill="currentColor" xmlns="http://www.w3.org/2000/svg">
<path fill-rule="evenodd" clip-rule="evenodd" d="M19.9381 11C19.446 7.05369 16.0796 4 12 4C7.92038 4 4.55399 7.05369 4.06189 11H7C8.10457 11 9 11.8954 9 13V17C9 18.1046 8.10457 19 7 19H4C2.89543 19 2 18.1046 2 17V12C2 6.47715 6.47715 2 12 2C17.5228 2 22 6.47715 22 12V19C22 21.2091 20.2091 23 18 23H13C12.4477 23 12 22.5523 12 22C12 21.4477 12.4477 21 13 21H18C19.1046 21 20 20.1046 20 19H17C15.8954 19 15 18.1046 15 17V13C15 11.8954 15.8954 11 17 11H19.9381ZM17 13H20V17H17V13ZM4 13V17H7V13H4Z" fill="currentColor"/>
</svg>
