<svg width="24" height="24" viewBox="0 0 24 24" fill="currentColor" xmlns="http://www.w3.org/2000/svg">
<path fill-rule="evenodd" clip-rule="evenodd" d="M17.8284 8.17157L14 12L17.8284 15.8284C18.5786 16.5786 19 17.596 19 18.6569V20C19 21.1046 18.1046 22 17 22H7C5.89543 22 5 21.1046 5 20V18.6569C5 17.596 5.42143 16.5786 6.17157 15.8284L10 12L6.17157 8.17157C5.42143 7.42143 5 6.40401 5 5.34315V4C5 2.89543 5.89543 2 7 2H17C18.1046 2 19 2.89543 19 4V5.34315C19 6.40401 18.5786 7.42143 17.8284 8.17157ZM12 12.8284L16.4142 17.2426C16.7893 17.6177 17 18.1264 17 18.6569V20H7V18.6569C7 18.1264 7.21071 17.6177 7.58579 17.2426L12 12.8284ZM12 11.1716L16.4142 6.75736C16.7893 6.38229 17 5.87358 17 5.34315V4H7V5.34315C7 5.87358 7.21071 6.38229 7.58579 6.75736L12 11.1716Z" fill="currentColor"/>
</svg>
