<svg width="24" height="24" viewBox="0 0 24 24" fill="currentColor" xmlns="http://www.w3.org/2000/svg">
<path fill-rule="evenodd" clip-rule="evenodd" d="M20.9594 4.59693C20.7729 3.68556 19.9665 3 19 3H5C4.0335 3 3.22713 3.68556 3.04063 4.59693C3.01399 4.72713 3 4.86193 3 5V19C3 20.1046 3.89543 21 5 21H19C20.1046 21 21 20.1046 21 19V5C21 4.86193 20.986 4.72713 20.9594 4.59693ZM16.7071 10.7071L19 13V19H5V14.2778L6.34759 13.0799C6.72135 12.7477 7.28307 12.7426 7.66275 13.0681L9.79691 14.8974C10.1936 15.2374 10.7853 15.2147 11.1548 14.8452L15.2929 10.7071C15.6834 10.3166 16.3166 10.3166 16.7071 10.7071ZM12 8.75C12 9.7165 11.2165 10.5 10.25 10.5C9.2835 10.5 8.5 9.7165 8.5 8.75C8.5 7.7835 9.2835 7 10.25 7C11.2165 7 12 7.7835 12 8.75Z" fill="currentColor"/>
</svg>
