<svg width="24" height="24" viewBox="0 0 24 24" fill="currentColor" xmlns="http://www.w3.org/2000/svg">
<path d="M13.212 16.3265L20.4119 10.8409C21.4624 10.0405 21.4624 8.4596 20.4119 7.65918L13.212 2.17354C12.496 1.62803 11.5038 1.62803 10.7878 2.17354L3.5879 7.65918C2.53735 8.4596 2.53735 10.0405 3.5879 10.8409L10.7878 16.3265C11.5038 16.8721 12.496 16.8721 13.212 16.3265Z" fill="currentColor"/>
<path d="M19.7623 14.3358C20.1176 14.0651 20.61 14.0652 20.9652 14.3361C21.4859 14.7331 21.4859 15.5169 20.9652 15.914L13.2126 21.8254C12.4964 22.3715 11.5034 22.3715 10.7872 21.8254L3.03462 15.914C2.51385 15.5169 2.51385 14.7331 3.03462 14.3361C3.07902 14.3022 3.12556 14.2726 3.17371 14.2472C3.51077 14.0694 3.92662 14.099 4.23751 14.3358L11.9999 20.25L19.7623 14.3358Z" fill="currentColor"/>
</svg>
