<svg width="24" height="24" viewBox="0 0 24 24" fill="currentColor" xmlns="http://www.w3.org/2000/svg">
<path d="M12 5C11.4477 5 11 5.44772 11 6C11 6.55229 11.4477 7 12 7C12.2626 7 12.5227 7.05173 12.7654 7.15224C13.008 7.25275 13.2285 7.40007 13.4142 7.58579C13.5999 7.7715 13.7473 7.99198 13.8478 8.23463C13.9483 8.47728 14 8.73736 14 9C14 9.55229 14.4477 10 15 10C15.5523 10 16 9.55229 16 9C16 8.47471 15.8965 7.95457 15.6955 7.46927C15.4945 6.98396 15.1999 6.54301 14.8284 6.17157C14.457 5.80014 14.016 5.5055 13.5307 5.30448C13.0454 5.10346 12.5253 5 12 5Z" fill="currentColor"/>
<path fill-rule="evenodd" clip-rule="evenodd" d="M17.1631 15.111C16.4902 15.6802 16 16.4725 16 17.3539C16 18.263 15.263 19 14.3539 19H9.64609C8.73698 19 8 18.263 8 17.3539C8 16.4725 7.50985 15.6802 6.83686 15.111C5.10173 13.6436 4 11.4504 4 9C4 4.58172 7.58172 1 12 1C16.4183 1 20 4.58172 20 9C20 11.4504 18.8983 13.6436 17.1631 15.111ZM15.8716 13.584C17.1766 12.4802 18 10.8373 18 9C18 5.68629 15.3137 3 12 3C8.68629 3 6 5.68629 6 9C6 10.8373 6.82336 12.4802 8.12838 13.584C9.02581 14.3429 9.8681 15.5206 9.98596 17H14.014C14.1319 15.5206 14.9742 14.3429 15.8716 13.584Z" fill="currentColor"/>
<path d="M8 22C8 21.4477 8.44772 21 9 21H15C15.5523 21 16 21.4477 16 22C16 22.5523 15.5523 23 15 23H9C8.44772 23 8 22.5523 8 22Z" fill="currentColor"/>
</svg>
