<svg width="24" height="24" viewBox="0 0 24 24" fill="none" xmlns="http://www.w3.org/2000/svg">
<path fill-rule="evenodd" clip-rule="evenodd" d="M14.9998 8C14.9998 9.65686 13.6567 11 11.9998 11C10.343 11 8.99982 9.65686 8.99982 8C8.99982 6.34315 10.343 5 11.9998 5C13.6567 5 14.9998 6.34315 14.9998 8ZM12.9998 8C12.9998 8.55229 12.5521 9 11.9998 9C11.4475 9 10.9998 8.55229 10.9998 8C10.9998 7.44772 11.4475 7 11.9998 7C12.5521 7 12.9998 7.44772 12.9998 8Z" fill="currentColor"/>
<path fill-rule="evenodd" clip-rule="evenodd" d="M13.2408 17.8498C15.2518 15.8779 18.9998 11.7054 18.9998 8C18.9998 4.11 15.8658 1 11.9998 1C8.13382 1 4.99982 4.11 4.99982 8C4.99982 11.7054 8.74785 15.8779 10.7588 17.8498C11.4574 18.5349 12.5422 18.5349 13.2408 17.8498ZM15.219 12.4526C16.3395 10.7999 16.9998 9.24316 16.9998 8C16.9998 5.21904 14.7657 3 11.9998 3C9.23392 3 6.99982 5.21904 6.99982 8C6.99982 9.24316 7.66009 10.7999 8.7806 12.4526C9.80573 13.9646 11.0569 15.3267 11.9998 16.2645C12.9427 15.3267 14.1939 13.9646 15.219 12.4526Z" fill="currentColor"/>
<path d="M5.88816 15.3239C5.42322 14.8589 4.64379 14.9616 4.31503 15.531L1.30183 20.75C0.724484 21.75 1.44617 23 2.60087 23H21.4017C22.5564 23 23.2781 21.75 22.7008 20.75L19.6865 15.5291C19.3577 14.9597 18.5783 14.8571 18.1133 15.322C17.7933 15.642 17.7281 16.1371 17.9544 16.5291L20.5357 21H3.4669L6.04708 16.531C6.27338 16.139 6.2082 15.6439 5.88816 15.3239Z" fill="currentColor"/>
</svg>
