<svg width="24" height="24" viewBox="0 0 24 24" fill="currentColor" xmlns="http://www.w3.org/2000/svg">
<path d="M12 16.5C12.8284 16.5 13.5 15.8284 13.5 15C13.5 14.1716 12.8284 13.5 12 13.5C11.1716 13.5 10.5 14.1716 10.5 15C10.5 15.8284 11.1716 16.5 12 16.5Z" fill="currentColor"/>
<path fill-rule="evenodd" clip-rule="evenodd" d="M12 2C13.6569 2 15 3.34315 15 5V5.5C15 6.05229 15.4477 6.5 16 6.5C16.5523 6.5 17 6.05229 17 5.5V5C17 2.23858 14.7614 0 12 0C9.23858 0 7 2.23858 7 5V9.00003H5C3.89543 9.00003 3 9.89546 3 11V19C3 20.1046 3.89543 21 5 21H19C20.1046 21 21 20.1046 21 19V11C21 9.89546 20.1046 9.00003 19 9.00003L9 9V5C9 3.34315 10.3431 2 12 2ZM5 11V19H19V11H5Z" fill="currentColor"/>
</svg>
