<svg width="24" height="24" viewBox="0 0 24 24" fill="currentColor" xmlns="http://www.w3.org/2000/svg">
<path fill-rule="evenodd" clip-rule="evenodd" d="M7 9V6C7 3.23858 9.23858 1 12 1C14.7614 1 17 3.23858 17 6V9H19C20.1046 9 21 9.89543 21 11V19C21 20.1046 20.1046 21 19 21H5C3.89543 21 3 20.1046 3 19V11C3 9.89543 3.89543 9 5 9H7ZM12 3C13.6569 3 15 4.34315 15 6V9H9V6C9 4.34315 10.3431 3 12 3ZM12 16.5C12.8284 16.5 13.5 15.8284 13.5 15C13.5 14.1716 12.8284 13.5 12 13.5C11.1716 13.5 10.5 14.1716 10.5 15C10.5 15.8284 11.1716 16.5 12 16.5Z" fill="currentColor"/>
</svg>
