<svg width="24" height="24" viewBox="0 0 24 24" fill="none" xmlns="http://www.w3.org/2000/svg">
<path d="M16.5 5.5C16.5 7.64159 15.004 9.43376 13 9.88849V16.5C13 17.0523 12.5523 17.5 12 17.5C11.4477 17.5 11 17.0523 11 16.5V9.88849C8.99601 9.43376 7.5 7.64159 7.5 5.5C7.5 3.01472 9.51472 1 12 1C14.4853 1 16.5 3.01472 16.5 5.5Z" fill="currentColor"/>
<path d="M9 14.4483C9 13.8264 8.43651 13.3525 7.83485 13.5099C4.96116 14.2613 3 15.7662 3 17.5C3 19.9853 7.02944 22 12 22C16.9706 22 21 19.9853 21 17.5C21 15.7662 19.0388 14.2613 16.1652 13.5099C15.5635 13.3525 15 13.8264 15 14.4483V14.4754C15 14.9505 15.3359 15.3553 15.7941 15.481C16.4279 15.6549 16.9918 15.868 17.4695 16.1069C18.8856 16.8149 19 17.423 19 17.5C19 17.577 18.8856 18.1851 17.4695 18.8931C16.1731 19.5414 14.2421 20 12 20C9.75789 20 7.82691 19.5414 6.53047 18.8931C5.1144 18.1851 5 17.577 5 17.5C5 17.423 5.1144 16.8149 6.53047 16.1069C7.00819 15.868 7.57206 15.6549 8.20592 15.481C8.66414 15.3553 9 14.9505 9 14.4754V14.4483Z" fill="currentColor"/>
</svg>
