<svg width="24" height="24" viewBox="0 0 24 24" fill="currentColor" xmlns="http://www.w3.org/2000/svg">
<path fill-rule="evenodd" clip-rule="evenodd" d="M21 10C21 15.428 14.6665 21.6012 12.6256 23.4496C12.2667 23.7746 11.7333 23.7746 11.3744 23.4496C9.33352 21.6012 3 15.428 3 10C3 5.02944 7.02944 1 12 1C16.9706 1 21 5.02944 21 10ZM15.25 10C15.25 11.7949 13.7949 13.25 12 13.25C10.2051 13.25 8.75 11.7949 8.75 10C8.75 8.20508 10.2051 6.75 12 6.75C13.7949 6.75 15.25 8.20508 15.25 10Z" fill="currentColor"/>
</svg>
