<svg width="24" height="24" viewBox="0 0 24 24" fill="none" xmlns="http://www.w3.org/2000/svg">
<path d="M10.5 10C10.5 10.8284 9.82843 11.5 9 11.5C8.17157 11.5 7.5 10.8284 7.5 10C7.5 9.17157 8.17157 8.5 9 8.5C9.82843 8.5 10.5 9.17157 10.5 10Z" fill="currentColor"/>
<path d="M16.5 10C16.5 10.8284 15.8284 11.5 15 11.5C14.1716 11.5 13.5 10.8284 13.5 10C13.5 9.17157 14.1716 8.5 15 8.5C15.8284 8.5 16.5 9.17157 16.5 10Z" fill="currentColor"/>
<path d="M13.9654 15.7332C14.3825 16.0952 14.9868 16.2765 15.4649 16C15.9429 15.7235 16.1127 15.103 15.7468 14.6893C14.8316 13.6543 13.4926 13 12 13C10.5074 13 9.16847 13.6543 8.25322 14.6893C7.88735 15.103 8.05708 15.7235 8.53514 16C9.01321 16.2765 9.61754 16.0952 10.0346 15.7332C10.5616 15.2758 11.2489 15 12 15C12.7511 15 13.4384 15.2758 13.9654 15.7332Z" fill="currentColor"/>
<path fill-rule="evenodd" clip-rule="evenodd" d="M12 22C17.5228 22 22 17.5228 22 12C22 6.47715 17.5228 2 12 2C6.47715 2 2 6.47715 2 12C2 17.5228 6.47715 22 12 22ZM12 20C16.4183 20 20 16.4183 20 12C20 7.58172 16.4183 4 12 4C7.58172 4 4 7.58172 4 12C4 16.4183 7.58172 20 12 20Z" fill="currentColor"/>
</svg>
