<svg width="24" height="24" viewBox="0 0 24 24" fill="none" xmlns="http://www.w3.org/2000/svg">
<path fill-rule="evenodd" clip-rule="evenodd" d="M22 12C22 17.5228 17.5228 22 12 22C6.47715 22 2 17.5228 2 12C2 6.47715 6.47715 2 12 2C17.5228 2 22 6.47715 22 12ZM10.5 10C10.5 10.8284 9.82843 11.5 9 11.5C8.17157 11.5 7.5 10.8284 7.5 10C7.5 9.17157 8.17157 8.5 9 8.5C9.82843 8.5 10.5 9.17157 10.5 10ZM15 11.5C15.8284 11.5 16.5 10.8284 16.5 10C16.5 9.17157 15.8284 8.5 15 8.5C14.1716 8.5 13.5 9.17157 13.5 10C13.5 10.8284 14.1716 11.5 15 11.5ZM8.25777 14.5C8.71673 14.1928 9.33132 14.3307 9.75478 14.6852C10.363 15.1945 11.1459 15.5 12 15.5C12.8541 15.5 13.637 15.1945 14.2452 14.6852C14.6687 14.3307 15.2833 14.1928 15.7422 14.5C16.2012 14.8072 16.3297 15.4364 15.9448 15.8324C14.9463 16.8599 13.548 17.5 12 17.5C10.452 17.5 9.05372 16.8599 8.05518 15.8324C7.67028 15.4364 7.79882 14.8072 8.25777 14.5Z" fill="currentColor"/>
</svg>
