<svg width="24" height="24" viewBox="0 0 24 24" fill="currentColor" xmlns="http://www.w3.org/2000/svg">
<g clip-path="url(#clip0_10_100)">
<path d="M12 14.5C13.3807 14.5 14.5 13.3807 14.5 12C14.5 10.6193 13.3807 9.5 12 9.5C10.6193 9.5 9.5 10.6193 9.5 12C9.5 13.3807 10.6193 14.5 12 14.5Z" fill="currentColor"/>
<path fill-rule="evenodd" clip-rule="evenodd" d="M13 1C13 0.447715 12.5523 0 12 0C11.4477 0 11 0.447715 11 1V3.05493C6.82838 3.51608 3.51608 6.82838 3.05493 11H1C0.447715 11 0 11.4477 0 12C0 12.5523 0.447715 13 1 13H3.05493C3.51608 17.1716 6.82838 20.4839 11 20.9451V23C11 23.5523 11.4477 24 12 24C12.5523 24 13 23.5523 13 23V20.9451C17.1716 20.4839 20.4839 17.1716 20.9451 13H23C23.5523 13 24 12.5523 24 12C24 11.4477 23.5523 11 23 11H20.9451C20.4839 6.82838 17.1716 3.51608 13 3.05493V1ZM12 19C15.866 19 19 15.866 19 12C19 8.13401 15.866 5 12 5C8.13401 5 5 8.13401 5 12C5 15.866 8.13401 19 12 19Z" fill="currentColor"/>
</g>
<defs>
<clipPath id="clip0_10_100">
<rect width="24" height="24" fill="currentColor"/>
</clipPath>
</defs>
</svg>
