<svg width="24" height="24" viewBox="0 0 24 24" fill="none" xmlns="http://www.w3.org/2000/svg">
<path fill-rule="evenodd" clip-rule="evenodd" d="M4 19C4 20.1046 4.89543 21 6 21H8.5C9.60457 21 10.5 20.1046 10.5 19V5C10.5 3.89543 9.60457 3 8.5 3H6C4.89543 3 4 3.89543 4 5V19ZM6 5H8.5V19H6V5Z" fill="currentColor"/>
<path fill-rule="evenodd" clip-rule="evenodd" d="M15.5 3C14.3954 3 13.5 3.89543 13.5 5V19C13.5 20.1046 14.3954 21 15.5 21H18C19.1046 21 20 20.1046 20 19V5C20 3.89543 19.1046 3 18 3H15.5ZM15.5 5H18V19H15.5V5Z" fill="currentColor"/>
</svg>
