<svg width="24" height="24" viewBox="0 0 24 24" fill="currentColor" xmlns="http://www.w3.org/2000/svg">
<path d="M6 2C5.44772 2 5 2.44772 5 3C5 3.55228 5.44772 4 6 4H18C18.5523 4 19 3.55228 19 3C19 2.44772 18.5523 2 18 2H6Z" fill="currentColor"/>
<path fill-rule="evenodd" clip-rule="evenodd" d="M4 6C2.89543 6 2 6.89543 2 8V19C2 20.1046 2.89543 21 4 21H20C21.1046 21 22 20.1046 22 19V8C22 6.89543 21.1046 6 20 6H4ZM11.05 15.7804C10.65 16.0113 10.15 15.7227 10.15 15.2608V11.7392C10.15 11.2773 10.65 10.9887 11.05 11.2196L14.0999 12.9804C14.5 13.2113 14.5 13.7887 14.0999 14.0196L11.05 15.7804Z" fill="currentColor"/>
</svg>
