<svg width="24" height="24" viewBox="0 0 24 24" fill="none" xmlns="http://www.w3.org/2000/svg">
<path d="M15.8495 0.372033C15.6543 0.17677 15.3377 0.17677 15.1424 0.372032L14.4353 1.07914C14.2401 1.2744 14.2401 1.59098 14.4353 1.78625L14.7889 2.1398L9.13203 7.79666L3.01631 9.46458C2.27555 9.66661 2.02939 10.5935 2.57232 11.1364L7.01071 15.5748L2.06096 20.5246C1.67044 20.9151 1.67044 21.5483 2.06096 21.9388C2.45148 22.3293 3.08465 22.3293 3.47517 21.9388L8.42492 16.989L12.8633 21.4274C13.4062 21.9704 14.3331 21.7242 14.5352 20.9834L16.2031 14.8677L21.8599 9.21087L22.2135 9.56442C22.4088 9.75968 22.7253 9.75968 22.9206 9.56442L23.6277 8.85732C23.823 8.66205 23.823 8.34547 23.6277 8.15021L15.8495 0.372033Z" fill="currentColor"/>
</svg>
