<svg width="24" height="24" viewBox="0 0 24 24" fill="none" xmlns="http://www.w3.org/2000/svg">
<path d="M15.2156 5.99994L14.0943 7.12126C13.7038 7.51178 13.7038 8.14495 14.0943 8.53547C14.4848 8.92599 15.118 8.92599 15.5085 8.53547L18.337 5.70704C18.5245 5.51951 18.6299 5.26515 18.6299 4.99994C18.6299 4.73472 18.5245 4.48037 18.337 4.29283L15.5085 1.4644C15.4597 1.41559 15.4071 1.37287 15.3517 1.33626C14.9635 1.07998 14.436 1.12269 14.0943 1.4644C13.7038 1.85493 13.7038 2.48809 14.0943 2.87862L15.2156 3.99994H10.0088C5.59051 3.99994 2.00879 7.58166 2.00879 11.9999C2.00879 13.3979 2.36734 14.712 2.9975 15.8555C3.29674 16.3985 4.02656 16.4466 4.46495 16.0082C4.81428 15.6589 4.85507 15.1135 4.63482 14.6713C4.23414 13.8668 4.00879 12.9597 4.00879 11.9999C4.00879 8.68623 6.69508 5.99994 10.0088 5.99994H15.2156Z" fill="currentColor"/>
<path d="M9.92326 21.1213L8.80194 19.9999H14.0088C18.4271 19.9999 22.0088 16.4182 22.0088 11.9999C22.0088 10.602 21.6502 9.28782 21.0201 8.14433C20.9827 8.07646 20.9385 8.01632 20.8891 7.96389C20.5429 7.59691 19.9362 7.60803 19.5526 7.99162C19.2033 8.34095 19.1625 8.88632 19.3828 9.32854C19.4328 9.4291 19.4802 9.53126 19.5247 9.63493C19.8363 10.3606 20.0088 11.1601 20.0088 11.9999C20.0088 15.3136 17.3225 17.9999 14.0088 17.9999H8.80194L9.92326 16.8786C10.3138 16.4881 10.3138 15.8549 9.92326 15.4644C9.53273 15.0739 8.89957 15.0739 8.50904 15.4644L5.68062 18.2928C5.49308 18.4804 5.38772 18.7347 5.38772 18.9999C5.38772 19.2652 5.49308 19.5195 5.68062 19.707L8.50904 22.5355C8.89957 22.926 9.53273 22.926 9.92326 22.5355C10.3138 22.1449 10.3138 21.5118 9.92326 21.1213Z" fill="currentColor"/>
</svg>
