<svg width="24" height="24" viewBox="0 0 24 24" fill="currentColor" xmlns="http://www.w3.org/2000/svg">
<path d="M13.4998 7.09809C12.0649 7.92652 10.2301 7.43489 9.4017 6.00001C8.57327 4.56513 9.0649 2.73036 10.4998 1.90194C11.9347 1.07351 13.7694 1.56513 14.5979 3.00001C15.4263 4.43489 14.9347 6.26966 13.4998 7.09809Z" fill="currentColor"/>
<path d="M9.4017 21C10.2301 22.4349 12.0649 22.9265 13.4998 22.0981C14.9347 21.2697 15.4263 19.4349 14.5979 18C13.7694 16.5651 11.9347 16.0735 10.4998 16.9019C9.0649 17.7304 8.57327 19.5651 9.4017 21Z" fill="currentColor"/>
<path d="M4.8514 9.77626C3.9325 10.3068 3.61766 11.4818 4.14819 12.4007C4.63264 13.2398 5.66611 13.5868 6.55882 13.2102L16.6633 8.9471C18.4853 8.17838 20.5946 8.88671 21.5834 10.5993C22.6662 12.4748 22.0236 14.873 20.1481 15.9558L17.6983 17.3702C17.22 17.6463 16.6084 17.4825 16.3323 17.0042C16.0562 16.5259 16.22 15.9143 16.6983 15.6382L19.1481 14.2238C20.067 13.6932 20.3819 12.5182 19.8513 11.5993C19.3669 10.7602 18.3334 10.4132 17.4407 10.7898L7.33626 15.0529C5.51423 15.8216 3.40491 15.1133 2.41613 13.4007C1.33332 11.5252 1.97591 9.12702 3.8514 8.04421L6.3012 6.62981C6.7795 6.35367 7.39109 6.51754 7.66723 6.99584C7.94337 7.47413 7.7795 8.08572 7.3012 8.36186L4.8514 9.77626Z" fill="currentColor"/>
</svg>
