<svg width="24" height="24" viewBox="0 0 24 24" fill="currentColor" xmlns="http://www.w3.org/2000/svg">
<path d="M15.5 13C16.3284 13 17 12.3284 17 11.5C17 10.6716 16.3284 10 15.5 10C14.6716 10 14 10.6716 14 11.5C14 12.3284 14.6716 13 15.5 13Z" fill="currentColor"/>
<path fill-rule="evenodd" clip-rule="evenodd" d="M2 5C2 3.89543 2.89543 3 4 3H20C21.1046 3 22 3.89543 22 5V18C22 19.1046 21.1046 20 20 20H19V21C19 21.5523 18.5523 22 18 22C17.4477 22 17 21.5523 17 21V20H7V21C7 21.5523 6.55229 22 6 22C5.44772 22 5 21.5523 5 21V20H4C2.89543 20 2 19.1046 2 18V5ZM15.5 15C17.433 15 19 13.433 19 11.5C19 9.567 17.433 8 15.5 8C13.567 8 12 9.567 12 11.5C12 13.433 13.567 15 15.5 15ZM5 15C5 15.5523 5.44772 16 6 16C6.55229 16 7 15.5523 7 15V8C7 7.44772 6.55229 7 6 7C5.44772 7 5 7.44772 5 8V15Z" fill="currentColor"/>
</svg>
