<svg width="24" height="24" viewBox="0 0 24 24" fill="currentColor" xmlns="http://www.w3.org/2000/svg">
<path fill-rule="evenodd" clip-rule="evenodd" d="M20.0006 6.2225C20.619 6.57985 21 7.23993 21 7.95423V16.0457C21 16.76 20.619 17.4201 20.0006 17.7774L13.0006 21.8219C12.3815 22.1796 11.6185 22.1796 10.9994 21.8219L3.99944 17.7774C3.38095 17.4201 3 16.76 3 16.0457V7.95423C3 7.23993 3.38096 6.57985 3.99945 6.2225L10.9994 2.17806C11.6185 1.82037 12.3815 1.82037 13.0006 2.17806L20.0006 6.2225ZM15.5 12C15.5 13.933 13.933 15.5 12 15.5C10.067 15.5 8.5 13.933 8.5 12C8.5 10.067 10.067 8.49996 12 8.49996C13.933 8.49996 15.5 10.067 15.5 12Z" fill="currentColor"/>
</svg>
