<svg width="24" height="24" viewBox="0 0 24 24" fill="currentColor" xmlns="http://www.w3.org/2000/svg">
<path fill-rule="evenodd" clip-rule="evenodd" d="M13.6274 1C14.1274 1 14.5506 1.3694 14.6182 1.86489L14.988 4.57655C15.6915 4.85999 16.3455 5.24054 16.9334 5.70162L19.4685 4.66524C19.9314 4.47601 20.4629 4.65781 20.713 5.09088L22.3401 7.90912C22.5901 8.34219 22.4818 8.89339 22.0865 9.19965L19.922 10.8765C19.9736 11.2436 20.0002 11.6187 20.0002 12C20.0002 12.3813 19.9736 12.7564 19.922 13.1235L22.0865 14.8004C22.1359 14.8386 22.1808 14.8807 22.2211 14.926C22.5033 15.2426 22.5589 15.7119 22.3401 16.0909L20.713 18.9091C20.4629 19.3422 19.9314 19.524 19.4685 19.3348L16.9334 18.2984C16.3455 18.7595 15.6915 19.14 14.988 19.4234L14.6182 22.1351C14.5506 22.6306 14.1274 23 13.6274 23H10.3731C9.87306 23 9.44987 22.6306 9.3823 22.1351L9.01253 19.4234C8.30896 19.14 7.65495 18.7595 7.0671 18.2984L4.53195 19.3348C4.06906 19.524 3.53756 19.3422 3.28752 18.9091L1.66041 16.0909C1.41038 15.6578 1.51869 15.1066 1.91401 14.8004L4.07852 13.1235C4.02693 12.7564 4.00025 12.3813 4.00025 12C4.00025 11.6187 4.02693 11.2436 4.07852 10.8765L1.91401 9.19965C1.51869 8.89339 1.41038 8.34219 1.66041 7.90912L3.28752 5.09088C3.53755 4.65781 4.06906 4.47601 4.53195 4.66524L7.0671 5.70162C7.65495 5.24055 8.30896 4.85999 9.01253 4.57656L9.3823 1.86489C9.44987 1.3694 9.87306 1 10.3731 1H13.6274ZM15.5002 12C15.5002 13.933 13.9332 15.5 12.0002 15.5C10.0672 15.5 8.50024 13.933 8.50024 12C8.50024 10.067 10.0672 8.5 12.0002 8.5C13.9332 8.5 15.5002 10.067 15.5002 12Z" fill="currentColor"/>
</svg>
