<svg width="24" height="24" viewBox="0 0 24 24" fill="currentColor" xmlns="http://www.w3.org/2000/svg">
<path fill-rule="evenodd" clip-rule="evenodd" d="M17.25 8.5C19.3211 8.5 21 6.82107 21 4.75C21 2.67893 19.3211 1 17.25 1C15.1789 1 13.5 2.67893 13.5 4.75C13.5 5.07778 13.5421 5.39574 13.6211 5.69877L7.37469 9.32166C6.69831 8.65875 5.77189 8.25 4.75 8.25C2.67893 8.25 1 9.92893 1 12C1 14.0711 2.67893 15.75 4.75 15.75C5.77189 15.75 6.69831 15.3413 7.37469 14.6783L13.6211 18.3012C13.5421 18.6043 13.5 18.9222 13.5 19.25C13.5 21.3211 15.1789 23 17.25 23C19.3211 23 21 21.3211 21 19.25C21 17.1789 19.3211 15.5 17.25 15.5C16.2281 15.5 15.3017 15.9087 14.6253 16.5716L8.37895 12.9487C8.45795 12.6457 8.5 12.3278 8.5 12C8.5 11.6722 8.45795 11.3543 8.37895 11.0513L14.6253 7.42835C15.3017 8.09126 16.2281 8.5 17.25 8.5ZM19 4.75C19 5.7165 18.2165 6.5 17.25 6.5C16.2835 6.5 15.5 5.7165 15.5 4.75C15.5 3.7835 16.2835 3 17.25 3C18.2165 3 19 3.7835 19 4.75ZM4.75 13.75C5.7165 13.75 6.5 12.9665 6.5 12C6.5 11.0335 5.7165 10.25 4.75 10.25C3.7835 10.25 3 11.0335 3 12C3 12.9665 3.7835 13.75 4.75 13.75ZM17.25 21C18.2165 21 19 20.2165 19 19.25C19 18.2835 18.2165 17.5 17.25 17.5C16.2835 17.5 15.5 18.2835 15.5 19.25C15.5 20.2165 16.2835 21 17.25 21Z" fill="currentColor"/>
</svg>
