<svg width="24" height="24" viewBox="0 0 24 24" fill="none" xmlns="http://www.w3.org/2000/svg">
<path d="M11.409 7.19944C12.4117 6.44628 13.6581 6 15.0088 6H18.2156L17.0943 4.87868C16.7038 4.48815 16.7038 3.85499 17.0943 3.46446C17.436 3.12275 17.9635 3.08004 18.3517 3.33632C18.4071 3.37293 18.4597 3.41565 18.5085 3.46446L21.337 6.29289C21.5245 6.48043 21.6299 6.73478 21.6299 7C21.6299 7.26521 21.5245 7.51957 21.337 7.70711L18.5085 10.5355C18.118 10.9261 17.4848 10.9261 17.0943 10.5355C16.7038 10.145 16.7038 9.51184 17.0943 9.12132L18.2156 8H15.0088C14.017 8 13.1094 8.36099 12.4104 8.95875C12.1509 8.32779 11.813 7.73732 11.409 7.19944Z" fill="currentColor"/>
<path d="M11.0088 12C11.0088 14.2091 12.7997 16 15.0088 16H18.2156L17.0943 14.8787C16.7038 14.4882 16.7038 13.855 17.0943 13.4645C17.4848 13.0739 18.118 13.0739 18.5085 13.4645L21.337 16.2929C21.5245 16.4804 21.6299 16.7348 21.6299 17C21.6299 17.2652 21.5245 17.5196 21.337 17.7071L18.5085 20.5355C18.118 20.9261 17.4848 20.9261 17.0943 20.5355C16.7038 20.145 16.7038 19.5118 17.0943 19.1213L18.2156 18H15.0088C11.6951 18 9.00879 15.3137 9.00879 12C9.00879 9.79086 7.21793 8 5.00879 8H3.00879C2.4565 8 2.00879 7.55228 2.00879 7C2.00879 6.44771 2.4565 6 3.00879 6H5.00879C8.3225 6 11.0088 8.68629 11.0088 12Z" fill="currentColor"/>
<path d="M7.60714 15.0412C6.90815 15.639 6.00063 16 5.00879 16H3.00879C2.4565 16 2.00879 16.4477 2.00879 17C2.00879 17.5523 2.4565 18 3.00879 18H5.00879C6.35944 18 7.60586 17.5537 8.60863 16.8006C8.20454 16.2627 7.86667 15.6722 7.60714 15.0412Z" fill="currentColor"/>
</svg>
