<svg width="24" height="24" viewBox="0 0 24 24" fill="currentColor" xmlns="http://www.w3.org/2000/svg">
<path d="M20 3.5C19.4477 3.5 19 3.94772 19 4.5V19.5C19 20.0523 19.4477 20.5 20 20.5C20.5523 20.5 21 20.0523 21 19.5V4.5C21 3.94772 20.5523 3.5 20 3.5Z" fill="currentColor"/>
<path fill-rule="evenodd" clip-rule="evenodd" d="M4.52736 20.052C3.86121 20.4655 3 19.9864 3 19.2023V4.79767C3 4.01363 3.86121 3.53455 4.52736 3.94803L16.1311 11.1504C16.7613 11.5415 16.7613 12.4585 16.1311 12.8496L4.52736 20.052ZM13.7075 12L5 17.4047V6.59533L13.7075 12Z" fill="currentColor"/>
</svg>
