<svg width="24" height="24" viewBox="0 0 24 24" fill="currentColor" xmlns="http://www.w3.org/2000/svg">
<path fill-rule="evenodd" clip-rule="evenodd" d="M11.9999 3C11.4476 3 10.9999 3.44772 10.9999 4V6.17072C9.83476 6.58259 9 7.6938 9 8.99998C9 10.3062 9.83476 11.4174 10.9999 11.8292V20C10.9999 20.5523 11.4476 21 11.9999 21C12.5522 21 12.9999 20.5523 12.9999 20V11.8293C14.1651 11.4175 15 10.3062 15 8.99998C15 7.69373 14.1651 6.58246 12.9999 6.17066V4C12.9999 3.44772 12.5522 3 11.9999 3ZM12 7.99998C11.4477 7.99998 11 8.4477 11 8.99998C11 9.55227 11.4477 9.99998 12 9.99998C12.5523 9.99998 13 9.55227 13 8.99998C13 8.4477 12.5523 7.99998 12 7.99998Z" fill="currentColor"/>
<path fill-rule="evenodd" clip-rule="evenodd" d="M17.9999 20C17.9999 20.5523 18.4476 21 18.9999 21C19.5522 21 19.9999 20.5523 19.9999 20V17.8293C21.1651 17.4175 22 16.3062 22 15C22 13.6937 21.1651 12.5825 19.9999 12.1707V4C19.9999 3.44772 19.5522 3 18.9999 3C18.4476 3 17.9999 3.44772 17.9999 4V12.1707C16.8348 12.5826 16 13.6938 16 15C16 16.3062 16.8348 17.4174 17.9999 17.8292V20ZM19 14C18.4477 14 18 14.4477 18 15C18 15.5523 18.4477 16 19 16C19.5523 16 20 15.5523 20 15C20 14.4477 19.5523 14 19 14Z" fill="currentColor"/>
<path fill-rule="evenodd" clip-rule="evenodd" d="M3.9999 20C3.9999 20.5523 4.44762 21 4.9999 21C5.55219 21 5.9999 20.5523 5.9999 20V17.8293C7.16515 17.4175 8 16.3062 8 15C8 13.6937 7.16515 12.5825 5.9999 12.1707V4C5.9999 3.44772 5.55219 3 4.9999 3C4.44762 3 3.9999 3.44772 3.9999 4V12.1707C2.83476 12.5826 2 13.6938 2 15C2 16.3062 2.83476 17.4174 3.9999 17.8292V20ZM5 14C4.44772 14 4 14.4477 4 15C4 15.5523 4.44772 16 5 16C5.55229 16 6 15.5523 6 15C6 14.4477 5.55229 14 5 14Z" fill="currentColor"/>
</svg>
