<svg width="24" height="24" viewBox="0 0 24 24" fill="currentColor" xmlns="http://www.w3.org/2000/svg">
<path d="M3 7C3 7.55229 3.44772 8 4 8H8C8.55229 8 9 7.55229 9 7C9 6.44772 8.55229 6 8 6H4C3.44772 6 3 6.44772 3 7Z" fill="currentColor"/>
<path d="M3 12C3 12.5523 3.44772 13 4 13H14C14.5523 13 15 12.5523 15 12C15 11.4478 14.5523 11 14 11H4C3.44772 11 3 11.4478 3 12Z" fill="currentColor"/>
<path d="M4 18C3.44772 18 3 17.5523 3 17C3 16.4477 3.44772 16 4 16H20C20.5523 16 21 16.4477 21 17C21 17.5523 20.5523 18 20 18H4Z" fill="currentColor"/>
</svg>
