<svg width="24" height="24" viewBox="0 0 24 24" fill="none" xmlns="http://www.w3.org/2000/svg">
<path d="M3 7C3 6.44772 3.44772 6 4 6H20C20.5523 6 21 6.44772 21 7C21 7.55229 20.5523 8 20 8H4C3.44772 8 3 7.55229 3 7Z" fill="currentColor"/>
<path d="M4 11C3.44772 11 3 11.4477 3 12C3 12.5522 3.44772 13 4 13H14C14.5523 13 15 12.5522 15 12C15 11.4477 14.5523 11 14 11H4Z" fill="currentColor"/>
<path d="M3 17C3 16.4477 3.44772 16 4 16H8C8.55229 16 9 16.4477 9 17C9 17.5523 8.55229 18 8 18H4C3.44772 18 3 17.5523 3 17Z" fill="currentColor"/>
</svg>
