<svg width="24" height="24" viewBox="0 0 24 24" fill="none" xmlns="http://www.w3.org/2000/svg">
<path d="M5.64399 5.63602C7.27267 4.00735 9.52267 3 12.0079 3C15.3421 3 18.2529 4.81308 19.808 7.50711V5.00009C19.808 4.4478 20.2557 4.00009 20.808 4.00009C21.3258 4.00009 21.7516 4.39359 21.8029 4.89784C21.8063 4.93146 21.808 4.96557 21.808 5.00009V10.0001C21.808 10.2653 21.7027 10.5197 21.5151 10.7072C21.3276 10.8947 21.0732 11.0001 20.808 11.0001H15.808C15.2557 11.0001 14.808 10.5524 14.808 10.0001C14.808 9.4478 15.2557 9.00008 15.808 9.00008L18.3344 9.00009C17.2109 6.63509 14.8004 5 12.0079 5C10.075 5 8.32496 5.7835 7.05821 7.05024C6.42507 7.68338 5.91265 8.43723 5.55845 9.27432C5.38011 9.6958 4.98408 9.99997 4.52643 9.99997C3.86276 9.99997 3.36923 9.38098 3.6081 8.76178C4.0644 7.5789 4.76338 6.51664 5.64399 5.63602Z" fill="currentColor"/>
<path d="M18.3892 14.8816C18.0387 15.6565 17.5513 16.3562 16.9577 16.9497C15.691 18.2165 13.941 19 12.008 19C9.21554 19 6.805 17.3649 5.68156 14.9999H8.20801C8.7603 14.9999 9.20801 14.5522 9.20801 13.9999C9.20801 13.4476 8.7603 12.9999 8.20801 12.9999H3.20801C2.94279 12.9999 2.68844 13.1052 2.5009 13.2928C2.31336 13.4803 2.20801 13.7347 2.20801 13.9999V18.9999C2.20801 19.5177 2.60151 19.9435 3.10576 19.9947C3.13938 19.9981 3.17349 19.9999 3.20801 19.9999C3.76029 19.9999 4.20801 19.5522 4.20801 18.9999V16.4931C5.76317 19.187 8.67384 21 12.008 21C14.4932 21 16.7432 19.9926 18.3719 18.3639C19.2525 17.4833 19.9515 16.4211 20.4078 15.2382C20.6467 14.619 20.1531 14 19.4895 14C19.0318 14 18.6358 14.3042 18.4575 14.7256C18.4353 14.778 18.4126 14.83 18.3892 14.8816Z" fill="currentColor"/>
</svg>
