<svg width="24" height="24" viewBox="0 0 24 24" fill="currentColor" xmlns="http://www.w3.org/2000/svg">
<path d="M18.3685 11.2929C17.8163 11.2929 17.3685 11.7406 17.3685 12.2929V15.9497L6.34773 4.92894C6.29892 4.88012 6.2463 4.83741 6.19086 4.8008C6.05691 4.71236 5.90636 4.65952 5.75259 4.6423C5.71539 4.63813 5.678 4.63605 5.64062 4.63605C5.38469 4.63605 5.12878 4.73368 4.93352 4.92894C4.76678 5.09568 4.67123 5.30665 4.64687 5.52408C4.64271 5.56128 4.64062 5.59866 4.64063 5.63605C4.64063 5.89197 4.73826 6.14789 4.93352 6.34315L15.9543 17.364H12.2975C11.7452 17.364 11.2975 17.8117 11.2975 18.364C11.2975 18.9163 11.7452 19.364 12.2975 19.364H18.3686C18.9208 19.364 19.3685 18.9162 19.3685 18.364V12.2929C19.3685 11.7406 18.9208 11.2929 18.3685 11.2929Z" fill="currentColor"/>
</svg>
