<svg width="24" height="24" viewBox="0 0 24 24" fill="currentColor" xmlns="http://www.w3.org/2000/svg">
<path d="M8.41512 7.99986L11.0009 5.41409V20.9999C11.0009 21.5522 11.4486 21.9999 12.0009 21.9999C12.5532 21.9999 13.0009 21.5522 13.0009 20.9999V5.41408L15.5867 7.99986C15.9772 8.39039 16.6104 8.39038 17.0009 7.99986C17.3914 7.60933 17.3914 6.97617 17.0009 6.58565L12.708 2.29277C12.3175 1.90225 11.6843 1.90225 11.2938 2.29277L7.0009 6.58565C6.61038 6.97617 6.61038 7.60934 7.0009 7.99986C7.04972 8.04868 7.10232 8.09139 7.15777 8.128C7.54593 8.38428 8.07341 8.34157 8.41512 7.99986Z" fill="currentColor"/>
</svg>
