<svg width="24" height="24" viewBox="0 0 24 24" fill="none" xmlns="http://www.w3.org/2000/svg">
<path d="M17.5 11.5H22V15C22 15.5523 21.5523 16 21 16H20L18.7399 14.636H17.5V11.5Z" fill="currentColor"/>
<path d="M18.2 17C18.2 17.2761 17.9761 17.5 17.7 17.5C17.4238 17.5 17.2 17.2761 17.2 17C17.2 16.7239 17.4238 16.5 17.7 16.5C17.9761 16.5 18.2 16.7239 18.2 17Z" fill="currentColor"/>
<path d="M6 17C6 17.2761 5.77614 17.5 5.5 17.5C5.22386 17.5 5 17.2761 5 17C5 16.7239 5.22386 16.5 5.5 16.5C5.77614 16.5 6 16.7239 6 17Z" fill="currentColor"/>
<path d="M17.0333 4C12.3339 4 5.5253 4 2.99539 4C2.4431 4 2 4.44772 2 5V15.3C2 15.8523 2.44772 16.3 3 16.3H3.48332C3.76474 15.5038 4.52408 14.9333 5.41667 14.9333C6.30925 14.9333 7.0686 15.5038 7.35002 16.3H15.7833C15.9892 15.7175 16.4509 15.2559 17.0333 15.05V8.1C17.0333 8.1 17.5 4 17.0333 4Z" fill="currentColor"/>
<path fill-rule="evenodd" clip-rule="evenodd" d="M1.5 5C1.5 4.17459 2.16395 3.5 2.99539 3.5H17.0333C17.2746 3.5 17.4329 3.64147 17.5122 3.74867C17.5863 3.84877 17.6254 3.95895 17.6482 4.03933C17.6956 4.20581 17.7179 4.41048 17.7294 4.61222C17.7464 4.91028 17.7428 5.27154 17.7285 5.64339C17.7416 6.21062 17.7434 6.88235 17.7376 7.6H19.1098C19.6769 7.6 20.2132 7.85777 20.5674 8.30057L22.591 10.83C22.8557 11.161 23 11.5722 23 11.9961V14.9333C23 15.9643 22.1643 16.8 21.1333 16.8H20.2602C20.2645 16.8606 20.2667 16.9217 20.2667 16.9833C20.2667 18.3917 19.125 19.5333 17.7167 19.5333C16.3083 19.5333 15.1667 18.3917 15.1667 16.9833C15.1667 16.9217 15.1689 16.8606 15.1732 16.8H7.96018C7.96448 16.8606 7.96667 16.9217 7.96667 16.9833C7.96667 18.3917 6.82499 19.5333 5.41667 19.5333C4.00834 19.5333 2.86667 18.3917 2.86667 16.9833C2.86667 16.9199 2.86898 16.857 2.87353 16.7947C2.10429 16.7305 1.5 16.0858 1.5 15.3V5ZM4.31114 14.6848C3.81708 14.9229 3.41154 15.3155 3.15727 15.8H3C2.72386 15.8 2.5 15.5761 2.5 15.3V5C2.5 4.72084 2.72226 4.5 2.99539 4.5H16.6671C16.6874 4.68174 16.7038 4.93067 16.7158 5.23924C16.7206 5.36357 16.7247 5.49589 16.728 5.6353C16.723 5.7615 16.7166 5.89092 16.7091 6.02159C16.6805 6.52554 16.6373 7.03127 16.6012 7.41216C16.5832 7.6023 16.5669 7.76066 16.5552 7.87127C16.5494 7.92657 16.5447 7.9699 16.5415 7.99927L16.5378 8.03259L16.5368 8.04093L16.5333 8.07164V14.7239C16.3404 14.8252 16.162 14.9505 16.0021 15.0958C15.9417 15.1507 15.884 15.2084 15.8291 15.2688C15.6838 15.4286 15.5585 15.607 15.4573 15.8H7.67606C7.24967 14.9875 6.39789 14.4333 5.41667 14.4333C5.32865 14.4333 5.24167 14.4378 5.15594 14.4465C4.89877 14.4726 4.6529 14.5369 4.42409 14.6337C4.38596 14.6499 4.3483 14.6669 4.31114 14.6848ZM17.5582 14.4382C17.6106 14.435 17.6634 14.4333 17.7167 14.4333C18.6979 14.4333 19.5497 14.9875 19.9761 15.8H21.1333C21.612 15.8 22 15.412 22 14.9333V11.9961C22 11.8705 21.9727 11.7473 21.921 11.6346L17.6578 11.5139C17.6312 12.4174 17.6028 13.2397 17.5798 13.8654C17.5718 14.0813 17.5645 14.2738 17.5582 14.4382ZM17.6853 10.5143L21.1359 10.612L19.7866 8.92526C19.6221 8.71968 19.3731 8.6 19.1098 8.6H17.7256C17.7156 9.23316 17.7015 9.88272 17.6853 10.5143ZM5.41667 15.4333C4.56063 15.4333 3.86667 16.1273 3.86667 16.9833C3.86667 17.8394 4.56063 18.5333 5.41667 18.5333C6.27271 18.5333 6.96667 17.8394 6.96667 16.9833C6.96667 16.3631 6.60236 15.8279 6.07606 15.5802C5.92137 15.5074 5.75269 15.4594 5.57515 15.4413C5.52304 15.436 5.47017 15.4333 5.41667 15.4333ZM17.7167 18.5333C18.5727 18.5333 19.2667 17.8394 19.2667 16.9833C19.2667 16.1273 18.5727 15.4333 17.7167 15.4333C16.8606 15.4333 16.1667 16.1273 16.1667 16.9833C16.1667 17.8394 16.8606 18.5333 17.7167 18.5333Z" fill="currentColor"/>
</svg>
