<svg width="24" height="24" viewBox="0 0 24 24" fill="currentColor" xmlns="http://www.w3.org/2000/svg">
<path d="M15.5928 8.00003L13.007 5.41428V15.0001C13.007 15.5524 12.5593 16.0001 12.007 16.0001C11.4548 16.0001 11.007 15.5523 11.007 15.0001V5.41428L8.42121 8.00009C8.03069 8.39062 7.39752 8.39062 7.007 8.00009C6.95818 7.95128 6.91547 7.89867 6.87886 7.84322C6.62258 7.45507 6.66529 6.92759 7.007 6.58588L11.2999 2.29295C11.4875 2.10542 11.7418 2.00006 12.007 2.00006C12.2723 2.00006 12.5266 2.10542 12.7141 2.29295L17.007 6.58582C17.3975 6.97634 17.3975 7.60951 17.007 8.00003C16.6165 8.39056 15.9833 8.39056 15.5928 8.00003Z" fill="currentColor"/>
<path d="M3.00684 20C3.00684 19.4477 3.45455 19 4.00684 19H20.0068C20.5591 19 21.0068 19.4477 21.0068 20C21.0068 20.5523 20.5591 21 20.0068 21H4.00684C3.45455 21 3.00684 20.5523 3.00684 20Z" fill="currentColor"/>
</svg>
