<svg width="24" height="24" viewBox="0 0 24 24" fill="currentColor" xmlns="http://www.w3.org/2000/svg">
<path d="M10 13.9612C10 14.423 10.4998 14.7116 10.8998 14.4809L14.2992 12.5197C14.6994 12.2888 14.6994 11.7112 14.2992 11.4803L10.8998 9.51915C10.8498 9.4903 10.7983 9.46957 10.7463 9.45628C10.3827 9.36325 10 9.63479 10 10.0388V13.9612Z" fill="currentColor"/>
<path fill-rule="evenodd" clip-rule="evenodd" d="M2 6C2 4.89543 2.89543 4 4 4H20C21.1046 4 22 4.89543 22 6V18C22 19.1046 21.1046 20 20 20H4C2.89543 20 2 19.1046 2 18V6ZM4 18V6H20V18H4Z" fill="currentColor"/>
</svg>
