<svg width="24" height="24" viewBox="0 0 24 24" fill="currentColor" xmlns="http://www.w3.org/2000/svg">
<path d="M9.21584 0C8.2287 0 7.3892 0.720221 7.2391 1.69588L6.78215 4.66605C8.25394 3.61704 10.0549 3 12 3C13.9451 3 15.7461 3.61704 17.2179 4.66605L16.7609 1.69589C16.6108 0.720222 15.7713 0 14.7842 0H9.21584Z" fill="currentColor"/>
<path fill-rule="evenodd" clip-rule="evenodd" d="M16.3306 17.5C17.9563 16.2182 19 14.231 19 12C19 9.76904 17.9563 7.78184 16.3306 6.5C15.1391 5.56057 13.635 5 12 5C10.365 5 8.86087 5.56057 7.6694 6.5C6.04367 7.78184 5 9.76904 5 12C5 14.231 6.04367 16.2182 7.6694 17.5C8.86087 18.4394 10.365 19 12 19C13.635 19 15.1391 18.4394 16.3306 17.5ZM11.5 12.866C11.1906 12.6874 11 12.3573 11 12V10C11 9.44772 11.4477 9 12 9C12.5523 9 13 9.44772 13 10V11.4227L14.5568 12.3215C15.0351 12.5976 15.199 13.2092 14.9228 13.6875C14.6467 14.1658 14.0351 14.3297 13.5568 14.0535L11.5 12.866Z" fill="currentColor"/>
<path d="M6.78215 19.334C8.25394 20.383 10.0549 21 12 21C13.9451 21 15.7461 20.383 17.2179 19.334L16.7609 22.3041C16.6108 23.2798 15.7713 24 14.7842 24H9.21584C8.2287 24 7.3892 23.2798 7.2391 22.3041L6.78215 19.334Z" fill="currentColor"/>
</svg>
