<svg width="24" height="24" viewBox="0 0 24 24" fill="none" xmlns="http://www.w3.org/2000/svg">
<path d="M11.5 12.866C11.1906 12.6874 11 12.3573 11 12V10C11 9.44772 11.4477 9 12 9C12.5523 9 13 9.44772 13 10V11.4227L14.5568 12.3215C15.0351 12.5976 15.199 13.2092 14.9228 13.6875C14.6467 14.1658 14.0351 14.3297 13.5568 14.0535L11.5 12.866Z" fill="currentColor"/>
<path fill-rule="evenodd" clip-rule="evenodd" d="M20 12C20 9.6847 19.0164 7.59912 17.4444 6.1383L16.7609 1.69589C16.6108 0.720222 15.7713 0 14.7842 0H9.21584C8.2287 0 7.3892 0.720221 7.23909 1.69588L6.55565 6.1383C4.98356 7.59912 4 9.6847 4 12C4 14.3153 4.98356 16.4009 6.55565 17.8617L7.23909 22.3041C7.3892 23.2798 8.2287 24 9.21584 24H14.7842C15.7713 24 16.6108 23.2798 16.7609 22.3041L17.4444 17.8617C19.0164 16.4009 20 14.3153 20 12ZM15.1939 19.337C14.2155 19.7635 13.1354 20 12 20C10.8646 20 9.78447 19.7635 8.80615 19.337L9.21584 22H14.7842L15.1939 19.337ZM8.80615 4.66299C9.78447 4.23652 10.8646 4 12 4C13.1354 4 14.2155 4.23652 15.1939 4.66299L14.7842 2H9.21584L8.80615 4.66299ZM18 12C18 12.0678 17.9989 12.1354 17.9967 12.2027C17.8898 15.4226 15.2459 18 12 18C8.90188 18 6.35219 15.6519 6.03354 12.6382C6.02492 12.5567 6.01794 12.4748 6.01262 12.3923C6.00834 12.3261 6.00514 12.2596 6.00303 12.1928C6.00233 12.1705 6.00175 12.1482 6.00129 12.1258C6.00043 12.084 6 12.042 6 12C6 11.9593 6.0004 11.9187 6.00121 11.8782C6.06608 8.62071 8.72699 6 12 6C14.6566 6 16.91 7.72657 17.6992 10.1188C17.8759 10.6544 17.9792 11.2233 17.9972 11.8137C17.9991 11.8756 18 11.9377 18 12Z" fill="currentColor"/>
</svg>
