<svg width="24" height="24" viewBox="0 0 24 24" fill="none" xmlns="http://www.w3.org/2000/svg">
<path fill-rule="evenodd" clip-rule="evenodd" d="M13.299 3.25C12.7217 2.25 11.2783 2.25 10.7009 3.25L1.75203 18.75C1.17468 19.75 1.89636 21 3.05107 21H20.9489C22.1036 21 22.8253 19.75 22.248 18.75L13.299 3.25ZM12.5448 9.63182C12.8294 9.63182 13.0565 9.86891 13.0444 10.1532L12.9001 13.5278C12.8887 13.7954 12.6684 14.0065 12.4006 14.0065H11.6036C11.336 14.0065 11.1158 13.7957 11.1041 13.5284L10.9562 10.1537C10.9437 9.86925 11.171 9.63182 11.4557 9.63182H12.5448ZM12.0024 17.5746C11.686 17.5746 11.4143 17.4628 11.1874 17.2391C10.9605 17.0121 10.8486 16.7405 10.8518 16.4241C10.8486 16.1109 10.9605 15.8424 11.1874 15.6187C11.4143 15.395 11.686 15.2831 12.0024 15.2831C12.306 15.2831 12.5729 15.395 12.803 15.6187C13.0331 15.8424 13.1498 16.1109 13.1529 16.4241C13.1498 16.635 13.0938 16.8284 12.9852 17.0042C12.8797 17.1767 12.7407 17.3158 12.5681 17.4212C12.3955 17.5235 12.2069 17.5746 12.0024 17.5746Z" fill="currentColor"/>
</svg>
