<svg width="24" height="24" viewBox="0 0 24 24" fill="none" xmlns="http://www.w3.org/2000/svg">
<path fill-rule="evenodd" clip-rule="evenodd" d="M22 12C22 17.5228 17.5228 22 12 22C6.47715 22 2 17.5228 2 12C2 6.47715 6.47715 2 12 2C17.5228 2 22 6.47715 22 12ZM12.5518 7.13182C12.8337 7.13182 13.0598 7.36471 13.0516 7.64648L12.8939 13.0211C12.886 13.2914 12.6646 13.5065 12.3942 13.5065H11.6103C11.34 13.5065 11.1186 13.2917 11.1105 13.0215L10.9488 7.64685C10.9403 7.36495 11.1666 7.13182 11.4486 7.13182H12.5518ZM12.0024 17.0746C11.686 17.0746 11.4143 16.9628 11.1874 16.7391C10.9605 16.5121 10.8486 16.2405 10.8518 15.9241C10.8486 15.6109 10.9605 15.3424 11.1874 15.1187C11.4143 14.895 11.686 14.7831 12.0024 14.7831C12.306 14.7831 12.5729 14.895 12.803 15.1187C13.0331 15.3424 13.1498 15.6109 13.153 15.9241C13.1498 16.135 13.0938 16.3284 12.9852 16.5042C12.8797 16.6767 12.7407 16.8158 12.5681 16.9212C12.3955 17.0235 12.2069 17.0746 12.0024 17.0746Z" fill="currentColor"/>
</svg>
