<svg width="24" height="24" viewBox="0 0 24 24" fill="currentColor" xmlns="http://www.w3.org/2000/svg">
<path fill-rule="evenodd" clip-rule="evenodd" d="M2 8C2 8.74028 2.4022 9.38663 3 9.73244V19C3 20.1046 3.89543 21 5 21H19C20.1046 21 21 20.1046 21 19V9.73244C21.5978 9.38663 22 8.74028 22 8V5C22 3.89543 21.1046 3 20 3H4C2.89543 3 2 3.89543 2 5V8ZM4 5V8H20V5H4ZM9 13C9 12.4477 9.44772 12 10 12H14C14.5523 12 15 12.4477 15 13C15 13.5523 14.5523 14 14 14H10C9.44772 14 9 13.5523 9 13Z" fill="currentColor"/>
</svg>
