<svg width="24" height="24" viewBox="0 0 24 24" fill="none" xmlns="http://www.w3.org/2000/svg">
<path d="M6.63721 15.886V8.05026L17.658 19.0711C18.0485 19.4616 18.6817 19.4616 19.0722 19.0711C19.4628 18.6805 19.4628 18.0474 19.0722 17.6569L8.05142 6.63605H15.8872C16.4395 6.63605 16.8872 6.18833 16.8872 5.63605C16.8872 5.60153 16.8855 5.56742 16.882 5.5338C16.8335 5.05565 16.4481 4.67709 15.9668 4.63917C15.9406 4.6371 15.914 4.63605 15.8872 4.63605H5.63721C5.60269 4.63605 5.56858 4.6378 5.53496 4.64121C5.03071 4.69242 4.63721 5.11828 4.63721 5.63605V15.886C4.63721 16.4383 5.08492 16.886 5.63721 16.886C6.18949 16.886 6.63721 16.4383 6.63721 15.886Z" fill="#272937"/>
</svg>
