<svg width="24" height="24" viewBox="0 0 24 24" fill="none" xmlns="http://www.w3.org/2000/svg">
<path d="M5.4593 10.955L11 5.41427V21.0001C11 21.5523 11.4478 22.0001 12 22.0001C12.5523 22.0001 13 21.5523 13 21.0001V5.41427L18.5408 10.955C18.9313 11.3455 19.5645 11.3455 19.955 10.955C20.3455 10.5645 20.3455 9.93132 19.955 9.5408L12.7072 2.29295C12.3166 1.90243 11.6835 1.90243 11.2929 2.29295L4.04509 9.5408C3.84915 9.73674 3.75152 9.99375 3.7522 10.2506C3.75237 10.3137 3.75847 10.3767 3.7705 10.4389C3.80711 10.628 3.89864 10.8086 4.04509 10.955C4.43561 11.3455 5.06878 11.3455 5.4593 10.955Z" fill="#272937"/>
</svg>
