<svg width="24" height="24" viewBox="0 0 24 24" fill="currentColor" xmlns="http://www.w3.org/2000/svg">
<path d="M13.045 5.4593L18.5858 11H3C2.44771 11 2 11.4478 2 12C2 12.5523 2.44771 13 3 13H18.5858L13.045 18.5408C12.6545 18.9313 12.6545 19.5645 13.045 19.955C13.4356 20.3455 14.0687 20.3455 14.4592 19.955L21.7071 12.7072C22.0976 12.3166 22.0976 11.6835 21.7071 11.2929L14.4592 4.04509C14.2633 3.84915 14.0063 3.75152 13.7495 3.7522C13.6864 3.75237 13.6233 3.75847 13.5611 3.7705C13.372 3.80711 13.1915 3.89864 13.045 4.04509C12.6545 4.43561 12.6545 5.06878 13.045 5.4593Z" fill="currentColor"/>
</svg>
