<svg width="24" height="24" viewBox="0 0 24 24" fill="none" xmlns="http://www.w3.org/2000/svg">
<path d="M15.8858 17.364H8.04996L19.0708 6.34315C19.4613 5.95263 19.4613 5.31946 19.0708 4.92894C19.0677 4.92589 19.0647 4.92286 19.0616 4.91986C18.6704 4.53844 18.0441 4.54147 17.6566 4.92894L6.63574 15.9497L6.63575 8.11397C6.63575 7.56168 6.18803 7.11397 5.63574 7.11397C5.60123 7.11397 5.56712 7.11572 5.5335 7.11913C5.02924 7.17034 4.63574 7.5962 4.63574 8.11397V18.364C4.63574 18.9162 5.08346 19.364 5.63574 19.364H15.8858C16.438 19.364 16.8858 18.9162 16.8858 18.364C16.8858 17.8117 16.438 17.364 15.8858 17.364Z" fill="#272937"/>
</svg>
