<svg width="24" height="24" viewBox="0 0 24 24" fill="none" xmlns="http://www.w3.org/2000/svg">
<path d="M8.11512 6.63605H15.9509L4.9301 17.6569C4.85087 17.7361 4.78771 17.8253 4.74063 17.9205C4.61367 18.1771 4.6036 18.4768 4.71043 18.7403C4.75925 18.8606 4.83247 18.9734 4.9301 19.0711C5.32062 19.4616 5.95379 19.4616 6.34431 19.0711L17.3651 8.05026V15.886C17.3651 16.4383 17.8128 16.886 18.3651 16.886C18.9174 16.886 19.3651 16.4383 19.3651 15.886V5.63605C19.3651 5.60153 19.3634 5.56742 19.36 5.5338C19.3099 5.0409 18.9019 4.65382 18.3999 4.63664C18.3884 4.63625 18.3768 4.63605 18.3651 4.63605H8.11512C7.56284 4.63605 7.11513 5.08376 7.11513 5.63605C7.11512 6.18833 7.56284 6.63605 8.11512 6.63605Z" fill="currentColor"/>
</svg>
