<svg width="24" height="24" viewBox="0 0 24 24" fill="none" xmlns="http://www.w3.org/2000/svg">
<path fill-rule="evenodd" clip-rule="evenodd" d="M17.0001 6H19.1212C20.1773 6 21.0514 6.82117 21.1173 7.87524L21.8673 19.8752C21.9393 21.0266 21.0248 22 19.8712 22H4.12899C2.97534 22 2.06092 21.0266 2.13288 19.8752L2.88288 7.87525C2.89112 7.74349 2.91198 7.61537 2.94425 7.49204C3.17013 6.62871 3.95488 6 4.87899 6H7.0001C7.0001 3.23858 9.23867 1 12.0001 1C14.7615 1 17.0001 3.23858 17.0001 6ZM16.0001 12C15.4478 12 15.0001 11.5523 15.0001 11V8H17.0001V11C17.0001 11.5523 16.5524 12 16.0001 12ZM15.0001 6C15.0001 4.34315 13.657 3 12.0001 3C10.3432 3 9.0001 4.34315 9.0001 6H15.0001ZM8.00008 12C7.4478 12 7.00008 11.5523 7.00008 11V8H9.00008V11C9.00008 11.5523 8.55237 12 8.00008 12Z" fill="#272937"/>
</svg>
