<svg width="24" height="24" viewBox="0 0 24 24" fill="none" xmlns="http://www.w3.org/2000/svg">
<path fill-rule="evenodd" clip-rule="evenodd" d="M7 7V6C7 3.23858 9.23858 1 12 1C14.7614 1 17 3.23858 17 6V7H19C20.1046 7 21 7.89543 21 9V20C21 21.1046 20.1046 22 19 22H5C3.89543 22 3 21.1046 3 20V9C3 7.89543 3.89543 7 5 7H7ZM12 3C13.6569 3 15 4.34315 15 6V7H9V6C9 4.34315 10.3431 3 12 3ZM9.5 11.25C9.5 11.9404 8.94036 12.5 8.25 12.5C7.55965 12.5 7 11.9404 7 11.25C7 10.5596 7.55965 10 8.25 10C8.94036 10 9.5 10.5596 9.5 11.25ZM15.75 12.5C16.4404 12.5 17 11.9404 17 11.25C17 10.5596 16.4404 10 15.75 10C15.0596 10 14.5 10.5596 14.5 11.25C14.5 11.9404 15.0596 12.5 15.75 12.5Z" fill="#272937"/>
</svg>
