<svg width="24" height="24" viewBox="0 0 24 24" fill="currentColor" xmlns="http://www.w3.org/2000/svg">
<path d="M2.70577 6.36608L11 1.5774C11.6188 1.22013 12.3812 1.22013 13 1.5774L21.2942 6.36608C21.731 6.61823 22 7.08422 22 7.58851C22 8.36808 21.368 9.00005 20.5885 9.00005H3.41154C2.63197 9.00005 2 8.36808 2 7.58851C2 7.08421 2.26904 6.61822 2.70577 6.36608Z" fill="currentColor"/>
<path d="M12 11.0001C12.5523 11.0001 13 11.4478 13 12.0001V17.0001C13 17.5523 12.5523 18.0001 12 18.0001C11.4477 18.0001 11 17.5523 11 17.0001V12.0001C11 11.4478 11.4477 11.0001 12 11.0001Z" fill="currentColor"/>
<path d="M21 22.0001C21.5523 22.0001 22 21.5523 22 21.0001C22 20.4478 21.5523 20.0001 21 20.0001H3C2.44772 20.0001 2 20.4478 2 21.0001C2 21.5523 2.44772 22.0001 3 22.0001H21Z" fill="currentColor"/>
<path d="M17.5 11.0001C18.0523 11.0001 18.5 11.4478 18.5 12.0001V17.0001C18.5 17.5523 18.0523 18.0001 17.5 18.0001C16.9477 18.0001 16.5 17.5523 16.5 17.0001V12.0001C16.5 11.4478 16.9477 11.0001 17.5 11.0001Z" fill="currentColor"/>
<path d="M6.5 11.0001C7.05229 11.0001 7.5 11.4478 7.5 12.0001V17.0001C7.5 17.5523 7.05229 18.0001 6.5 18.0001C5.94772 18.0001 5.5 17.5523 5.5 17.0001V12.0001C5.5 11.4478 5.94772 11.0001 6.5 11.0001Z" fill="currentColor"/>
</svg>
