<svg width="24" height="24" viewBox="0 0 24 24" fill="none" xmlns="http://www.w3.org/2000/svg">
<path fill-rule="evenodd" clip-rule="evenodd" d="M10.5004 0.99997C10.0209 0.72596 9.41005 0.892557 9.13604 1.37207L5.34867 7.99997H3.4744C2.20111 7.99997 1.252 9.17401 1.51879 10.419L3.66165 20.419C3.85925 21.3412 4.67418 22 5.61725 22H18.3836C19.3267 22 20.1416 21.3412 20.3392 20.419L22.4821 10.419C22.7488 9.17401 21.7997 7.99997 20.5265 7.99997H18.6522L14.8648 1.37207C14.5908 0.892557 13.9799 0.72596 13.5004 0.99997C13.0209 1.27398 12.8543 1.88484 13.1283 2.36435L16.3487 7.99997H7.65217L10.8725 2.36435C11.1465 1.88484 10.9799 1.27398 10.5004 0.99997ZM11.0004 17C11.0004 17.5523 11.4481 18 12.0004 18C12.5527 18 13.0004 17.5523 13.0004 17V13C13.0004 12.4477 12.5527 12 12.0004 12C11.4481 12 11.0004 12.4477 11.0004 13V17ZM8.00042 18C7.44814 18 7.00042 17.5523 7.00042 17V13C7.00042 12.4477 7.44814 12 8.00042 12C8.55271 12 9.00042 12.4477 9.00042 13V17C9.00042 17.5523 8.55271 18 8.00042 18ZM15.0004 17C15.0004 17.5523 15.4481 18 16.0004 18C16.5527 18 17.0004 17.5523 17.0004 17V13C17.0004 12.4477 16.5527 12 16.0004 12C15.4481 12 15.0004 12.4477 15.0004 13V17Z" fill="#272937"/>
</svg>
