<svg width="24" height="24" viewBox="0 0 24 24" fill="none" xmlns="http://www.w3.org/2000/svg">
<path d="M12.0004 18C11.4481 18 11.0004 17.5523 11.0004 17V13C11.0004 12.4477 11.4481 12 12.0004 12C12.5527 12 13.0004 12.4477 13.0004 13V17C13.0004 17.5523 12.5527 18 12.0004 18Z" fill="currentColor"/>
<path d="M8.00043 18C7.44814 18 7.00043 17.5523 7.00043 17V13C7.00043 12.4477 7.44814 12 8.00043 12C8.55271 12 9.00043 12.4477 9.00043 13V17C9.00043 17.5523 8.55271 18 8.00043 18Z" fill="currentColor"/>
<path d="M16.0004 18C15.4481 18 15.0004 17.5523 15.0004 17V13C15.0004 12.4477 15.4481 12 16.0004 12C16.5527 12 17.0004 12.4477 17.0004 13V17C17.0004 17.5523 16.5527 18 16.0004 18Z" fill="currentColor"/>
<path fill-rule="evenodd" clip-rule="evenodd" d="M9.13601 1.37207C9.41002 0.892557 10.0209 0.72596 10.5004 0.99997C10.9799 1.27398 11.1465 1.88484 10.8725 2.36435L7.65215 7.99997H16.3486L13.1283 2.36435C12.8543 1.88484 13.0209 1.27398 13.5004 0.99997C13.9799 0.72596 14.5908 0.892557 14.8648 1.37207L18.6521 7.99997H20.5264C21.7997 7.99997 22.7488 9.17401 22.482 10.419L20.3392 20.419C20.1416 21.3412 19.3267 22 18.3836 22H5.61725C4.67418 22 3.85925 21.3412 3.66165 20.419L1.51879 10.419C1.252 9.17401 2.20111 7.99997 3.47439 7.99997H5.34865L9.13601 1.37207ZM5.61725 20L3.47439 9.99997H20.5264L18.3836 20H5.61725Z" fill="currentColor"/>
</svg>
