<svg width="24" height="24" viewBox="0 0 24 24" fill="none" xmlns="http://www.w3.org/2000/svg">
<path fill-rule="evenodd" clip-rule="evenodd" d="M3.41414 2.99998C3.02361 2.60946 2.39045 2.60946 1.99992 2.99998C1.6094 3.39051 1.6094 4.02367 1.99992 4.4142L5.14778 7.56205C5.05088 8.02615 4.99995 8.50712 4.99995 8.99998V11.9609C4.99995 13.2665 4.48129 14.5187 3.55809 15.4419C3.20072 15.7992 2.99995 16.2839 2.99995 16.7893V17.6623C2.99995 18.4011 3.59886 19 4.33766 19H8.06294C8.06294 19.3646 8.07041 20.1575 8.4951 20.9285C9.17291 22.1591 10.4868 23 11.9999 23C13.5131 23 14.8269 22.1591 15.5048 20.9285C15.9294 20.1575 15.9369 19.3646 15.9369 19H16.5857L19.5857 22C19.9762 22.3905 20.6094 22.3905 20.9999 22C21.3905 21.6095 21.3905 20.9763 20.9999 20.5858L3.41414 2.99998ZM13.9369 19H10.0629C10.0629 19.332 10.0867 19.6728 10.2469 19.9636C10.5862 20.5796 11.2408 20.9975 11.9933 21H12.0066C12.759 20.9975 13.4136 20.5796 13.7529 19.9636C13.9131 19.6728 13.9369 19.332 13.9369 19Z" fill="#272937"/>
<path d="M20.9968 17.7542C20.9989 17.7238 20.9999 17.6932 20.9999 17.6623V16.7893C20.9999 16.2839 20.7992 15.7992 20.4418 15.4419C19.5186 14.5187 18.9999 13.2665 18.9999 11.9609V9C18.9999 5.13401 15.8659 2 11.9999 2C10.1287 2 8.42891 2.73426 7.17303 3.93038L20.9968 17.7542Z" fill="#272937"/>
</svg>
