<svg width="24" height="24" viewBox="0 0 24 24" fill="currentColor" xmlns="http://www.w3.org/2000/svg">
<path fill-rule="evenodd" clip-rule="evenodd" d="M7 2.99997C7 1.8954 7.89543 0.999969 9 0.999969H15C16.1046 0.999969 17 1.8954 17 2.99997V4.99997H21C21.5523 4.99997 22 5.44769 22 5.99997C22 6.55226 21.5523 6.99997 21 6.99997H19.8824L19.1107 20.1174C19.0486 21.1745 18.1731 22 17.1142 22H6.88581C5.82686 22 4.95145 21.1745 4.88926 20.1174L4.11765 6.99997H3C2.44772 6.99997 2 6.55226 2 5.99997C2 5.44769 2.44772 4.99997 3 4.99997H7V2.99997ZM9 4.99997H15V2.99997H9V4.99997Z" fill="currentColor"/>
</svg>
