<svg width="24" height="24" viewBox="0 0 24 24" fill="none" xmlns="http://www.w3.org/2000/svg">
<path fill-rule="evenodd" clip-rule="evenodd" d="M9 0.999969C7.89543 0.999969 7 1.8954 7 2.99997V4.99997H3C2.44772 4.99997 2 5.44769 2 5.99997C2 6.55226 2.44772 6.99997 3 6.99997H4.11765L4.88926 20.1174C4.95145 21.1745 5.82686 22 6.88581 22H17.1142C18.1731 22 19.0486 21.1745 19.1107 20.1174L19.8824 6.99997H21C21.5523 6.99997 22 6.55226 22 5.99997C22 5.44769 21.5523 4.99997 21 4.99997H17V2.99997C17 1.8954 16.1046 0.999969 15 0.999969H9ZM15 4.99997V2.99997H9V4.99997H15ZM9.75 9.99997C10.3023 9.99997 10.75 10.4477 10.75 11V16C10.75 16.5523 10.3023 17 9.75 17C9.19772 17 8.75 16.5523 8.75 16V11C8.75 10.4477 9.19772 9.99997 9.75 9.99997ZM15.25 11C15.25 10.4477 14.8023 9.99997 14.25 9.99997C13.6977 9.99997 13.25 10.4477 13.25 11V16C13.25 16.5523 13.6977 17 14.25 17C14.8023 17 15.25 16.5523 15.25 16V11Z" fill="#272937"/>
</svg>
