<svg width="24" height="24" viewBox="0 0 24 24" fill="none" xmlns="http://www.w3.org/2000/svg">
<path d="M4 5C4 3.34315 5.34315 2 7 2H18C19.1046 2 20 2.89543 20 4V15H6.5C5.57493 15 4.71505 15.2791 4 15.7578V5Z" fill="#272937"/>
<path d="M4.01123 19.2614C4.13135 17.9926 5.19975 17 6.5 17H20V20C20 21.1046 19.1046 22 18 22H6.5C5.11929 22 4 20.8807 4 19.5C4 19.4807 4.00022 19.4615 4.00065 19.4423C4.00078 19.4365 4.00094 19.4307 4.00111 19.4248C4.00273 19.3699 4.00612 19.3154 4.01123 19.2614Z" fill="#272937"/>
</svg>
