<svg width="24" height="24" viewBox="0 0 24 24" fill="none" xmlns="http://www.w3.org/2000/svg">
<path d="M11 5.90625C11 4.88315 10.1347 4 9 4H3.5C2.39543 4 1.5 4.89543 1.5 6V18C1.5 19.1046 2.39543 20 3.5 20H9C9.7571 20 10.4159 20.4207 10.7555 21.041C11.0207 21.5255 11.4477 22 12 22C12.5523 22 12.9793 21.5255 13.2445 21.041C13.5841 20.4207 14.2429 20 15 20H20.5C21.6046 20 22.5 19.1046 22.5 18V6C22.5 4.89543 21.6046 4 20.5 4H15C13.8653 4 13 4.88315 13 5.90625V17.5C13 18.0523 12.5523 18.5 12 18.5C11.4477 18.5 11 18.0523 11 17.5V5.90625Z" fill="currentColor"/>
</svg>
