<svg width="24" height="24" viewBox="0 0 24 24" fill="currentColor" xmlns="http://www.w3.org/2000/svg">
<path fill-rule="evenodd" clip-rule="evenodd" d="M2 6.99997C2 5.8954 2.89543 4.99997 4 4.99997H6V3.74997C6 3.19768 6.44772 2.74997 7 2.74997C7.55229 2.74997 8 3.19768 8 3.74997V4.99997H16V3.74997C16 3.19768 16.4477 2.74997 17 2.74997C17.5523 2.74997 18 3.19768 18 3.74997V4.99997H20C21.1046 4.99997 22 5.8954 22 6.99997V19C22 20.1045 21.1046 21 20 21H4C2.89543 21 2 20.1045 2 19V6.99997ZM16.5 9.49997C16.8905 9.8905 16.8905 10.5237 16.5 10.9142L11.7071 15.7071C11.3166 16.0976 10.6834 16.0976 10.2929 15.7071L8 13.4142C7.60948 13.0237 7.60948 12.3905 8 12C8.39053 11.6094 9.02369 11.6095 9.41422 12L11 13.5858L15.0858 9.49997C15.4763 9.10945 16.1095 9.10945 16.5 9.49997Z" fill="currentColor"/>
</svg>
