<svg width="24" height="24" viewBox="0 0 24 24" fill="currentColor" xmlns="http://www.w3.org/2000/svg">
<path fill-rule="evenodd" clip-rule="evenodd" d="M7 2.74997C6.44772 2.74997 6 3.19768 6 3.74997V4.99997H4C2.89543 4.99997 2 5.8954 2 6.99997V19C2 20.1045 2.89543 21 4 21H20C21.1046 21 22 20.1045 22 19V6.99997C22 5.8954 21.1046 4.99997 20 4.99997H18V3.74997C18 3.19768 17.5523 2.74997 17 2.74997C16.4477 2.74997 16 3.19768 16 3.74997V4.99997H8V3.74997C8 3.19768 7.55229 2.74997 7 2.74997ZM10.4142 9.99997C10.0237 9.60945 9.39053 9.60945 9 9.99997C8.60948 10.3905 8.60948 11.0237 9 11.4142L10.5858 13L9 14.5858C8.60947 14.9763 8.60947 15.6094 9 16C9.39052 16.3905 10.0237 16.3905 10.4142 16L12 14.4142L13.5858 16C13.9763 16.3905 14.6095 16.3905 15 16C15.3905 15.6095 15.3905 14.9763 15 14.5858L13.4142 13L15 11.4142C15.3905 11.0237 15.3905 10.3905 15 9.99997C14.6095 9.60945 13.9763 9.60945 13.5858 9.99997L12 11.5858L10.4142 9.99997Z" fill="currentColor"/>
</svg>
