<svg width="24" height="24" viewBox="0 0 24 24" fill="none" xmlns="http://www.w3.org/2000/svg">
<path fill-rule="evenodd" clip-rule="evenodd" d="M1.99995 6.99999C1.99995 6.29786 2.36176 5.68024 2.90911 5.32339L1.99992 4.4142C1.95111 4.36539 1.9084 4.31278 1.87178 4.25733C1.6155 3.86918 1.65822 3.3417 1.99992 2.99999C2.39045 2.60946 3.02361 2.60947 3.41414 2.99999L21.0908 20.6766C21.0885 20.6781 21.0862 20.6796 21.0839 20.6811C21.3881 21.0733 21.3601 21.6398 20.9999 22C20.6094 22.3905 19.9762 22.3905 19.5857 22L18.5857 21H3.99995C2.89538 21 1.99995 20.1046 1.99995 19V6.99999ZM13.7051 16.1194L8.38056 10.7948C8.13645 11.3121 7.99995 11.8901 7.99995 12.5C7.99995 14.7091 9.79081 16.5 11.9999 16.5C12.6098 16.5 13.1879 16.3635 13.7051 16.1194Z" fill="#272937"/>
<path d="M15.9999 12.5C15.9999 12.5838 15.9974 12.6671 15.9923 12.7496L21.9999 18.7573V7C21.9999 5.89543 21.1045 5 19.9999 5H16.9999L16.134 3.50002C15.7767 2.88121 15.1164 2.5 14.4019 2.5H9.598C8.88346 2.5 8.2232 2.88121 7.86594 3.50002L7.4548 4.21215L11.7503 8.50766C11.8329 8.50258 11.9161 8.5 11.9999 8.5C14.2091 8.5 15.9999 10.2909 15.9999 12.5Z" fill="#272937"/>
</svg>
