<svg width="24" height="24" viewBox="0 0 24 24" fill="currentColor" xmlns="http://www.w3.org/2000/svg">
<path fill-rule="evenodd" clip-rule="evenodd" d="M20 21C21.1046 21 22 20.1046 22 19V7C22 5.89543 21.1046 5 20 5H17L16.134 3.50002C15.7768 2.88121 15.1165 2.5 14.402 2.5H9.59805C8.88351 2.5 8.22325 2.88121 7.86599 3.50002L7 5H4C2.89543 5 2 5.89543 2 7V19C2 20.1046 2.89543 21 4 21H20ZM16 12.5C16 14.7091 14.2091 16.5 12 16.5C9.79086 16.5 8 14.7091 8 12.5C8 10.2909 9.79086 8.5 12 8.5C14.2091 8.5 16 10.2909 16 12.5Z" fill="currentColor"/>
</svg>
