<svg width="24" height="24" viewBox="0 0 24 24" fill="none" xmlns="http://www.w3.org/2000/svg">
<path d="M12 10C12 11.1046 11.1046 12 10 12C8.89543 12 8 11.1046 8 10C8 8.89543 8.89543 8 10 8C11.1046 8 12 8.89543 12 10Z" fill="#272937"/>
<path fill-rule="evenodd" clip-rule="evenodd" d="M0 6C0 4.89543 0.895431 4 2 4H18C19.1046 4 20 4.89543 20 6V14C20 15.1046 19.1046 16 18 16H2C0.895431 16 0 15.1046 0 14V6ZM2 14V6H18V14H2Z" fill="#272937"/>
<path d="M20 18C21.1046 18 22 17.1046 22 16V9C22 8.44772 22.4477 8 23 8C23.5523 8 24 8.44772 24 9V16C24 18.2091 22.2091 20 20 20H4C3.44772 20 3 19.5523 3 19C3 18.4477 3.44772 18 4 18H20Z" fill="#272937"/>
</svg>
