<svg width="24" height="24" viewBox="0 0 24 24" fill="none" xmlns="http://www.w3.org/2000/svg">
<path fill-rule="evenodd" clip-rule="evenodd" d="M2 4C0.895431 4 0 4.89543 0 6V14C0 15.1046 0.895431 16 2 16H18C19.1046 16 20 15.1046 20 14V6C20 4.89543 19.1046 4 18 4H2ZM10 12.5C11.3807 12.5 12.5 11.3807 12.5 10C12.5 8.61929 11.3807 7.5 10 7.5C8.61929 7.5 7.5 8.61929 7.5 10C7.5 11.3807 8.61929 12.5 10 12.5Z" fill="#272937"/>
<path d="M23 8C22.4477 8 22 8.44772 22 9V16C22 17.1046 21.1046 18 20 18H4C3.44772 18 3 18.4477 3 19C3 19.5523 3.44772 20 4 20H20C22.2091 20 24 18.2091 24 16V9C24 8.44772 23.5523 8 23 8Z" fill="#272937"/>
</svg>
