<svg width="24" height="24" viewBox="0 0 24 24" fill="none" xmlns="http://www.w3.org/2000/svg">
<path d="M12 17C11.4477 17 11 16.5523 11 16V8C11 7.44772 11.4477 7 12 7C12.5523 7 13 7.44772 13 8V16C13 16.5523 12.5523 17 12 17Z" fill="#272937"/>
<path d="M8 17C7.44772 17 7 16.5523 7 16V11C7 10.4477 7.44772 10 8 10C8.55229 10 9 10.4477 9 11V16C9 16.5523 8.55229 17 8 17Z" fill="#272937"/>
<path d="M16 17C15.4477 17 15 16.5523 15 16V13C15 12.4477 15.4477 12 16 12C16.5523 12 17 12.4477 17 13V16C17 16.5523 16.5523 17 16 17Z" fill="#272937"/>
<path fill-rule="evenodd" clip-rule="evenodd" d="M3 5C3 3.89543 3.89543 3 5 3H19C20.1046 3 21 3.89543 21 5V19C21 20.1046 20.1046 21 19 21H5C3.89543 21 3 20.1046 3 19V5ZM5 19V5H19V19H5Z" fill="#272937"/>
</svg>
