<svg width="24" height="24" viewBox="0 0 24 24" fill="none" xmlns="http://www.w3.org/2000/svg">
<path fill-rule="evenodd" clip-rule="evenodd" d="M22.3119 10.0113C22.5199 11.0961 21.6046 12 20.5 12H14C12.8954 12 12 11.1046 12 10V3.50003C12 2.39546 12.9039 1.48014 13.9887 1.68811C14.5142 1.78886 15.0258 1.92878 15.5203 2.10472C18.9819 3.33628 21.6067 6.33272 22.3119 10.0113ZM20.2638 10C19.5199 6.9135 17.0865 4.48009 14 3.7362V10H20.2638Z" fill="#272937"/>
<path d="M8.8108 3.04862C9.41051 2.83494 10 3.31129 10 3.94793V4.00829C10 4.45811 9.69662 4.84613 9.2775 5.00948C6.48133 6.09925 4.5 8.81827 4.5 12C4.5 16.1422 7.85787 19.5 12 19.5C15.1818 19.5 17.9008 17.5187 18.9906 14.7225C19.1539 14.3034 19.542 14 19.9918 14H20.0521C20.6888 14 21.1651 14.5895 20.9514 15.1892C19.6409 18.8672 16.1279 21.5 12 21.5C6.7533 21.5 2.5 17.2467 2.5 12C2.5 7.87212 5.1328 4.35911 8.8108 3.04862Z" fill="#272937"/>
</svg>
