<svg width="24" height="24" viewBox="0 0 24 24" fill="none" xmlns="http://www.w3.org/2000/svg">
<path d="M14.5907 12.0001L13.0048 13.586V8.00025C13.0048 7.93121 12.9978 7.86381 12.9845 7.79871C12.8912 7.34303 12.488 7.00024 12.0048 7.00024C11.4525 7.00024 11.0048 7.44796 11.0048 8.00025V13.586L9.41912 12.0004C9.37031 11.9516 9.3177 11.9088 9.26225 11.8722C8.8741 11.616 8.34662 11.6587 8.00491 12.0004C7.61439 12.3909 7.61439 13.0241 8.00491 13.4146L11.2977 16.7074C11.6882 17.0979 12.3214 17.0979 12.7119 16.7074L16.0049 13.4143C16.3954 13.0238 16.3954 12.3907 16.0049 12.0001C15.6144 11.6096 14.9812 11.6096 14.5907 12.0001Z" fill="currentColor"/>
<path fill-rule="evenodd" clip-rule="evenodd" d="M2.00488 12.0002C2.00488 17.5231 6.48204 22.0002 12.0049 22.0002C17.5277 22.0002 22.0049 17.5231 22.0049 12.0002C22.0049 6.4774 17.5277 2.00024 12.0049 2.00024C6.48204 2.00024 2.00488 6.4774 2.00488 12.0002ZM12.0049 20.0002C16.4232 20.0002 20.0049 16.4185 20.0049 12.0002C20.0049 7.58197 16.4232 4.00024 12.0049 4.00024C7.5866 4.00024 4.00488 7.58197 4.00488 12.0002C4.00488 16.4185 7.5866 20.0002 12.0049 20.0002Z" fill="currentColor"/>
</svg>
