<svg width="24" height="24" viewBox="0 0 24 24" fill="currentColor" xmlns="http://www.w3.org/2000/svg">
<path d="M10.4162 13L12.0021 14.5859C12.3926 14.9764 12.3926 15.6096 12.0021 16.0001C11.6115 16.3906 10.9784 16.3906 10.5879 16.0001L7.29485 12.7071C6.90432 12.3166 6.90432 11.6834 7.29485 11.2929L10.5876 8.0001C10.9781 7.60958 11.6113 7.60958 12.0018 8.0001C12.3924 8.39063 12.3924 9.02379 12.0018 9.41432L10.4162 11H16.002C16.5542 11 17.002 11.4477 17.002 12C17.002 12.5523 16.5542 13 16.002 13H10.4162Z" fill="currentColor"/>
<path fill-rule="evenodd" clip-rule="evenodd" d="M2.00195 12.0001C2.00195 6.47721 6.47911 2.00006 12.002 2.00006C17.5248 2.00006 22.002 6.47721 22.002 12.0001C22.002 17.5229 17.5248 22.0001 12.002 22.0001C6.47911 22.0001 2.00195 17.5229 2.00195 12.0001ZM12.002 20.0001C7.58368 20.0001 4.00195 16.4183 4.00195 12.0001C4.00195 7.58178 7.58368 4.00006 12.002 4.00006C16.4202 4.00006 20.002 7.58178 20.002 12.0001C20.002 16.4183 16.4202 20.0001 12.002 20.0001Z" fill="currentColor"/>
</svg>
