<svg width="24" height="24" viewBox="0 0 24 24" fill="none" xmlns="http://www.w3.org/2000/svg">
<path fill-rule="evenodd" clip-rule="evenodd" d="M2.00195 12.0002C2.00195 6.4774 6.47911 2.00024 12.002 2.00024C17.5248 2.00024 22.002 6.4774 22.002 12.0002C22.002 17.5231 17.5248 22.0002 12.002 22.0002C6.47911 22.0002 2.00195 17.5231 2.00195 12.0002ZM10.4162 13.0002L12.0021 14.5861C12.3926 14.9766 12.3926 15.6097 12.0021 16.0003C11.6115 16.3908 10.9784 16.3908 10.5878 16.0003L7.29484 12.7073C6.90431 12.3167 6.90431 11.6836 7.29483 11.293L10.5876 8.00027C10.9781 7.60975 11.6113 7.60975 12.0018 8.00027C12.3923 8.3908 12.3923 9.02396 12.0018 9.41448L10.4162 11.0002H16.0019C16.5542 11.0002 17.0019 11.4479 17.0019 12.0002C17.0019 12.5524 16.5542 13.0002 16.0019 13.0002H10.4162Z" fill="#272937"/>
</svg>
