<svg width="24" height="24" viewBox="0 0 24 24" fill="none" xmlns="http://www.w3.org/2000/svg">
<path fill-rule="evenodd" clip-rule="evenodd" d="M4.93186 4.92918C8.8371 1.02393 15.1688 1.02393 19.074 4.92918C22.9792 8.83442 22.9792 15.1661 19.074 19.0713C15.1688 22.9766 8.8371 22.9766 4.93186 19.0713C1.02662 15.1661 1.02662 8.83442 4.93186 4.92918ZM14.1243 15.5357L10.1745 11.5859V13.8288C10.1745 14.381 9.72682 14.8288 9.17454 14.8288C8.62225 14.8288 8.17454 14.381 8.17454 13.8288V9.17173C8.17454 8.61945 8.62225 8.17173 9.17454 8.17173H13.8312C14.3835 8.17173 14.8312 8.61945 14.8312 9.17173C14.8312 9.72402 14.3835 10.1717 13.8312 10.1717H11.5888L15.5385 14.1215C15.929 14.512 15.929 15.1452 15.5385 15.5357C15.148 15.9262 14.5148 15.9262 14.1243 15.5357Z" fill="#272937"/>
</svg>
