<svg width="24" height="24" viewBox="0 0 24 24" fill="none" xmlns="http://www.w3.org/2000/svg">
<path fill-rule="evenodd" clip-rule="evenodd" d="M19.074 4.92844C22.9792 8.83369 22.9792 15.1653 19.074 19.0706C15.1688 22.9758 8.8371 22.9758 4.93186 19.0706C1.02662 15.1653 1.02662 8.83369 4.93186 4.92844C8.8371 1.0232 15.1688 1.0232 19.074 4.92844ZM8.46743 14.1209L12.4172 10.1711H10.1744C9.62208 10.1711 9.17437 9.72343 9.17437 9.17115C9.17437 8.61886 9.62208 8.17115 10.1744 8.17115H14.8314C15.3837 8.17115 15.8314 8.61886 15.8314 9.17115V13.8278C15.8314 14.3801 15.3837 14.8278 14.8314 14.8278C14.2791 14.8278 13.8314 14.3801 13.8314 13.8278V11.5854L9.88164 15.5351C9.49112 15.9256 8.85795 15.9256 8.46743 15.5351C8.0769 15.1446 8.0769 14.5114 8.46743 14.1209Z" fill="currentColor"/>
</svg>
