<svg width="24" height="24" viewBox="0 0 24 24" fill="none" xmlns="http://www.w3.org/2000/svg">
<path fill-rule="evenodd" clip-rule="evenodd" d="M12.002 2.00024C17.5248 2.00024 22.002 6.4774 22.002 12.0002C22.002 17.5231 17.5248 22.0002 12.002 22.0002C6.47911 22.0002 2.00195 17.5231 2.00195 12.0002C2.00195 6.4774 6.47911 2.00024 12.002 2.00024ZM11.002 10.4145L9.41611 12.0004C9.02559 12.3909 8.39242 12.3909 8.0019 12.0004C7.61138 11.6098 7.61138 10.9767 8.0019 10.5862L11.2949 7.29314C11.6854 6.90261 12.3186 6.90261 12.7091 7.29314L16.0019 10.5859C16.3924 10.9764 16.3924 11.6096 16.0019 12.0001C15.6114 12.3906 14.9782 12.3906 14.5877 12.0001L13.002 10.4145V16.0002C13.002 16.5525 12.5543 17.0002 12.002 17.0002C11.4497 17.0002 11.002 16.5525 11.002 16.0002V10.4145Z" fill="#272937"/>
</svg>
