<svg width="24" height="24" viewBox="0 0 24 24" fill="none" xmlns="http://www.w3.org/2000/svg">
<path d="M11.002 10.4144L9.41609 12.0004C9.02557 12.3909 8.3924 12.3909 8.00188 12.0004C7.61135 11.6098 7.61135 10.9767 8.00188 10.5861L11.2949 7.29314C11.6854 6.90261 12.3186 6.90261 12.7091 7.29314L16.0019 10.5859C16.3924 10.9764 16.3924 11.6096 16.0019 12.0001C15.6114 12.3906 14.9782 12.3906 14.5877 12.0001L13.002 10.4144V16.0002C13.002 16.5525 12.5543 17.0002 12.002 17.0002C11.4497 17.0002 11.002 16.5525 11.002 16.0002V10.4144Z" fill="#272937"/>
<path fill-rule="evenodd" clip-rule="evenodd" d="M12.002 2.00024C17.5248 2.00024 22.002 6.4774 22.002 12.0002C22.002 17.5231 17.5248 22.0002 12.002 22.0002C6.47911 22.0002 2.00195 17.5231 2.00195 12.0002C2.00195 6.4774 6.47911 2.00024 12.002 2.00024ZM4.00195 12.0002C4.00195 7.58197 7.58368 4.00024 12.002 4.00024C16.4202 4.00024 20.002 7.58197 20.002 12.0002C20.002 16.4185 16.4202 20.0002 12.002 20.0002C7.58368 20.0002 4.00195 16.4185 4.00195 12.0002Z" fill="#272937"/>
</svg>
