<svg width="24" height="24" viewBox="0 0 24 24" fill="none" xmlns="http://www.w3.org/2000/svg">
<path d="M13.5877 11.0001L12.0018 9.4142C11.6113 9.02368 11.6113 8.39051 12.0018 7.99999C12.3924 7.60946 13.0255 7.60946 13.416 7.99999L16.7091 11.293C17.0996 11.6835 17.0996 12.3167 16.7091 12.7072L13.4163 16C13.0258 16.3905 12.3926 16.3905 12.0021 16C11.6115 15.6095 11.6115 14.9763 12.0021 14.5858L13.5877 13.0001H8.00195C7.44967 13.0001 7.00195 12.5524 7.00195 12.0001C7.00195 11.4478 7.44967 11.0001 8.00195 11.0001H13.5877Z" fill="#272937"/>
<path fill-rule="evenodd" clip-rule="evenodd" d="M22.002 12.0001C22.002 17.5229 17.5248 22.0001 12.002 22.0001C6.47911 22.0001 2.00195 17.5229 2.00195 12.0001C2.00195 6.47721 6.47911 2.00006 12.002 2.00006C17.5248 2.00006 22.002 6.47721 22.002 12.0001ZM12.002 4.00006C16.4202 4.00006 20.002 7.58178 20.002 12.0001C20.002 16.4183 16.4202 20.0001 12.002 20.0001C7.58368 20.0001 4.00195 16.4183 4.00195 12.0001C4.00195 7.58178 7.58368 4.00006 12.002 4.00006Z" fill="#272937"/>
</svg>
