<svg width="24" height="24" viewBox="0 0 24 24" fill="none" xmlns="http://www.w3.org/2000/svg">
<path d="M15.5384 9.87868L11.5887 13.8284H13.8315C14.3838 13.8284 14.8315 14.2762 14.8315 14.8284C14.8315 14.863 14.8297 14.8971 14.8263 14.9307C14.7751 15.435 14.3493 15.8285 13.8315 15.8285H9.17446C8.62218 15.8285 8.17447 15.3807 8.17446 14.8285V10.1718C8.17446 9.61946 8.62218 9.17175 9.17446 9.17175C9.72675 9.17175 10.1745 9.61946 10.1745 10.1718V12.4142L14.1242 8.46447C14.5147 8.07394 15.1479 8.07394 15.5384 8.46447C15.9289 8.85499 15.9289 9.48816 15.5384 9.87868Z" fill="#272937"/>
<path fill-rule="evenodd" clip-rule="evenodd" d="M4.93186 19.0711C1.02662 15.1659 1.02662 8.83424 4.93186 4.92899C8.8371 1.02375 15.1687 1.02375 19.074 4.92899C22.9792 8.83424 22.9792 15.1659 19.074 19.0711C15.1687 22.9764 8.8371 22.9764 4.93186 19.0711ZM17.6598 17.6569C14.5356 20.7811 9.47027 20.7811 6.34607 17.6569C3.22188 14.5327 3.22188 9.4674 6.34607 6.34321C9.47027 3.21901 14.5356 3.21901 17.6598 6.34321C20.784 9.4674 20.784 14.5327 17.6598 17.6569Z" fill="#272937"/>
</svg>
