<svg width="24" height="24" viewBox="0 0 24 24" fill="none" xmlns="http://www.w3.org/2000/svg">
<path d="M9.88155 8.4644L13.8313 12.4141V10.1713C13.8313 9.61906 14.279 9.17134 14.8313 9.17134C14.8658 9.17134 14.8999 9.17309 14.9335 9.1765C15.4378 9.22771 15.8313 9.65357 15.8313 10.1713V14.8284C15.8313 15.3806 15.3836 15.8284 14.8313 15.8284H10.1746C9.62233 15.8284 9.17461 15.3806 9.17461 14.8284C9.17461 14.2761 9.62232 13.8284 10.1746 13.8284H12.4171L8.46733 9.87862C8.07681 9.48809 8.07681 8.85493 8.46733 8.4644C8.85786 8.07388 9.49102 8.07388 9.88155 8.4644Z" fill="currentColor"/>
<path fill-rule="evenodd" clip-rule="evenodd" d="M19.074 19.0709C15.1688 22.9762 8.8371 22.9762 4.93186 19.0709C1.02662 15.1657 1.02662 8.83405 4.93186 4.92881C8.8371 1.02357 15.1688 1.02357 19.074 4.92881C22.9792 8.83405 22.9792 15.1657 19.074 19.0709ZM17.6598 6.34302C20.784 9.46722 20.784 14.5325 17.6598 17.6567C14.5356 20.7809 9.47027 20.7809 6.34608 17.6567C3.22188 14.5325 3.22188 9.46722 6.34608 6.34302C9.47027 3.21883 14.5356 3.21883 17.6598 6.34302Z" fill="currentColor"/>
</svg>
