<svg width="24" height="24" viewBox="0 0 24 24" fill="none" xmlns="http://www.w3.org/2000/svg">
<path fill-rule="evenodd" clip-rule="evenodd" d="M10 1C8.89543 1 8 1.89543 8 3H6C4.96447 3 4.11275 3.787 4.01033 4.79551C4.0035 4.86275 4 4.93097 4 5V20C4 21.1046 4.89543 22 6 22H18C19.1046 22 20 21.1046 20 20V5C20 3.89543 19.1046 3 18 3H16C16 1.89543 15.1046 1 14 1H10ZM15 11C15.5523 11 16 10.5523 16 10C16 9.44772 15.5523 9 15 9H9C8.44772 9 8 9.44772 8 10C8 10.5523 8.44772 11 9 11H15ZM14 14.5C14 15.0523 13.5523 15.5 13 15.5H9C8.44772 15.5 8 15.0523 8 14.5C8 13.9477 8.44772 13.5 9 13.5H13C13.5523 13.5 14 13.9477 14 14.5ZM10 3H14V5H10V3Z" fill="currentColor"/>
</svg>
