<svg width="24" height="24" viewBox="0 0 24 24" fill="none" xmlns="http://www.w3.org/2000/svg">
<path d="M16 10C16 10.5523 15.5523 11 15 11H9C8.44772 11 8 10.5523 8 10C8 9.44772 8.44772 9 9 9H15C15.5523 9 16 9.44772 16 10Z" fill="currentColor"/>
<path d="M14 14C14 14.5523 13.5523 15 13 15H9C8.44772 15 8 14.5523 8 14C8 13.4477 8.44772 13 9 13H13C13.5523 13 14 13.4477 14 14Z" fill="currentColor"/>
<path fill-rule="evenodd" clip-rule="evenodd" d="M10 1C8.89543 1 8 1.89543 8 3H6C4.89543 3 4 3.89543 4 5V20C4 21.1046 4.89543 22 6 22H18C19.1046 22 20 21.1046 20 20V5C20 3.89543 19.1046 3 18 3H16C16 1.89543 15.1046 1 14 1H10ZM16 5C16 6.10457 15.1046 7 14 7H10C8.89543 7 8 6.10457 8 5H6V20H18V5H16ZM10 3H14V5H10V3Z" fill="currentColor"/>
</svg>
