<svg width="24" height="24" viewBox="0 0 24 24" fill="none" xmlns="http://www.w3.org/2000/svg">
<path fill-rule="evenodd" clip-rule="evenodd" d="M5 20C2.23858 20 0 17.7614 0 15C0 12.5773 1.72308 10.557 4.0106 10.0979C4.21955 6.14271 7.49277 3 11.5 3C14.776 3 17.5614 5.10039 18.5831 8.02797C21.6232 8.32114 24 10.883 24 14C24 17.3137 21.3137 20 18 20H5ZM15 10C15.3905 10.3905 15.3905 11.0237 15 11.4142L11.2071 15.2071C10.8166 15.5976 10.1834 15.5976 9.79289 15.2071L8 13.4142C7.60948 13.0237 7.60948 12.3905 8 12C8.39052 11.6095 9.02369 11.6095 9.41421 12L10.5 13.0858L13.5858 10C13.9763 9.60948 14.6095 9.60948 15 10Z" fill="#272937"/>
</svg>
