<svg width="24" height="24" viewBox="0 0 24 24" fill="none" xmlns="http://www.w3.org/2000/svg">
<path fill-rule="evenodd" clip-rule="evenodd" d="M3.41422 2.99998C3.02369 2.60946 2.39053 2.60946 2 2.99998C1.60948 3.39051 1.60948 4.02367 2 4.41419L4.77061 7.1848C4.33314 8.07111 4.06562 9.05632 4.0106 10.0979C1.72308 10.557 0 12.5773 0 15C0 17.7614 2.23858 20 5 20H17.5858L19.5858 22C19.9763 22.3905 20.6095 22.3905 21 22C21.3905 21.6095 21.3905 20.9763 21 20.5858L7.32895 6.91472L3.41422 2.99998ZM15.5858 18L6.29712 8.71131C6.13499 9.183 6.03527 9.68364 6.00781 10.2034C5.95963 11.1155 5.29968 11.879 4.4042 12.0588C3.03258 12.3341 2 13.5487 2 15C2 16.6569 3.34315 18 5 18H15.5858ZM5.91185 5.49762C5.91184 5.49763 5.91186 5.4976 5.91185 5.49762V5.49762Z" fill="#272937"/>
<path d="M20.4245 17.1818C21.3821 16.451 22 15.2976 22 14C22 11.9232 20.4157 10.214 18.3911 10.0187C17.6142 9.9438 16.9519 9.42381 16.6947 8.68692C15.9446 6.53743 13.8993 4.99998 11.5 4.99998C10.5583 4.99998 9.67174 5.23675 8.89671 5.65397L7.43731 4.19458C8.60805 3.43869 10.0028 2.99998 11.5 2.99998C14.776 2.99998 17.5614 5.10037 18.5831 8.02795C21.6232 8.32112 24 10.883 24 14C24 15.8497 23.163 17.5038 21.8472 18.6045L20.4245 17.1818Z" fill="#272937"/>
</svg>
