<svg width="24" height="24" viewBox="0 0 24 24" fill="none" xmlns="http://www.w3.org/2000/svg">
<path fill-rule="evenodd" clip-rule="evenodd" d="M0 15C0 12.5773 1.72308 10.557 4.0106 10.0979C4.21955 6.14271 7.49277 3 11.5 3C14.776 3 17.5614 5.10039 18.5831 8.02797C21.6232 8.32114 24 10.883 24 14C24 17.3137 21.3137 20 18 20H5C2.23858 20 0 17.7614 0 15ZM4.4042 12.0588C5.29968 11.879 5.95963 11.1155 6.00781 10.2034C6.16095 7.30465 8.56199 5 11.5 5C13.8993 5 15.9446 6.53745 16.6947 8.68694C16.9519 9.42383 17.6142 9.94382 18.3911 10.0187C20.4157 10.214 22 11.9232 22 14C22 16.2091 20.2091 18 18 18H5C3.34315 18 2 16.6569 2 15C2 13.5487 3.03258 12.3341 4.4042 12.0588Z" fill="#272937"/>
</svg>
