<svg width="24" height="24" viewBox="0 0 24 24" fill="currentColor" xmlns="http://www.w3.org/2000/svg">
<path fill-rule="evenodd" clip-rule="evenodd" d="M22 12C22 17.5228 17.5228 22 12 22C6.47715 22 2 17.5228 2 12C2 6.47715 6.47715 2 12 2C17.5228 2 22 6.47715 22 12ZM8.94868 15.6838C8.5578 15.8141 8.18594 15.4422 8.31623 15.0513L9.84189 10.4743C9.94142 10.1757 10.1757 9.94142 10.4743 9.84189L15.0513 8.31623C15.4422 8.18594 15.8141 8.55781 15.6838 8.94868L14.1581 13.5257C14.0586 13.8243 13.8243 14.0586 13.5257 14.1581L8.94868 15.6838Z" fill="currentColor"/>
</svg>
