<svg width="24" height="24" viewBox="0 0 24 24" fill="none" xmlns="http://www.w3.org/2000/svg">
<path fill-rule="evenodd" clip-rule="evenodd" d="M10.5684 9.19473C9.90395 9.38456 9.38459 9.90392 9.19476 10.5684L7.9945 14.7693C7.77897 15.5236 8.47639 16.221 9.23074 16.0055L13.4316 14.8052C14.0961 14.6154 14.6154 14.0961 14.8052 13.4316L16.0055 9.23071C16.221 8.47636 15.5236 7.77894 14.7693 7.99447L10.5684 9.19473ZM13.588 10.412L11.1178 11.1178L10.412 13.588L12.8822 12.8822L13.588 10.412Z" fill="#272937"/>
<path fill-rule="evenodd" clip-rule="evenodd" d="M22 12C22 17.5228 17.5228 22 12 22C6.47715 22 2 17.5228 2 12C2 6.47715 6.47715 2 12 2C17.5228 2 22 6.47715 22 12ZM20 12C20 16.4183 16.4183 20 12 20C7.58172 20 4 16.4183 4 12C4 7.58172 7.58172 4 12 4C16.4183 4 20 7.58172 20 12Z" fill="#272937"/>
</svg>
