<svg width="24" height="24" viewBox="0 0 24 24" fill="currentColor" xmlns="http://www.w3.org/2000/svg">
<g clip-path="url(#clip0_618_17)">
<path fill-rule="evenodd" clip-rule="evenodd" d="M2.0156 5.28748V9.95623C2.0156 13.2094 2.02966 14.6531 2.06716 14.7328C2.09529 14.7937 2.17498 14.8781 2.24998 14.9203C2.37185 14.9953 3.11248 15 12 15C20.8875 15 21.6281 14.9953 21.75 14.9203C21.825 14.8781 21.9047 14.7937 21.9328 14.7328C21.9703 14.6531 21.9843 13.2094 21.9843 9.95623V5.28748C21.9843 5.28748 21.925 5.03123 21.7125 5.0156C21.5 4.99998 12 5.0156 12 5.0156C12 5.0156 2.5035 4.99972 2.28748 5.0156C2.07146 5.03149 2.0156 5.28748 2.0156 5.28748ZM21 14.0156V5.99998H2.99998V14.0156H21Z" fill="currentColor"/>
<path d="M5.77969 7.05936C5.47969 7.20936 5.48438 7.17654 5.48438 9.97967C5.48438 12.7078 5.48906 12.7406 5.72344 12.9094C5.86406 13.0078 6.13594 13.0078 6.27656 12.9094C6.51094 12.7406 6.51562 12.7078 6.51562 9.97967C6.51562 7.16248 6.52031 7.20467 6.21094 7.05936C6.01875 6.96561 5.96719 6.96561 5.77969 7.05936Z" fill="currentColor"/>
<path d="M9.81562 7.04998C9.50156 7.18592 9.51562 7.04998 9.51562 10.0219V12.7125L9.65156 12.8484C9.87656 13.0687 10.2609 13.0219 10.4203 12.75C10.4906 12.6328 10.5 12.3609 10.5 10.0078C10.5 7.1156 10.5047 7.18123 10.1953 7.04998C10.0031 6.97029 9.99844 6.97029 9.81562 7.04998Z" fill="currentColor"/>
<path d="M13.7953 7.05467C13.4953 7.18592 13.5 7.12498 13.5 10.0078C13.5 12.3609 13.5094 12.6328 13.5797 12.75C13.7391 13.0219 14.1234 13.0687 14.3484 12.8484L14.4844 12.7125V10.0219C14.4844 7.0406 14.4984 7.18592 14.175 7.04998C13.9875 6.97029 13.9828 6.97029 13.7953 7.05467Z" fill="currentColor"/>
<path d="M17.7797 7.05936C17.4797 7.20936 17.4844 7.17654 17.4844 9.97967C17.4844 12.7078 17.4891 12.7406 17.7234 12.9094C17.8641 13.0078 18.1359 13.0078 18.2766 12.9094C18.5109 12.7406 18.5156 12.7078 18.5156 9.97967C18.5156 7.16248 18.5203 7.20467 18.2109 7.05936C18.0187 6.96561 17.9672 6.96561 17.7797 7.05936Z" fill="currentColor"/>
<path d="M0.295312 16.0547C0.140625 16.1203 0 16.3312 0 16.5C0 16.6734 0.140625 16.8797 0.304687 16.95C0.426562 16.9969 0.69375 17.0156 1.35 17.0156H2.23594L2.12812 17.3297C1.94062 17.8828 1.99687 18.5297 2.27812 19.0125C2.44219 19.289 2.86406 19.6734 3.15 19.8047C3.88125 20.1375 4.72031 20.0203 5.30625 19.5L5.51719 19.3172L5.67656 19.4812C5.8875 19.6969 6.32344 19.9078 6.70781 19.9687C7.3125 20.0719 7.94062 19.8609 8.39531 19.4062C8.69531 19.1062 8.83125 18.8765 8.93437 18.4547C9.02812 18.0984 9 17.6578 8.86406 17.2969C8.80781 17.1562 8.76562 17.0344 8.76562 17.025C8.76562 17.0203 10.2234 17.0156 12 17.0156C13.7812 17.0156 15.2344 17.0203 15.2344 17.025C15.2344 17.0344 15.1922 17.1562 15.1359 17.2969C14.9391 17.8125 14.9766 18.4359 15.2391 18.9469C15.3844 19.2281 15.825 19.65 16.1297 19.7953C16.5047 19.9687 16.9312 20.0344 17.3016 19.9687C17.6812 19.9031 18.1172 19.6969 18.3234 19.4812L18.4828 19.3172L18.6937 19.5C19.4578 20.175 20.6062 20.1515 21.3516 19.4484C21.4922 19.3172 21.6562 19.1203 21.7219 19.0125C22.0031 18.5297 22.0594 17.8828 21.8719 17.3297L21.7641 17.0156H22.65C23.6391 17.0156 23.8031 16.9781 23.925 16.739C24.0187 16.5609 24.0187 16.439 23.925 16.2609C23.775 15.9656 24.6328 15.9844 11.9906 15.9844C2.25937 15.989 0.421875 15.9984 0.295312 16.0547ZM4.55625 17.1844C4.84687 17.3859 4.96875 17.625 4.96875 18C4.96875 18.2297 4.94062 18.3515 4.86094 18.4922C4.55625 19.0265 3.81094 19.1484 3.34219 18.7359C2.80312 18.2625 2.925 17.4515 3.58594 17.0906C3.68437 17.0344 3.81562 17.0203 4.04062 17.0297C4.30312 17.039 4.3875 17.0672 4.55625 17.1844ZM7.55625 17.1844C7.83281 17.3765 7.9875 17.6719 7.9875 18C7.9875 18.8484 6.98437 19.2984 6.34219 18.7359C5.80312 18.2625 5.925 17.4515 6.58594 17.0906C6.68437 17.0344 6.81562 17.0203 7.04062 17.0297C7.30312 17.039 7.3875 17.0672 7.55625 17.1844ZM17.4281 17.1047C18.075 17.4375 18.1922 18.2672 17.6578 18.7359C17.0156 19.2984 16.0078 18.8484 16.0125 18C16.0125 17.5922 16.2328 17.2453 16.5937 17.0906C16.8281 16.9875 17.2172 16.9969 17.4281 17.1047ZM20.4281 17.1047C21.075 17.4375 21.1922 18.2672 20.6578 18.7359C20.1891 19.1484 19.4437 19.0265 19.1391 18.4922C18.9328 18.1265 19.0172 17.5453 19.3219 17.264C19.5891 17.0109 20.1047 16.9406 20.4281 17.1047Z" fill="currentColor"/>
<path fill-rule="evenodd" clip-rule="evenodd" d="M2.0156 5.28748V9.95623C2.0156 13.2094 2.02966 14.6531 2.06716 14.7328C2.09529 14.7937 2.17498 14.8781 2.24998 14.9203C2.37185 14.9953 3.11248 15 12 15C20.8875 15 21.6281 14.9953 21.75 14.9203C21.825 14.8781 21.9047 14.7937 21.9328 14.7328C21.9703 14.6531 21.9843 13.2094 21.9843 9.95623V5.28748C21.9843 5.28748 21.925 5.03123 21.7125 5.0156C21.5 4.99998 12 5.0156 12 5.0156C12 5.0156 2.5035 4.99972 2.28748 5.0156C2.07146 5.03149 2.0156 5.28748 2.0156 5.28748ZM21 14.0156V5.99998H2.99998V14.0156H21Z" stroke="#272937" stroke-width="0.2"/>
<path d="M5.77969 7.05936C5.47969 7.20936 5.48438 7.17654 5.48438 9.97967C5.48438 12.7078 5.48906 12.7406 5.72344 12.9094C5.86406 13.0078 6.13594 13.0078 6.27656 12.9094C6.51094 12.7406 6.51562 12.7078 6.51562 9.97967C6.51562 7.16248 6.52031 7.20467 6.21094 7.05936C6.01875 6.96561 5.96719 6.96561 5.77969 7.05936Z" stroke="#272937" stroke-width="0.2"/>
<path d="M9.81562 7.04998C9.50156 7.18592 9.51562 7.04998 9.51562 10.0219V12.7125L9.65156 12.8484C9.87656 13.0687 10.2609 13.0219 10.4203 12.75C10.4906 12.6328 10.5 12.3609 10.5 10.0078C10.5 7.1156 10.5047 7.18123 10.1953 7.04998C10.0031 6.97029 9.99844 6.97029 9.81562 7.04998Z" stroke="#272937" stroke-width="0.2"/>
<path d="M13.7953 7.05467C13.4953 7.18592 13.5 7.12498 13.5 10.0078C13.5 12.3609 13.5094 12.6328 13.5797 12.75C13.7391 13.0219 14.1234 13.0687 14.3484 12.8484L14.4844 12.7125V10.0219C14.4844 7.0406 14.4984 7.18592 14.175 7.04998C13.9875 6.97029 13.9828 6.97029 13.7953 7.05467Z" stroke="#272937" stroke-width="0.2"/>
<path d="M17.7797 7.05936C17.4797 7.20936 17.4844 7.17654 17.4844 9.97967C17.4844 12.7078 17.4891 12.7406 17.7234 12.9094C17.8641 13.0078 18.1359 13.0078 18.2766 12.9094C18.5109 12.7406 18.5156 12.7078 18.5156 9.97967C18.5156 7.16248 18.5203 7.20467 18.2109 7.05936C18.0187 6.96561 17.9672 6.96561 17.7797 7.05936Z" stroke="#272937" stroke-width="0.2"/>
<path d="M0.295312 16.0547C0.140625 16.1203 0 16.3312 0 16.5C0 16.6734 0.140625 16.8797 0.304687 16.95C0.426562 16.9969 0.69375 17.0156 1.35 17.0156H2.23594L2.12812 17.3297C1.94062 17.8828 1.99687 18.5297 2.27812 19.0125C2.44219 19.289 2.86406 19.6734 3.15 19.8047C3.88125 20.1375 4.72031 20.0203 5.30625 19.5L5.51719 19.3172L5.67656 19.4812C5.8875 19.6969 6.32344 19.9078 6.70781 19.9687C7.3125 20.0719 7.94062 19.8609 8.39531 19.4062C8.69531 19.1062 8.83125 18.8765 8.93437 18.4547C9.02812 18.0984 9 17.6578 8.86406 17.2969C8.80781 17.1562 8.76562 17.0344 8.76562 17.025C8.76562 17.0203 10.2234 17.0156 12 17.0156C13.7812 17.0156 15.2344 17.0203 15.2344 17.025C15.2344 17.0344 15.1922 17.1562 15.1359 17.2969C14.9391 17.8125 14.9766 18.4359 15.2391 18.9469C15.3844 19.2281 15.825 19.65 16.1297 19.7953C16.5047 19.9687 16.9312 20.0344 17.3016 19.9687C17.6812 19.9031 18.1172 19.6969 18.3234 19.4812L18.4828 19.3172L18.6937 19.5C19.4578 20.175 20.6062 20.1515 21.3516 19.4484C21.4922 19.3172 21.6562 19.1203 21.7219 19.0125C22.0031 18.5297 22.0594 17.8828 21.8719 17.3297L21.7641 17.0156H22.65C23.6391 17.0156 23.8031 16.9781 23.925 16.739C24.0187 16.5609 24.0187 16.439 23.925 16.2609C23.775 15.9656 24.6328 15.9844 11.9906 15.9844C2.25937 15.989 0.421875 15.9984 0.295312 16.0547ZM4.55625 17.1844C4.84687 17.3859 4.96875 17.625 4.96875 18C4.96875 18.2297 4.94062 18.3515 4.86094 18.4922C4.55625 19.0265 3.81094 19.1484 3.34219 18.7359C2.80312 18.2625 2.925 17.4515 3.58594 17.0906C3.68437 17.0344 3.81562 17.0203 4.04062 17.0297C4.30312 17.039 4.3875 17.0672 4.55625 17.1844ZM7.55625 17.1844C7.83281 17.3765 7.9875 17.6719 7.9875 18C7.9875 18.8484 6.98437 19.2984 6.34219 18.7359C5.80312 18.2625 5.925 17.4515 6.58594 17.0906C6.68437 17.0344 6.81562 17.0203 7.04062 17.0297C7.30312 17.039 7.3875 17.0672 7.55625 17.1844ZM17.4281 17.1047C18.075 17.4375 18.1922 18.2672 17.6578 18.7359C17.0156 19.2984 16.0078 18.8484 16.0125 18C16.0125 17.5922 16.2328 17.2453 16.5937 17.0906C16.8281 16.9875 17.2172 16.9969 17.4281 17.1047ZM20.4281 17.1047C21.075 17.4375 21.1922 18.2672 20.6578 18.7359C20.1891 19.1484 19.4437 19.0265 19.1391 18.4922C18.9328 18.1265 19.0172 17.5453 19.3219 17.264C19.5891 17.0109 20.1047 16.9406 20.4281 17.1047Z" stroke="#272937" stroke-width="0.2"/>
</g>
<defs>
<clipPath id="clip0_618_17">
<rect width="24" height="24" fill="currentColor"/>
</clipPath>
</defs>
</svg>
