<svg width="24" height="24" viewBox="0 0 24 24" fill="none" xmlns="http://www.w3.org/2000/svg">
<path fill-rule="evenodd" clip-rule="evenodd" d="M7 2C5.89543 2 5 2.89543 5 4V6H3C2.44772 6 2 6.44772 2 7C2 7.55229 2.44772 8 3 8H5V11H3C2.44772 11 2 11.4477 2 12C2 12.5523 2.44772 13 3 13H5V16H3C2.44772 16 2 16.4477 2 17C2 17.5523 2.44772 18 3 18H5V20C5 21.1046 5.89543 22 7 22H19C20.1046 22 21 21.1046 21 20V4C21 2.89543 20.1046 2 19 2H7ZM13 12C14.5188 12 15.75 10.7688 15.75 9.25C15.75 7.73122 14.5188 6.5 13 6.5C11.4812 6.5 10.25 7.73122 10.25 9.25C10.25 10.7688 11.4812 12 13 12ZM16.547 15.316C16.8542 15.5807 17 15.9793 17 16.3848C17 17.2769 16.2769 18 15.3848 18H10.6152C9.72315 18 9 17.2769 9 16.3848C9 15.9793 9.14581 15.5807 9.45305 15.316C10.4052 14.4958 11.6447 14 13 14C14.3553 14 15.5948 14.4958 16.547 15.316Z" fill="currentColor"/>
</svg>
