<svg width="24" height="24" viewBox="0 0 24 24" fill="none" xmlns="http://www.w3.org/2000/svg">
<path fill-rule="evenodd" clip-rule="evenodd" d="M16.25 10.25C16.25 12.0449 14.7949 13.5 13 13.5C11.2051 13.5 9.75 12.0449 9.75 10.25C9.75 8.45508 11.2051 7 13 7C14.7949 7 16.25 8.45508 16.25 10.25ZM14.25 10.25C14.25 10.9404 13.6904 11.5 13 11.5C12.3096 11.5 11.75 10.9404 11.75 10.25C11.75 9.55965 12.3096 9 13 9C13.6904 9 14.25 9.55965 14.25 10.25Z" fill="#272937"/>
<path d="M13 17C12.0699 17 11.1845 17.1809 10.3752 17.5085C9.87651 17.7103 9.28234 17.5583 9.01294 17.0926L9 17.0703C8.72345 16.5922 8.88509 15.9748 9.39094 15.7531C9.46832 15.7192 9.54627 15.6864 9.62478 15.6546C10.6684 15.2321 11.8083 15 13 15C14.1917 15 15.3316 15.2321 16.3752 15.6546C16.4537 15.6864 16.5317 15.7192 16.6091 15.7531C17.1149 15.9748 17.2765 16.5922 17 17.0703L16.987 17.0926C16.7177 17.5583 16.1235 17.7103 15.6248 17.5085C14.8155 17.1809 13.9301 17 13 17Z" fill="#272937"/>
<path fill-rule="evenodd" clip-rule="evenodd" d="M7 2C5.89543 2 5 2.89543 5 4V6H3C2.44772 6 2 6.44772 2 7C2 7.55229 2.44772 8 3 8H5V11H3C2.44772 11 2 11.4477 2 12C2 12.5523 2.44772 13 3 13H5V16H3C2.44772 16 2 16.4477 2 17C2 17.5523 2.44772 18 3 18H5V20C5 21.1046 5.89543 22 7 22H19C20.1046 22 21 21.1046 21 20V4C21 2.89543 20.1046 2 19 2H7ZM7 4H19V20H7V4Z" fill="#272937"/>
</svg>
