<svg width="24" height="24" viewBox="0 0 24 24" fill="none" xmlns="http://www.w3.org/2000/svg">
<path fill-rule="evenodd" clip-rule="evenodd" d="M19 4H21C22.1046 4 23 4.89543 23 6V9C23 11.2091 21.2091 13 19 13H18.3264C17.3395 15.0774 15.3595 16.5916 13 16.9291V20H15C15.5523 20 16 20.4477 16 21C16 21.5523 15.5523 22 15 22H9C8.44772 22 8 21.5523 8 21C8 20.4477 8.44772 20 9 20H11V16.9291C8.64045 16.5916 6.6605 15.0774 5.67363 13H5C2.79086 13 1 11.2091 1 9V6C1 4.89543 1.89543 4 3 4H5V3.875C5 2.83947 5.83947 2 6.875 2H17.125C18.1605 2 19 2.83947 19 3.875V4ZM12 15C9.23858 15 7 12.7614 7 10V4H17V10C17 12.7614 14.7614 15 12 15ZM18.9291 11H19C20.1046 11 21 10.1046 21 9V6H19V10C19 10.3395 18.9758 10.6734 18.9291 11ZM5.07089 11C5.02417 10.6734 5 10.3395 5 10V6H3V9C3 10.1046 3.89543 11 5 11H5.07089Z" fill="#272937"/>
</svg>
