<svg width="24" height="24" viewBox="0 0 24 24" fill="none" xmlns="http://www.w3.org/2000/svg">
<path fill-rule="evenodd" clip-rule="evenodd" d="M6.875 2C5.83947 2 5 2.83947 5 3.875V4H3C1.89543 4 1 4.89543 1 6V9C1 11.2091 2.79086 13 5 13H5.67363C6.6605 15.0774 8.64045 16.5916 11 16.9291V20H9C8.44772 20 8 20.4477 8 21C8 21.5523 8.44772 22 9 22H15C15.5523 22 16 21.5523 16 21C16 20.4477 15.5523 20 15 20H13V16.9291C15.3595 16.5916 17.3395 15.0774 18.3264 13H19C21.2091 13 23 11.2091 23 9V6C23 4.89543 22.1046 4 21 4H19V3.875C19 2.83947 18.1605 2 17.125 2H6.875ZM18.9291 11H19C20.1046 11 21 10.1046 21 9V6H19V10C19 10.3395 18.9758 10.6734 18.9291 11ZM5.07089 11C5.02417 10.6734 5 10.3395 5 10V6H3V9C3 10.1046 3.89543 11 5 11H5.07089Z" fill="#272937"/>
</svg>
