<svg width="24" height="24" viewBox="0 0 24 24" fill="none" xmlns="http://www.w3.org/2000/svg">
<path fill-rule="evenodd" clip-rule="evenodd" d="M12 2.5C16.9706 2.5 21 4.29086 21 6.5V17.5C21 19.7091 16.9706 21.5 12 21.5C7.02944 21.5 3 19.7091 3 17.5V6.5C3 4.29086 7.02944 2.5 12 2.5ZM19.006 6.4534C19.0063 6.45339 19.0057 6.45676 19.003 6.46355C19.0043 6.4568 19.0056 6.45341 19.006 6.4534ZM18.8439 6.32179C18.9219 6.40368 18.9634 6.46295 18.9848 6.5C18.9634 6.53706 18.9219 6.59632 18.8439 6.67821C18.6248 6.90844 18.2133 7.20677 17.5517 7.5008C16.2336 8.08663 14.2724 8.5 12 8.5C9.72757 8.5 7.76644 8.08663 6.44832 7.5008C5.78673 7.20677 5.37516 6.90844 5.15606 6.67821C5.07813 6.59632 5.03659 6.53706 5.01516 6.5C5.03659 6.46295 5.07813 6.40368 5.15606 6.32179C5.37516 6.09156 5.78673 5.79323 6.44832 5.4992C7.76644 4.91337 9.72757 4.5 12 4.5C14.2724 4.5 16.2336 4.91337 17.5517 5.4992C18.2133 5.79323 18.6248 6.09156 18.8439 6.32179ZM4.99403 6.4534C4.99436 6.4534 4.99567 6.4568 4.99699 6.46355C4.99435 6.45676 4.99369 6.45339 4.99403 6.4534ZM5 9.01437V11.9707C5.01331 12.0007 5.05262 12.0695 5.15606 12.1782C5.37516 12.4084 5.78673 12.7068 6.44832 13.0008C7.76644 13.5866 9.72757 14 12 14C14.2724 14 16.2336 13.5866 17.5517 13.0008C18.2133 12.7068 18.6248 12.4084 18.8439 12.1782C18.9474 12.0695 18.9867 12.0007 19 11.9707V9.01437C17.35 9.92059 14.8273 10.5 12 10.5C9.17274 10.5 6.64996 9.92059 5 9.01437ZM19 14.5144C17.35 15.4206 14.8273 16 12 16C9.17274 16 6.64996 15.4206 5 14.5144V17.4707C5.01331 17.5007 5.05262 17.5695 5.15606 17.6782C5.37516 17.9084 5.78673 18.2068 6.44832 18.5008C7.76644 19.0866 9.72757 19.5 12 19.5C14.2724 19.5 16.2336 19.0866 17.5517 18.5008C18.2133 18.2068 18.6248 17.9084 18.8439 17.6782C18.9474 17.5695 18.9867 17.5007 19 17.4707V14.5144Z" fill="currentColor"/>
</svg>
