<svg width="24" height="24" viewBox="0 0 24 24" fill="none" xmlns="http://www.w3.org/2000/svg">
<path d="M12 12.5C14.6981 12.5 17.237 12.0179 19.1762 11.1561C19.8273 10.8667 20.4509 10.5167 21 10.097V12C21 14.2091 16.9706 16 12 16C7.02944 16 3 14.2091 3 12V10.097C3.54909 10.5167 4.17268 10.8667 4.82376 11.1561C6.763 12.0179 9.30187 12.5 12 12.5Z" fill="#272937"/>
<path d="M19.1762 16.6561C19.8273 16.3667 20.4509 16.0167 21 15.597V17.5C21 19.7091 16.9706 21.5 12 21.5C7.02944 21.5 3 19.7091 3 17.5V15.597C3.54909 16.0167 4.17268 16.3667 4.82376 16.6561C6.763 17.5179 9.30187 18 12 18C14.6981 18 17.237 17.5179 19.1762 16.6561Z" fill="#272937"/>
<path d="M21 6.5C21 8.70914 16.9706 10.5 12 10.5C7.02944 10.5 3 8.70914 3 6.5C3 4.29086 7.02944 2.5 12 2.5C16.9706 2.5 21 4.29086 21 6.5Z" fill="#272937"/>
</svg>
