<svg width="24" height="24" viewBox="0 0 24 24" fill="none" xmlns="http://www.w3.org/2000/svg">
<path d="M19 6.75C19.9665 6.75 20.75 7.5335 20.75 8.5C20.75 9.4665 19.9665 10.25 19 10.25C18.0335 10.25 17.25 9.4665 17.25 8.5C17.25 7.5335 18.0335 6.75 19 6.75Z" fill="#272937"/>
<path d="M20.75 15.5C20.75 14.5335 19.9665 13.75 19 13.75C18.0335 13.75 17.25 14.5335 17.25 15.5C17.25 16.4665 18.0335 17.25 19 17.25C19.9665 17.25 20.75 16.4665 20.75 15.5Z" fill="#272937"/>
<path d="M12 13.75C12.9665 13.75 13.75 14.5335 13.75 15.5C13.75 16.4665 12.9665 17.25 12 17.25C11.0335 17.25 10.25 16.4665 10.25 15.5C10.25 14.5335 11.0335 13.75 12 13.75Z" fill="#272937"/>
<path d="M12 6.75C12.9665 6.75 13.75 7.5335 13.75 8.5C13.75 9.4665 12.9665 10.25 12 10.25C11.0335 10.25 10.25 9.4665 10.25 8.5C10.25 7.5335 11.0335 6.75 12 6.75Z" fill="#272937"/>
<path d="M5 13.75C5.9665 13.75 6.75 14.5335 6.75 15.5C6.75 16.4665 5.9665 17.25 5 17.25C4.0335 17.25 3.25 16.4665 3.25 15.5C3.25 14.5335 4.0335 13.75 5 13.75Z" fill="#272937"/>
<path d="M5 6.75C5.9665 6.75 6.75 7.5335 6.75 8.5C6.75 9.4665 5.9665 10.25 5 10.25C4.0335 10.25 3.25 9.4665 3.25 8.5C3.25 7.5335 4.0335 6.75 5 6.75Z" fill="#272937"/>
</svg>
