<svg width="24" height="24" viewBox="0 0 24 24" fill="none" xmlns="http://www.w3.org/2000/svg">
<path d="M8.5 3.25C7.5335 3.25 6.75 4.0335 6.75 5C6.75 5.9665 7.5335 6.75 8.5 6.75C9.4665 6.75 10.25 5.9665 10.25 5C10.25 4.0335 9.4665 3.25 8.5 3.25Z" fill="currentColor"/>
<path d="M6.75 12C6.75 11.0335 7.5335 10.25 8.5 10.25C9.4665 10.25 10.25 11.0335 10.25 12C10.25 12.9665 9.4665 13.75 8.5 13.75C7.5335 13.75 6.75 12.9665 6.75 12Z" fill="currentColor"/>
<path d="M6.75 19C6.75 18.0335 7.5335 17.25 8.5 17.25C9.4665 17.25 10.25 18.0335 10.25 19C10.25 19.9665 9.4665 20.75 8.5 20.75C7.5335 20.75 6.75 19.9665 6.75 19Z" fill="currentColor"/>
<path d="M13.75 5C13.75 4.0335 14.5335 3.25 15.5 3.25C16.4665 3.25 17.25 4.0335 17.25 5C17.25 5.9665 16.4665 6.75 15.5 6.75C14.5335 6.75 13.75 5.9665 13.75 5Z" fill="currentColor"/>
<path d="M13.75 12C13.75 11.0335 14.5335 10.25 15.5 10.25C16.4665 10.25 17.25 11.0335 17.25 12C17.25 12.9665 16.4665 13.75 15.5 13.75C14.5335 13.75 13.75 12.9665 13.75 12Z" fill="currentColor"/>
<path d="M13.75 19C13.75 18.0335 14.5335 17.25 15.5 17.25C16.4665 17.25 17.25 18.0335 17.25 19C17.25 19.9665 16.4665 20.75 15.5 20.75C14.5335 20.75 13.75 19.9665 13.75 19Z" fill="currentColor"/>
</svg>
