<svg width="24" height="24" viewBox="0 0 24 24" fill="none" xmlns="http://www.w3.org/2000/svg">
<path d="M8.80198 7.07282L6.94798 5.21888H18.1229C18.5189 5.21888 18.8399 4.89781 18.8399 4.50188C18.8399 4.10588 18.5189 3.78488 18.1229 3.78488H6.94798L8.80198 1.93084C9.08198 1.65084 9.08198 1.19686 8.80198 0.916855C8.52197 0.636846 8.06799 0.636846 7.78799 0.916855L4.71 3.99482C4.43 4.27488 4.43 4.72881 4.71 5.00887L7.78799 8.0868C8.06799 8.36686 8.52197 8.36686 8.80198 8.0868C9.08198 7.80682 9.08198 7.35288 8.80198 7.07282Z" fill="currentColor"/>
<path fill-rule="evenodd" clip-rule="evenodd" d="M4.8752 10.2188C3.69395 10.2188 3.5252 10.242 2.95801 10.4738C2.48926 10.667 2.04395 11.034 1.80958 11.4204C1.48145 11.9651 1.5002 11.6599 1.5002 16.5938C1.5002 21.5238 1.48145 21.2224 1.80489 21.7633C2.1377 22.3158 2.90176 22.7988 3.64708 22.9263C3.82051 22.9572 6.39864 22.9688 12.2486 22.9688C19.5283 22.9688 20.6393 22.9611 20.9018 22.9108C21.6471 22.764 22.3502 22.2965 22.683 21.7208C22.7815 21.547 22.8893 21.3113 22.9174 21.1992C22.9877 20.9133 22.9877 12.2742 22.9174 11.9883C22.7205 11.1963 21.8908 10.4854 20.9252 10.2806C20.7002 10.2342 20.3908 10.2188 19.5893 10.2188H4.8752ZM21.3611 12.0308C21.2533 11.8492 20.9908 11.6329 20.7705 11.544C20.6111 11.4783 20.2174 11.4745 12.2815 11.4667C5.99083 11.4629 3.92364 11.4706 3.81583 11.5054C3.45489 11.6174 3.1502 11.8801 3.05176 12.1699C3.00958 12.2858 3.0002 13.4565 3.00958 16.6711C3.02364 20.782 3.02833 21.0254 3.10801 21.1567C3.21583 21.3383 3.47833 21.5547 3.69864 21.6436C3.85801 21.7092 4.24239 21.7131 12.2346 21.7131C20.2268 21.7131 20.6111 21.7092 20.7705 21.6436C20.9908 21.5547 21.2533 21.3383 21.3611 21.1567C21.4408 21.0254 21.4455 20.7897 21.4455 16.5938C21.4455 12.3979 21.4408 12.1622 21.3611 12.0308Z" fill="currentColor"/>
<path d="M5.91627 12.9879C5.83189 13.0348 5.70533 13.1426 5.63502 13.2317L5.50846 13.3957L5.49439 16.602C5.48033 20.1785 5.46627 20.0051 5.80377 20.2629C6.04283 20.4457 6.42721 20.4457 6.66627 20.2629C6.99908 20.0098 6.98502 20.1692 6.98502 16.6629C6.98502 13.166 6.99908 13.316 6.67096 13.0676C6.46939 12.9129 6.13658 12.8754 5.91627 12.9879Z" fill="currentColor"/>
<path d="M9.86719 13.0221C9.76406 13.083 9.6375 13.2049 9.58594 13.294C9.49687 13.444 9.49219 13.533 9.49219 16.6596V19.8705L9.59531 20.0346C9.74531 20.2784 10.0359 20.4284 10.2984 20.3955C10.5375 20.3721 10.7109 20.2596 10.8656 20.0346L10.9688 19.8799V13.4393L10.8656 13.2846C10.6125 12.919 10.2094 12.8112 9.86719 13.0221Z" fill="currentColor"/>
<path d="M13.9688 12.9618C13.9032 12.9899 13.8 13.0555 13.7438 13.1118C13.4907 13.3461 13.5 13.2243 13.5 16.6743V19.8805L13.6079 20.0352C13.8375 20.3727 14.1469 20.4805 14.5125 20.3399C14.6625 20.2836 14.761 20.204 14.85 20.068L14.9766 19.8758V13.4493L14.8641 13.2711C14.6813 12.9711 14.2829 12.8352 13.9688 12.9618Z" fill="currentColor"/>
<path d="M17.9163 12.9879C17.8319 13.0348 17.7053 13.1426 17.635 13.2317L17.5085 13.3957L17.4944 16.602C17.4803 20.1785 17.4663 20.0051 17.8038 20.2629C18.0428 20.4457 18.4272 20.4457 18.6663 20.2629C18.9991 20.0098 18.985 20.1692 18.985 16.6629C18.985 13.166 18.9991 13.316 18.671 13.0676C18.4694 12.9129 18.1366 12.8754 17.9163 12.9879Z" fill="currentColor"/>
</svg>
