<svg width="24" height="24" viewBox="0 0 24 24" fill="none" xmlns="http://www.w3.org/2000/svg">
<path d="M8.29289 12.7071L18.5429 2.45708C18.9334 2.06655 19.5666 2.06655 19.9571 2.45708L21.5429 4.04287C21.9334 4.43339 21.9334 5.06656 21.5429 5.45708L11.2929 15.7071C11.1054 15.8946 10.851 16 10.5858 16H8.5C8.22386 16 8 15.7761 8 15.5V13.4142C8 13.149 8.10536 12.8946 8.29289 12.7071Z" fill="currentColor"/>
<path d="M10 3.99997C10 4.55226 9.55229 4.99998 9 4.99998H4V20H19V15C19 14.4477 19.4477 14 20 14C20.5523 14 21 14.4477 21 15V20C21 21.1046 20.1046 22 19 22H4C2.89543 22 2 21.1046 2 20V4.99998C2 3.8954 2.89543 2.99997 4 2.99997H9C9.55229 2.99997 10 3.44769 10 3.99997Z" fill="currentColor"/>
</svg>
