<svg width="24" height="24" viewBox="0 0 24 24" fill="none" xmlns="http://www.w3.org/2000/svg">
<path fill-rule="evenodd" clip-rule="evenodd" d="M12.9999 1.5774C12.3811 1.22013 11.6187 1.22013 10.9999 1.5774L3.47363 5.9227C2.85483 6.27996 2.47363 6.94022 2.47363 7.65475V16.3453C2.47363 17.0599 2.85483 17.7201 3.47363 18.0774L10.9999 22.4227C11.6187 22.78 12.3811 22.78 12.9999 22.4227L20.5262 18.0774C21.145 17.7201 21.5262 17.0599 21.5262 16.3453V7.65475C21.5262 6.94022 21.145 6.27996 20.5262 5.9227L12.9999 1.5774ZM9.91403 8.50005C9.52351 8.10953 8.89034 8.10953 8.49982 8.50005C8.10929 8.89057 8.10929 9.52374 8.49982 9.91426L10.5856 12L8.49981 14.0858C8.10929 14.4764 8.10929 15.1095 8.49981 15.5001C8.89034 15.8906 9.5235 15.8906 9.91403 15.5001L11.9998 13.4143L14.0856 15.5001C14.4761 15.8906 15.1093 15.8906 15.4998 15.5001C15.8903 15.1095 15.8903 14.4764 15.4998 14.0858L13.414 12L15.4998 9.91426C15.8903 9.52374 15.8903 8.89057 15.4998 8.50005C15.1093 8.10953 14.4761 8.10953 14.0856 8.50005L11.9998 10.5858L9.91403 8.50005Z" fill="#272937"/>
</svg>
