<svg width="24" height="24" viewBox="0 0 24 24" fill="none" xmlns="http://www.w3.org/2000/svg">
<path d="M15.4998 8.50004C15.1093 8.10952 14.4761 8.10952 14.0856 8.50004L11.9998 10.5858L9.91403 8.50004C9.5235 8.10952 8.89034 8.10952 8.49981 8.50004C8.10929 8.89057 8.10929 9.52373 8.49981 9.91425L10.5856 12L8.49981 14.0858C8.10928 14.4763 8.10928 15.1095 8.49981 15.5C8.89033 15.8906 9.5235 15.8906 9.91402 15.5L11.9998 13.4142L14.0856 15.5C14.4761 15.8906 15.1093 15.8906 15.4998 15.5C15.8903 15.1095 15.8903 14.4763 15.4998 14.0858L13.414 12L15.4998 9.91425C15.8903 9.52373 15.8903 8.89057 15.4998 8.50004Z" fill="currentColor"/>
<path fill-rule="evenodd" clip-rule="evenodd" d="M12.9999 1.5774C12.3811 1.22013 11.6187 1.22013 10.9999 1.5774L3.47363 5.92269C2.85483 6.27996 2.47363 6.94021 2.47363 7.65474V16.3453C2.47363 17.0599 2.85483 17.7201 3.47363 18.0774L10.9999 22.4227C11.6187 22.7799 12.3811 22.7799 12.9999 22.4227L20.5262 18.0774C21.145 17.7201 21.5262 17.0599 21.5262 16.3453V7.65474C21.5262 6.94021 21.145 6.27996 20.5262 5.92269L12.9999 1.5774ZM19.5262 7.65474L11.9999 3.30945L4.47363 7.65474V16.3453L11.9999 20.6906L19.5262 16.3453V7.65474Z" fill="currentColor"/>
</svg>
