<svg width="24" height="24" viewBox="0 0 24 24" fill="none" xmlns="http://www.w3.org/2000/svg">
<path fill-rule="evenodd" clip-rule="evenodd" d="M3.41431 3.00005C3.02379 2.60952 2.39062 2.60952 2.0001 3.00005C1.60958 3.39057 1.60958 4.02373 2.0001 4.41426L4.63205 7.04621C2.99403 8.55551 1.92448 10.2572 1.39435 11.2219C1.12571 11.7108 1.12571 12.2893 1.39435 12.7782C2.49915 14.7886 5.94677 20 12.0001 20C13.7147 20 15.2203 19.5819 16.5227 18.9369L19.5859 22C19.9764 22.3906 20.6096 22.3906 21.0001 22C21.3906 21.6095 21.3906 20.9763 21.0001 20.5858L3.41431 3.00005ZM8.5001 12C8.5001 11.6693 8.54598 11.3492 8.63173 11.0459L12.9542 15.3684C12.6509 15.4542 12.3309 15.5 12.0001 15.5C10.0671 15.5 8.5001 13.933 8.5001 12Z" fill="#272937"/>
<path d="M15.4914 12.2486C15.4972 12.1665 15.5001 12.0836 15.5001 12C15.5001 10.067 13.9331 8.50005 12.0001 8.50005C11.9165 8.50005 11.8336 8.50298 11.7515 8.50874L8.04521 4.80246C9.21217 4.30775 10.5292 4.00006 12.0001 4.00006C18.0534 4.00006 21.501 9.21147 22.6058 11.2219C22.8745 11.7108 22.8745 12.2893 22.6058 12.7782C22.1228 13.6572 21.1918 15.1483 19.7909 16.5481L15.4914 12.2486Z" fill="#272937"/>
</svg>
