<svg width="24" height="24" viewBox="0 0 24 24" fill="none" xmlns="http://www.w3.org/2000/svg">
<path d="M1 17.6957C1 18.4811 1.86395 18.96 2.53 18.5437L11.6432 12.848C11.8028 12.7482 11.9217 12.6147 12 12.4647V17.6957C12 18.383 12.6615 18.8355 13.273 18.659C13.3604 18.6338 13.4467 18.5957 13.53 18.5437L22.6432 12.848C23.2699 12.4563 23.2699 11.5436 22.6432 11.152L13.53 5.45621C12.864 5.03993 12 5.51878 12 6.30421V11.5353C11.9217 11.3852 11.8028 11.2517 11.6432 11.152L2.53 5.45621C1.86395 5.03993 1 5.51878 1 6.30421V17.6957Z" fill="#272937"/>
</svg>
