<svg width="24" height="24" viewBox="0 0 24 24" fill="none" xmlns="http://www.w3.org/2000/svg">
<path fill-rule="evenodd" clip-rule="evenodd" d="M10.4699 5.45621C11.136 5.03993 11.9999 5.51878 11.9999 6.30421V11.5353C12.0782 11.3852 12.1972 11.2517 12.3567 11.152L21.4699 5.45621C22.136 5.03993 22.9999 5.51878 22.9999 6.30421V17.6957C22.9999 18.4811 22.136 18.96 21.4699 18.5437L12.3567 12.848C12.1972 12.7482 12.0782 12.6147 11.9999 12.4647V17.6957C11.9999 18.4811 11.136 18.96 10.4699 18.5437L1.35672 12.848C0.730053 12.4563 0.730051 11.5436 1.35672 11.152L10.4699 5.45621ZM3.77351 12L9.99991 8.10846V15.8915L3.77351 12ZM20.9999 8.10846L14.7735 12L20.9999 15.8915V8.10846Z" fill="#272937"/>
</svg>
