<svg width="24" height="24" viewBox="0 0 24 24" fill="none" xmlns="http://www.w3.org/2000/svg">
<path d="M11.2467 5.33449C11.6624 5.44218 11.9999 5.81331 11.9999 6.30421V11.5353C12.0782 11.3852 12.1972 11.2517 12.3567 11.152L21.4699 5.45621C21.7197 5.30011 21.9973 5.26988 22.2467 5.33449C22.6624 5.44218 22.9999 5.81331 22.9999 6.30421V17.6957C22.9999 18.4812 22.136 18.96 21.4699 18.5437L12.3567 12.848C12.1972 12.7482 12.0782 12.6147 11.9999 12.4647V17.6957C11.9999 18.4812 11.136 18.96 10.4699 18.5437L1.35672 12.848C1.27839 12.799 1.20984 12.7419 1.15109 12.6787C0.739845 12.2363 0.808386 11.4947 1.35672 11.152L10.4699 5.45621C10.7197 5.30011 10.9973 5.26988 11.2467 5.33449Z" fill="currentColor"/>
</svg>
