<svg width="24" height="24" viewBox="0 0 24 24" fill="none" xmlns="http://www.w3.org/2000/svg">
<path fill-rule="evenodd" clip-rule="evenodd" d="M2.53 18.5437C1.86395 18.96 1 18.4811 1 17.6957V6.30421C1 5.51878 1.86395 5.03993 2.53 5.45621L11.6432 11.152C11.8028 11.2517 11.9217 11.3852 12 11.5353V6.30421C12 5.51878 12.864 5.03993 13.53 5.45621L22.6432 11.152C23.2699 11.5436 23.2699 12.4563 22.6432 12.848L13.53 18.5437C12.864 18.96 12 18.4811 12 17.6957V12.4647C11.9217 12.6147 11.8028 12.7482 11.6432 12.848L2.53 18.5437ZM9.22641 12L3 15.8915V8.10846L9.22641 12ZM14 15.8915L20.2264 12L14 8.10846V15.8915Z" fill="currentColor"/>
</svg>
