<svg width="24" height="24" viewBox="0 0 24 24" fill="none" xmlns="http://www.w3.org/2000/svg">
<path fill-rule="evenodd" clip-rule="evenodd" d="M20 7.8284C20 7.29796 19.7893 6.78926 19.4143 6.41418L15.5858 2.58576C15.2108 2.21068 14.702 1.99997 14.1716 1.99997H6C4.89543 1.99997 4 2.8954 4 3.99997V20C4 21.1045 4.89543 22 6 22H18C19.1046 22 20 21.1045 20 20V7.8284ZM11 15.5C11 16.0523 11.4478 16.5 12 16.5C12.5523 16.5 13 16.0523 13 15.5V14H14.5C15.0523 14 15.5 13.5523 15.5 13C15.5 12.4477 15.0523 12 14.5 12H13V10.5C13 9.94769 12.5523 9.49997 12 9.49997C11.4478 9.49997 11 9.94769 11 10.5V12H9.5C8.94772 12 8.5 12.4477 8.5 13C8.5 13.5523 8.94772 14 9.5 14H11V15.5Z" fill="currentColor"/>
</svg>
