<svg width="24" height="24" viewBox="0 0 24 24" fill="none" xmlns="http://www.w3.org/2000/svg">
<path d="M12 16.5C11.4478 16.5 11 16.0523 11 15.5V14H9.5C8.94772 14 8.5 13.5523 8.5 13C8.5 12.4477 8.94772 12 9.5 12H11V10.5C11 9.94771 11.4478 9.5 12 9.5C12.5523 9.5 13 9.94771 13 10.5V12H14.5C14.5346 12 14.5687 12.0017 14.6023 12.0052C15.1065 12.0564 15.5 12.4822 15.5 13C15.5 13.5523 15.0523 14 14.5 14H13V15.5C13 16.0523 12.5523 16.5 12 16.5Z" fill="currentColor"/>
<path fill-rule="evenodd" clip-rule="evenodd" d="M19.4143 6.41422C19.7893 6.78929 20 7.298 20 7.82843V20C20 21.1046 19.1046 22 18 22H6C4.89543 22 4 21.1046 4 20V4C4 2.89543 4.89543 2 6 2H14.1716C14.702 2 15.2108 2.21071 15.5858 2.58578L19.4143 6.41422ZM18 7.82843V20H6V4H14.1716L18 7.82843Z" fill="currentColor"/>
</svg>
