<svg width="24" height="24" viewBox="0 0 24 24" fill="none" xmlns="http://www.w3.org/2000/svg">
<path fill-rule="evenodd" clip-rule="evenodd" d="M20 7.8284C20 7.29796 19.7893 6.78926 19.4142 6.41418L15.5858 2.58576C15.2107 2.21068 14.702 1.99997 14.1716 1.99997H6C4.89543 1.99997 4 2.8954 4 3.99997V20C4 21.1045 4.89543 22 6 22H18C19.1046 22 20 21.1045 20 20V7.8284ZM15.5 11C16.0523 11 16.5 10.5523 16.5 9.99997C16.5 9.44769 16.0523 8.99997 15.5 8.99997H8.5C7.94772 8.99997 7.5 9.44769 7.5 9.99997C7.5 10.5523 7.94772 11 8.5 11H15.5ZM8.5 15.5C7.94772 15.5 7.5 15.0523 7.5 14.5C7.5 13.9477 7.94772 13.5 8.5 13.5H13.5C14.0523 13.5 14.5 13.9477 14.5 14.5C14.5 15.0523 14.0523 15.5 13.5 15.5H8.5Z" fill="#272937"/>
</svg>
