<svg width="24" height="24" viewBox="0 0 24 24" fill="none" xmlns="http://www.w3.org/2000/svg">
<path d="M5 2C3.89543 2 3 2.89543 3 4V22C3 22.5523 3.44772 23 4 23C4.55229 23 5 22.5523 5 22V14.55H7.64151C7.73784 14.55 7.83405 14.5517 7.93009 14.5551C9.37076 14.6056 10.7747 15.0342 12 15.8C13.307 16.6169 14.8172 17.05 16.3585 17.05H19C20.1046 17.05 21 16.1546 21 15.05V6.5C21 5.39543 20.1046 4.5 19 4.5H16.3585C14.8172 4.5 13.307 4.06687 12 3.25C10.693 2.43313 9.18278 2 7.64151 2H5Z" fill="#272937"/>
</svg>
