<svg width="24" height="24" viewBox="0 0 24 24" fill="none" xmlns="http://www.w3.org/2000/svg">
<path fill-rule="evenodd" clip-rule="evenodd" d="M3 4C3 2.89543 3.89543 2 5 2H7.64151C9.18278 2 10.693 2.43313 12 3.25C13.307 4.06687 14.8172 4.5 16.3585 4.5H19C20.1046 4.5 21 5.39543 21 6.5V15.05C21 16.1546 20.1046 17.05 19 17.05H16.3585C14.8172 17.05 13.307 16.6169 12 15.8C10.693 14.9831 9.18278 14.55 7.64151 14.55H5V22C5 22.5523 4.55229 23 4 23C3.44772 23 3 22.5523 3 22V4ZM10.94 4.946C12.5649 5.96153 14.4424 6.5 16.3585 6.5H19V15.05H16.3585C15.1921 15.05 14.0491 14.7222 13.06 14.104C11.4352 13.0885 9.55762 12.55 7.64151 12.55H5V4H7.64151C8.80794 4 9.95088 4.32779 10.94 4.946Z" fill="#272937"/>
</svg>
