<svg width="24" height="24" viewBox="0 0 24 24" fill="none" xmlns="http://www.w3.org/2000/svg">
<path d="M7.1251 11.125C7.1251 11.6083 7.51685 12 8.0001 12C8.48335 12 8.8751 11.6083 8.8751 11.125V10.375H9.6251C10.1083 10.375 10.5001 9.98325 10.5001 9.5C10.5001 9.01675 10.1083 8.625 9.6251 8.625H8.8751V7.875C8.8751 7.39175 8.48335 7 8.0001 7C7.51685 7 7.1251 7.39175 7.1251 7.875V8.625H6.3751C5.89185 8.625 5.5001 9.01675 5.5001 9.5C5.5001 9.98325 5.89185 10.375 6.3751 10.375H7.1251V11.125Z" fill="currentColor"/>
<path d="M13.5001 9.5C13.5001 9.01675 13.8919 8.625 14.3751 8.625H17.6251C18.1083 8.625 18.5001 9.01675 18.5001 9.5C18.5001 9.98325 18.1083 10.375 17.6251 10.375H14.3751C13.8919 10.375 13.5001 9.98325 13.5001 9.5Z" fill="currentColor"/>
<path fill-rule="evenodd" clip-rule="evenodd" d="M1.61555 8.53002C1.86084 5.4082 4.46568 3 7.59712 3H16.403C19.5344 3 22.1393 5.4082 22.3846 8.53002L22.5001 10L23.1121 16.733C23.3205 19.0244 21.5163 21 19.2154 21C17.841 21 16.5674 20.2789 15.8603 19.1003L14.0001 16H10.0001L8.13986 19.1003C7.43273 20.2789 6.1591 21 4.78468 21C2.48384 21 0.679662 19.0244 0.88797 16.733L1.50006 10L1.61555 8.53002ZM3.49391 10.1567C3.49327 10.1648 3.49258 10.1729 3.49184 10.1811L2.87976 16.914C2.77792 18.0342 3.65991 19 4.78468 19C5.45657 19 6.07919 18.6475 6.42487 18.0713L8.28507 14.971C8.64652 14.3686 9.29753 14 10.0001 14H14.0001C14.7026 14 15.3536 14.3686 15.715 14.971L17.5752 18.0713C17.9209 18.6475 18.5435 19 19.2154 19C20.3402 19 21.2222 18.0342 21.1204 16.914L20.5083 10.1811C20.5075 10.1729 20.5068 10.1648 20.5062 10.1567L20.3907 8.68668C20.2272 6.60547 18.4906 5 16.403 5H7.59712C5.50949 5 3.77293 6.60547 3.60941 8.68668L3.49391 10.1567Z" fill="currentColor"/>
</svg>
