<svg width="24" height="24" viewBox="0 0 24 24" fill="none" xmlns="http://www.w3.org/2000/svg">
<path fill-rule="evenodd" clip-rule="evenodd" d="M12 4.06536C11.3015 2.9649 10.1861 2 8.5 2C6.567 2 5 3.567 5 5.5C5 7.433 6.567 9 8.5 9H4C2.89543 9 2 9.89543 2 11C2 12.1046 2.89543 13 4 13H11V9H13V13H20C21.1046 13 22 12.1046 22 11C22 9.89543 21.1046 9 20 9H15.5C17.433 9 19 7.433 19 5.5C19 3.567 17.433 2 15.5 2C13.8139 2 12.6985 2.9649 12 4.06536ZM7 5.5C7 6.32843 7.67157 7 8.5 7H10.9999C10.9998 6.99923 10.9996 6.99754 10.9993 6.99493C10.9952 6.95668 10.9713 6.73156 10.863 6.36811C10.7497 5.98795 10.5748 5.56236 10.3365 5.17711C9.86375 4.41287 9.2918 4 8.5 4C7.67157 4 7 4.67157 7 5.5ZM15.5 7C16.3284 7 17 6.32843 17 5.5C17 4.67157 16.3284 4 15.5 4C14.7082 4 14.1363 4.41287 13.6635 5.17711C13.4252 5.56236 13.2503 5.98795 13.1371 6.36811C13.0287 6.73156 13.0048 6.95639 13.0007 6.99464C13.0006 6.99594 13.0004 6.9973 13.0003 6.99814C13.0003 6.99899 13.0002 6.99961 13.0001 7H15.5Z" fill="#272937"/>
<path d="M6 22C4.89543 22 4 21.1046 4 20V15H11V22H6Z" fill="#272937"/>
<path d="M20 20C20 21.1046 19.1046 22 18 22H13V15H20V20Z" fill="#272937"/>
</svg>
