<svg width="24" height="24" viewBox="0 0 24 24" fill="none" xmlns="http://www.w3.org/2000/svg">
<path d="M14.071 19.652C14.5276 18.6556 14.9059 17.4147 15.1584 16H8.84163C9.09406 17.4147 9.47239 18.6556 9.92904 19.652C10.8577 21.6782 11.7358 21.9988 11.9986 22H12.0014C12.2642 21.9988 13.1423 21.6782 14.071 19.652Z" fill="#272937"/>
<path d="M15.419 21.4003C16.22 20.0116 16.8394 18.1459 17.187 16H21.1679C20.0767 18.4975 17.9948 20.4632 15.419 21.4003Z" fill="#272937"/>
<path d="M2.83209 16C3.9233 18.4975 6.00516 20.4632 8.58099 21.4003C7.78001 20.0116 7.16059 18.1459 6.81296 16H2.83209Z" fill="#272937"/>
<path d="M15.5 12C15.5 12.6876 15.4714 13.356 15.4176 14H8.58242C8.5286 13.356 8.5 12.6876 8.5 12C8.5 11.3124 8.5286 10.644 8.58242 10H15.4176C15.4714 10.644 15.5 11.3124 15.5 12Z" fill="#272937"/>
<path d="M6.5 12C6.5 11.3186 6.52603 10.6504 6.57605 10H2.20004C2.06886 10.6462 2 11.3151 2 12C2 12.6849 2.06886 13.3538 2.20004 14H6.57605C6.52603 13.3496 6.5 12.6814 6.5 12Z" fill="#272937"/>
<path d="M14.071 4.34803C14.5276 5.34436 14.9059 6.58534 15.1584 8H8.84163C9.09406 6.58534 9.47239 5.34436 9.92904 4.34803C10.8594 2.31814 11.739 2 12 2C12.261 2 13.1406 2.31814 14.071 4.34803Z" fill="#272937"/>
<path d="M6.81296 7.99999C7.16059 5.85413 7.78002 3.9884 8.58099 2.59973C6.00517 3.53681 3.9233 5.50246 2.83209 7.99999H6.81296Z" fill="#272937"/>
<path d="M17.187 7.99999C16.8394 5.85413 16.22 3.9884 15.419 2.59973C17.9948 3.53682 20.0767 5.50246 21.1679 7.99999H17.187Z" fill="#272937"/>
<path d="M22 12C22 11.3151 21.9311 10.6462 21.8 10H17.424C17.474 10.6504 17.5 11.3186 17.5 12C17.5 12.6814 17.474 13.3496 17.424 14H21.8C21.9311 13.3538 22 12.6849 22 12Z" fill="#272937"/>
</svg>
