<svg width="24" height="24" viewBox="0 0 24 24" fill="none" xmlns="http://www.w3.org/2000/svg">
<path d="M14.0709 19.652C14.8282 17.9996 15.3701 15.6744 15.4796 13H8.52029C8.62974 15.6744 9.17166 17.9996 9.92898 19.652C10.8577 21.6782 11.7357 21.9988 11.9985 22H12.0014C12.2642 21.9988 13.1422 21.6782 14.0709 19.652Z" fill="currentColor"/>
<path d="M15.419 21.4003C16.5748 19.3963 17.3526 16.399 17.4811 13H21.9506C21.565 16.883 18.9583 20.1126 15.419 21.4003Z" fill="currentColor"/>
<path d="M2.04932 13C2.43485 16.883 5.04157 20.1126 8.58093 21.4003C7.42508 19.3963 6.64729 16.399 6.51877 13H2.04932Z" fill="currentColor"/>
<path d="M14.0709 4.34803C14.8282 6.00038 15.3701 8.32564 15.4796 11H8.52029C8.62974 8.32564 9.17166 6.00038 9.92898 4.34803C10.8593 2.31814 11.7389 2 11.9999 2C12.261 2 13.1405 2.31814 14.0709 4.34803Z" fill="currentColor"/>
<path d="M6.51877 11C6.64729 7.60098 7.42508 4.60365 8.58094 2.59973C5.04157 3.88735 2.43485 7.11696 2.04932 11H6.51877Z" fill="currentColor"/>
<path d="M21.9506 11C21.565 7.11696 18.9583 3.88735 15.4189 2.59973C16.5748 4.60365 17.3526 7.60098 17.4811 11H21.9506Z" fill="currentColor"/>
</svg>
