<svg width="24" height="24" viewBox="0 0 24 24" fill="none" xmlns="http://www.w3.org/2000/svg">
<path fill-rule="evenodd" clip-rule="evenodd" d="M7.99634 12.4072C8.24056 12.4072 8.43816 12.6048 8.43816 12.8499V15.3107L10.2763 13.4735V10.1263C10.2763 9.88208 10.4758 9.68354 10.7181 9.68354C10.9642 9.68354 11.1627 9.88208 11.1627 10.1263V12.588L12.9999 10.7499V7.40267C12.9999 7.15846 13.1985 6.95992 13.4427 6.95992C13.6878 6.95992 13.8854 7.15846 13.8854 7.40267V9.86437L16.2586 7.49122C16.4319 7.31878 16.7116 7.31878 16.8849 7.49122C17.0583 7.66366 17.0583 7.94422 16.8849 8.1176L14.5127 10.4907H16.9735C17.2186 10.4907 17.4163 10.6893 17.4163 10.9335C17.4163 11.1777 17.2186 11.3763 16.9735 11.3763H13.6272L11.7891 13.2144H14.2508C14.495 13.2144 14.6936 13.4129 14.6936 13.6571C14.6936 13.9013 14.495 14.0999 14.2508 14.0999H10.9036L9.06547 15.938H11.5272C11.7714 15.938 11.9699 16.1365 11.9699 16.3808C11.9699 16.625 11.7714 16.8235 11.5272 16.8235H8.17997L7.32895 17.6745C8.46053 18.6588 9.89319 19.1967 11.4088 19.1967C13.0726 19.1967 14.6376 18.5488 15.813 17.3725C18.1508 15.0348 19.3998 11.2784 20.0345 8.53891C20.5463 6.33727 20.7532 4.42085 20.8287 3.54746C19.9553 3.62296 18.0389 3.83082 15.8373 4.34162C13.0978 4.97732 9.34231 6.22728 7.00458 8.56501C4.68176 10.8878 4.58016 14.6042 6.70257 17.0491L7.55359 16.1981V12.8509C7.55359 12.6057 7.7512 12.4081 7.99728 12.4081L7.99634 12.4072ZM3.75711 21.2454C3.67042 21.3312 3.55577 21.375 3.44392 21.375C3.3302 21.375 3.21741 21.3321 3.13073 21.2454C2.95642 21.0721 2.95642 20.7924 3.13073 20.6191L6.07526 17.6745C3.6089 14.8847 3.7105 10.6054 6.37727 7.93677C7.48182 6.83315 8.95921 5.86562 10.7666 5.06307C12.1983 4.4283 13.8416 3.89327 15.6518 3.47476C18.7249 2.76262 21.1829 2.6312 21.2854 2.6256C21.4103 2.61908 21.5324 2.66568 21.621 2.75423C21.7095 2.84372 21.7571 2.96489 21.7506 3.09073C21.745 3.19326 21.6135 5.6503 20.9014 8.72347C20.482 10.5336 19.9479 12.1769 19.3122 13.6087C18.5105 15.417 17.5439 16.8934 16.4385 17.998C15.0953 19.3421 13.3084 20.0812 11.4079 20.0812C9.65736 20.0812 8.00194 19.4521 6.69978 18.3018L3.75711 21.2454Z" fill="currentColor" stroke="currentColor" stroke-width="0.3"/>
</svg>
