<svg width="24" height="24" viewBox="0 0 24 24" fill="none" xmlns="http://www.w3.org/2000/svg">
<path d="M8.00792 3C8.00792 1.89543 8.90335 1 10.0079 1C11.1125 1 12.0079 1.89543 12.0079 3V8.00154L19.3063 9.50635C20.7003 9.79378 21.7005 11.0212 21.7005 12.4445V13H21.7079C21.7079 17.9706 17.5218 22 12.3579 22C8.68678 22 5.5098 19.9634 3.97982 17C3.94946 16.9412 3.91975 16.882 3.8907 16.8225L1.763 12.5743C1.62561 12.3 1.58792 11.9865 1.65638 11.6874C2.01322 10.1286 3.97374 9.61181 5.05262 10.7922L6.8772 12.7884C7.00044 12.9232 7.1747 13 7.35738 13C7.71667 13 8.00792 12.7087 8.00792 12.3495V3Z" fill="#272937"/>
</svg>
