<svg width="24" height="24" viewBox="0 0 24 24" fill="currentColor" xmlns="http://www.w3.org/2000/svg">
<path fill-rule="evenodd" clip-rule="evenodd" d="M2.10192 11.2152C2.92206 9.82598 4.64911 9.37918 6.00748 10.0569C6.26128 10.1835 6.50221 10.3494 6.72195 10.5557L7.99393 11.75H8.00748V4C8.00748 2.34315 9.35063 1 11.0075 1C12.6643 1 14.0075 2.34315 14.0075 4V8L19.4617 9.41667C20.7842 9.76018 21.7075 10.9539 21.7075 12.3203V13C21.7075 17.9706 17.5213 22 12.3575 22C8.68634 22 5.50935 19.9634 3.97938 17C3.94903 16.9412 3.91933 16.8821 3.89029 16.8226L2.03618 13.1206C1.73311 12.5155 1.75787 11.798 2.10192 11.2152ZM12.0075 8C12.0075 8.91092 12.623 9.70676 13.5047 9.93577L18.9589 11.3524C19.3997 11.4669 19.7075 11.8649 19.7075 12.3203V13C19.7075 16.7948 16.4894 20 12.3575 20C9.43418 20 6.94306 18.3807 5.75651 16.0825C5.73304 16.037 5.71007 15.9913 5.68762 15.9453C5.68462 15.9392 5.68159 15.933 5.67853 15.9269L3.8262 12.2285C4.14938 11.6859 4.89204 11.581 5.35295 12.0137L6.62494 13.208C6.99575 13.5562 7.48528 13.75 7.99393 13.75H8.00748C9.11205 13.75 10.0075 12.8546 10.0075 11.75V4C10.0075 3.44772 10.4552 3 11.0075 3C11.5598 3 12.0075 3.44772 12.0075 4V8Z" fill="currentColor"/>
</svg>
