<svg width="24" height="24" viewBox="0 0 24 24" fill="none" xmlns="http://www.w3.org/2000/svg">
<path fill-rule="evenodd" clip-rule="evenodd" d="M2.26351 9.53885C2.09083 9.84105 2 10.1831 2 10.5311V18C2 19.1046 2.89543 20 4 20H20C21.1046 20 22 19.1046 22 18V10.5311C22 10.1831 21.9092 9.84105 21.7365 9.53885L18.5758 4.00772C18.2198 3.38457 17.5571 3 16.8394 3H7.16065C6.44293 3 5.78025 3.38457 5.42416 4.00772L2.26351 9.53885ZM19.6965 10L16.8394 5H7.16065L4.3035 10H7.5C8.05229 10 8.4856 10.4568 8.64104 10.9868C9.06707 12.4393 10.4097 13.5 12 13.5C13.5903 13.5 14.9329 12.4393 15.359 10.9868C15.5144 10.4568 15.9477 10 16.5 10H19.6965ZM20 12H17.1244C16.3247 14.0472 14.3343 15.5 12 15.5C9.66574 15.5 7.67531 14.0472 6.87556 12H4V18H20V12Z" fill="#272937"/>
</svg>
