<svg width="24" height="24" viewBox="0 0 24 24" fill="none" xmlns="http://www.w3.org/2000/svg">
<path d="M5.42416 4.00772C5.78025 3.38457 6.44293 3 7.16065 3H16.8394C17.5571 3 18.2198 3.38457 18.5758 4.00772L21.7365 9.53885C21.8198 9.68457 21.884 9.83955 21.9282 10H16.5C15.9477 10 15.5144 10.4568 15.359 10.9868C14.9329 12.4393 13.5903 13.5 12 13.5C10.4097 13.5 9.06707 12.4393 8.64104 10.9868C8.4856 10.4568 8.05229 10 7.5 10H2.07181C2.11601 9.83955 2.18025 9.68457 2.26351 9.53885L5.42416 4.00772Z" fill="#272937"/>
<path d="M12 15.5C14.3343 15.5 16.3247 14.0472 17.1244 12H22V18C22 19.1046 21.1046 20 20 20H4C2.89543 20 2 19.1046 2 18V12H6.87556C7.67531 14.0472 9.66574 15.5 12 15.5Z" fill="#272937"/>
</svg>
