<svg width="24" height="24" viewBox="0 0 24 24" fill="none" xmlns="http://www.w3.org/2000/svg">
<path fill-rule="evenodd" clip-rule="evenodd" d="M3 6C1.34315 6 0 7.34315 0 9L2.84124e-07 15C3.56548e-07 16.6569 1.34315 18 3 18H9C10.6569 18 12 16.6569 12 15V14H17V16C17 16.5523 17.4477 17 18 17H20C20.5523 17 21 16.5523 21 16V14H23C23.5523 14 24 13.5523 24 13V11C24 10.4477 23.5523 10 23 10H12V9C12 7.34315 10.6569 6 9 6H3ZM7.5 12C7.5 11.1716 6.82843 10.5 6 10.5C5.17157 10.5 4.5 11.1716 4.5 12C4.5 12.8284 5.17157 13.5 6 13.5C6.82843 13.5 7.5 12.8284 7.5 12Z" fill="#272937"/>
</svg>
