<svg width="24" height="24" viewBox="0 0 24 24" fill="none" xmlns="http://www.w3.org/2000/svg">
<path d="M11.5568 2.25C6.41587 2.25 2.25 6.41592 2.25 11.5568C2.25 16.6977 6.41587 20.8636 11.5568 20.8636C11.7784 20.8636 11.9956 20.8548 12.2127 20.837C11.4944 19.8044 11.1107 18.576 11.1136 17.3182C11.1139 15.6727 11.7677 14.0947 12.9312 12.9312C14.0947 11.7677 15.6727 11.1139 17.3182 11.1136C18.576 11.1108 19.8044 11.4944 20.837 12.2127C20.8548 11.9956 20.8636 11.7784 20.8636 11.5568C20.8636 6.41592 16.6978 2.25 11.5568 2.25ZM12.4432 11.5568C12.4432 11.7919 12.3498 12.0173 12.1836 12.1836C12.0173 12.3498 11.7919 12.4432 11.5568 12.4432H7.56817C7.33414 12.4416 7.11025 12.3475 6.94533 12.1814C6.78041 12.0154 6.68785 11.7909 6.68785 11.5568C6.68785 11.3228 6.78041 11.0983 6.94533 10.9322C7.11025 10.7661 7.33414 10.6721 7.56817 10.6705H10.6705V5.79548C10.6697 5.67857 10.692 5.56265 10.7362 5.45441C10.7804 5.34617 10.8455 5.24774 10.9279 5.16478C11.0103 5.08183 11.1083 5.016 11.2162 4.97107C11.3242 4.92615 11.4399 4.90302 11.5568 4.90302C11.6737 4.90302 11.7895 4.92615 11.8974 4.97107C12.0054 5.016 12.1033 5.08183 12.1857 5.16478C12.2681 5.24774 12.3333 5.34617 12.3775 5.45441C12.4217 5.56265 12.444 5.67857 12.4432 5.79548V11.5568Z" fill="currentColor"/>
<path d="M17.3181 12.8862C16.4415 12.8862 15.5847 13.1462 14.8559 13.6331C14.1271 14.1201 13.559 14.8123 13.2236 15.6221C12.8882 16.4319 12.8004 17.323 12.9714 18.1827C13.1424 19.0424 13.5645 19.832 14.1843 20.4518C14.8041 21.0716 15.5938 21.4937 16.4535 21.6647C17.3131 21.8357 18.2042 21.748 19.014 21.4125C19.8239 21.0771 20.516 20.5091 21.003 19.7802C21.49 19.0514 21.7499 18.1946 21.7499 17.3181C21.7499 16.7361 21.6353 16.1598 21.4125 15.6221C21.1898 15.0844 20.8634 14.5958 20.4518 14.1843C20.0403 13.7727 19.5517 13.4463 19.0141 13.2236C18.4764 13.0009 17.9001 12.8862 17.3181 12.8862ZM17.3181 20.4203C17.1427 20.4203 16.9714 20.3684 16.8256 20.271C16.6798 20.1736 16.5662 20.0351 16.4991 19.8732C16.432 19.7112 16.4145 19.533 16.4487 19.361C16.4828 19.1891 16.5673 19.0312 16.6912 18.9072C16.8152 18.7832 16.9731 18.6988 17.1451 18.6646C17.317 18.6304 17.4952 18.6479 17.6572 18.715C17.8192 18.7821 17.9576 18.8957 18.055 19.0415C18.1524 19.1873 18.2044 19.3586 18.2044 19.5339C18.2044 19.769 18.111 19.9945 17.9448 20.1607C17.7786 20.3269 17.5531 20.4203 17.3181 20.4203ZM18.2044 17.3181C18.2044 17.5531 18.111 17.7786 17.9448 17.9448C17.7786 18.111 17.5531 18.2044 17.3181 18.2044C17.083 18.2044 16.8575 18.111 16.6913 17.9448C16.5251 17.7786 16.4317 17.5531 16.4317 17.3181V15.1022C16.4317 14.8671 16.5251 14.6416 16.6913 14.4754C16.8575 14.3092 17.083 14.2158 17.3181 14.2158C17.5531 14.2158 17.7786 14.3092 17.9448 14.4754C18.111 14.6416 18.2044 14.8671 18.2044 15.1022V17.3181Z" fill="currentColor"/>
</svg>
