<svg width="24" height="24" viewBox="0 0 24 24" fill="currentColor" xmlns="http://www.w3.org/2000/svg">
<path fill-rule="evenodd" clip-rule="evenodd" d="M17.1631 15.111C16.4902 15.6802 16 16.4725 16 17.3539C16 18.263 15.263 19 14.3539 19H9.64609C8.73698 19 8 18.263 8 17.3539C8 16.4725 7.50985 15.6802 6.83686 15.111C5.10173 13.6436 4 11.4504 4 9C4 4.58172 7.58172 1 12 1C16.4183 1 20 4.58172 20 9C20 11.4504 18.8983 13.6436 17.1631 15.111ZM12.3549 3.51147C11.8038 3.47583 11.3281 3.89372 11.2925 4.44485C11.2568 4.99598 11.6747 5.47166 12.2259 5.5073C13.0764 5.5623 13.8776 5.92574 14.4792 6.52945C15.0808 7.13316 15.4414 7.93564 15.4935 8.78633C15.5272 9.33759 16.0014 9.75713 16.5527 9.72342C17.1039 9.6897 17.5235 9.21549 17.4897 8.66424C17.408 7.32743 16.8412 6.06639 15.8959 5.11771C14.9505 4.16903 13.6914 3.59789 12.3549 3.51147Z" fill="currentColor"/>
<path d="M9 21C8.44772 21 8 21.4477 8 22C8 22.5523 8.44772 23 9 23H15C15.5523 23 16 22.5523 16 22C16 21.4477 15.5523 21 15 21H9Z" fill="currentColor"/>
</svg>
