<svg width="24" height="24" viewBox="0 0 24 24" fill="none" xmlns="http://www.w3.org/2000/svg">
<g clip-path="url(#clip0_10_260)">
<path d="M2 6C2 5.44772 2.44772 5 3 5H16C16.5523 5 17 5.44772 17 6C17 6.55228 16.5523 7 16 7H3C2.44772 7 2 6.55228 2 6Z" fill="#272937"/>
<path d="M3.00007 10C2.44779 10 2.00007 10.4477 2.00007 11C2.00007 11.5523 2.44779 12 3.00007 12H16.0001C16.5524 12 17.0001 11.5523 17.0001 11C17.0001 10.4477 16.5524 10 16.0001 10H3.00007Z" fill="#272937"/>
<path d="M2.00007 16C2.00007 15.4477 2.44779 15 3.00007 15H13.0001C13.5524 15 14.0001 15.4477 14.0001 16C14.0001 16.5523 13.5524 17 13.0001 17H3.00007C2.44779 17 2.00007 16.5523 2.00007 16Z" fill="#272937"/>
<path d="M20.0001 20C19.4478 20 19.0001 19.5523 19.0001 19V17H17.0001C16.4478 17 16.0001 16.5523 16.0001 16C16.0001 15.4477 16.4478 15 17.0001 15H19.0001V13C19.0001 12.4477 19.4478 12 20.0001 12C20.5524 12 21.0001 12.4477 21.0001 13V15H23.0001C23.5524 15 24.0001 15.4477 24.0001 16C24.0001 16.5523 23.5524 17 23.0001 17H21.0001V19C21.0001 19.5523 20.5524 20 20.0001 20Z" fill="#272937"/>
</g>
<defs>
<clipPath id="clip0_10_260">
<rect width="24" height="24" fill="white"/>
</clipPath>
</defs>
</svg>
