<svg width="24" height="24" viewBox="0 0 24 24" fill="none" xmlns="http://www.w3.org/2000/svg">
<path fill-rule="evenodd" clip-rule="evenodd" d="M18.9998 8C18.9998 12.1275 14.3493 16.8345 12.6294 18.4341C12.2711 18.7673 11.7285 18.7673 11.3702 18.4341C9.65034 16.8345 4.99982 12.1275 4.99982 8C4.99982 4.11 8.13382 1 11.9998 1C15.8658 1 18.9998 4.11 18.9998 8ZM11.9998 10.5C13.3805 10.5 14.4998 9.38071 14.4998 8C14.4998 6.61929 13.3805 5.5 11.9998 5.5C10.6191 5.5 9.49982 6.61929 9.49982 8C9.49982 9.38071 10.6191 10.5 11.9998 10.5Z" fill="currentColor"/>
<path d="M5.88816 15.3239C5.42322 14.8589 4.64379 14.9616 4.31503 15.531L1.30183 20.75C0.724484 21.75 1.44617 23 2.60087 23H21.4017C22.5564 23 23.2781 21.75 22.7008 20.75L19.6865 15.5291C19.3577 14.9597 18.5783 14.8571 18.1133 15.322C17.7933 15.642 17.7281 16.1371 17.9544 16.5291L20.5357 21H3.4669L6.04708 16.531C6.27338 16.139 6.2082 15.6439 5.88816 15.3239Z" fill="currentColor"/>
</svg>
