<svg width="24" height="24" viewBox="0 0 24 24" fill="none" xmlns="http://www.w3.org/2000/svg">
<path d="M12 16.5C12.8284 16.5 13.5 15.8284 13.5 15C13.5 14.1716 12.8284 13.5 12 13.5C11.1716 13.5 10.5 14.1716 10.5 15C10.5 15.8284 11.1716 16.5 12 16.5Z" fill="currentColor"/>
<path fill-rule="evenodd" clip-rule="evenodd" d="M12 1C9.23858 1 7 3.23858 7 6V9L5 9.00003C3.89543 9.00003 3 9.89546 3 11V19C3 20.1046 3.89543 21 5 21H19C20.1046 21 21 20.1046 21 19V11C21 9.89546 20.1046 9.00003 19 9.00003H17V6C17 3.23858 14.7614 1 12 1ZM12 3C10.3431 3 9 4.34315 9 6V9H15V6C15 4.34315 13.6569 3 12 3ZM5 11V19H19V11H5Z" fill="currentColor"/>
</svg>
