<svg width="24" height="24" viewBox="0 0 24 24" fill="currentColor" xmlns="http://www.w3.org/2000/svg">
<path fill-rule="evenodd" clip-rule="evenodd" d="M16 6.5C15.4477 6.5 15 6.05229 15 5.5V5C15 3.34315 13.6569 2 12 2C10.3431 2 9 3.34315 9 5V9L19 9.00003C20.1046 9.00003 21 9.89546 21 11V19C21 20.1046 20.1046 21 19 21H5C3.89543 21 3 20.1046 3 19V11C3 9.89546 3.89543 9.00003 5 9.00003H7V5C7 2.23858 9.23858 0 12 0C14.7614 0 17 2.23858 17 5V5.5C17 6.05229 16.5523 6.5 16 6.5ZM12 16.5C12.8284 16.5 13.5 15.8285 13.5 15C13.5 14.1716 12.8284 13.5 12 13.5C11.1716 13.5 10.5 14.1716 10.5 15C10.5 15.8285 11.1716 16.5 12 16.5Z" fill="currentColor"/>
</svg>
