<svg width="24" height="24" viewBox="0 0 24 24" fill="none" xmlns="http://www.w3.org/2000/svg">
<path d="M5 15C2.79086 15 1 13.2091 1 11C1 8.79086 2.79086 7 5 7H7.10717C10.2894 7 13.392 6.00571 15.9815 4.1561L18.605 2.28212C18.8619 2.09864 19.1697 2 19.4854 2C20.3219 2 21 2.67812 21 3.51462V18.4854C21 19.3219 20.3219 20 19.4854 20C19.1697 20 18.8619 19.9014 18.605 19.7179L15.9815 17.8439C14.4675 16.7625 12.7782 15.9735 11 15.5046V18.3453C11 19.0598 10.6188 19.7201 10 20.0773L8.94705 20.6853C8.87342 20.7278 8.79728 20.7598 8.72014 20.7819C8.18017 20.9366 7.59111 20.6077 7.4685 20.0253L6.41055 15H5Z" fill="currentColor"/>
</svg>
