<svg width="24" height="24" viewBox="0 0 24 24" fill="currentColor" xmlns="http://www.w3.org/2000/svg">
<path fill-rule="evenodd" clip-rule="evenodd" d="M8.27376 19.0553C8.55471 19.0189 8.84021 19.0425 9.11135 19.1246L14.8887 20.8753C15.1598 20.9575 15.4453 20.9811 15.7262 20.9446L21.2576 20.2263C22.2542 20.0968 23 19.2479 23 18.2429V6.27653C23 5.06969 21.9392 4.13776 20.7424 4.29319L15.7262 4.94464C15.4453 4.98113 15.1598 4.95751 14.8887 4.87534L9.11135 3.12465C8.84021 3.04248 8.55471 3.01886 8.27376 3.05535L2.74242 3.77371C1.7458 3.90314 1 4.75205 1 5.75705V17.7234C1 18.9303 2.06078 19.8622 3.25758 19.7068L8.27376 19.0553ZM9.7 5.39284L14.3 6.78677V18.6071L9.7 17.2132V5.39284ZM7.7 5.14666L3 5.75705V17.7234L7.7 17.1131V5.14666ZM16.3 18.8533L21 18.2429V6.27653L16.3 6.88692V18.8533Z" fill="currentColor"/>
</svg>
