<svg width="24" height="24" viewBox="0 0 24 24" fill="currentColor" xmlns="http://www.w3.org/2000/svg">
<path fill-rule="evenodd" clip-rule="evenodd" d="M14.8887 4.87534L9.11135 3.12465C8.84021 3.04248 8.55471 3.01886 8.27376 3.05535L1.87121 3.88685C1.3729 3.95157 1 4.37603 1 4.87852V18.8617C1 19.4651 1.53039 19.9311 2.12879 19.8534L8.27376 19.0554C8.55471 19.0189 8.84021 19.0425 9.11135 19.1246L14.8887 20.8753C15.1598 20.9575 15.4453 20.9811 15.7262 20.9446L22.1288 20.1131C22.6271 20.0484 23 19.624 23 19.1215V5.13826C23 4.53484 22.4696 4.06888 21.8712 4.14659L15.7262 4.94464C15.4453 4.98113 15.1598 4.95751 14.8887 4.87534ZM8.7 5.125L15.3 7.11327V18.875L8.7 16.8867V5.125Z" fill="currentColor"/>
</svg>
