<svg width="24" height="24" viewBox="0 0 24 24" fill="currentColor" xmlns="http://www.w3.org/2000/svg">
<path fill-rule="evenodd" clip-rule="evenodd" d="M3.41414 2.99999C3.02361 2.60946 2.39045 2.60946 1.99992 2.99999C1.6094 3.39051 1.6094 4.02368 1.99992 4.4142L7.99995 10.4142V12C7.99995 14.2091 9.79081 16 11.9999 16C12.4743 16 12.9294 15.9174 13.3516 15.7659L14.861 17.2752C14.0106 17.7374 13.0359 18 11.9999 18C9.02695 18 6.55898 15.8377 6.08291 13C6.02835 12.6748 5.99995 12.3407 5.99995 12C5.99995 11.4477 5.55223 11 4.99995 11C4.44766 11 3.99995 11.4477 3.99995 12C3.99995 16.0796 7.05364 19.446 10.9999 19.9381V22C10.9999 22.5523 11.4477 23 11.9999 23C12.5522 23 12.9999 22.5523 12.9999 22V19.9381C14.2117 19.787 15.3393 19.3649 16.3201 18.7344L19.5857 22C19.9762 22.3905 20.6094 22.3905 20.9999 22C21.3905 21.6095 21.3905 20.9763 20.9999 20.5858L3.41414 2.99999ZM15.0279 14.6138L17.8602 17.4459L15.0279 14.6138Z" fill="currentColor"/>
<path d="M19.042 15.7993L17.5431 14.3004C17.7144 13.8882 17.841 13.4527 17.917 13C17.9715 12.6748 17.9999 12.3407 17.9999 12C17.9999 11.4477 18.4477 11 18.9999 11C19.5522 11 19.9999 11.4477 19.9999 12C19.9999 13.375 19.653 14.6691 19.042 15.7993Z" fill="currentColor"/>
<path d="M15.9395 12.6968L8.00679 4.76411C8.12887 2.66477 9.87 1 11.9999 1C14.2091 1 15.9999 2.79086 15.9999 5V12C15.9999 12.2377 15.9792 12.4705 15.9395 12.6968Z" fill="currentColor"/>
</svg>
