<svg width="24" height="24" viewBox="0 0 24 24" fill="none" xmlns="http://www.w3.org/2000/svg">
<path d="M3.41414 3.00005C3.02361 2.60952 2.39045 2.60952 1.99992 3.00005C1.6094 3.39057 1.6094 4.02373 1.99992 4.41426L7.99985 10.4142V12C7.99985 14.2091 9.79071 16 11.9999 16C12.4742 16 12.9293 15.9174 13.3515 15.7659L14.8609 17.2752C14.0105 17.7374 13.0358 18 11.9998 18C9.02685 18 6.55889 15.8377 6.08281 13C6.02825 12.6748 5.99985 12.3407 5.99985 12C5.99985 11.4477 5.55213 11 4.99985 11C4.44756 11 3.99985 11.4477 3.99985 12C3.99985 16.0796 7.05354 19.446 10.9998 19.9381V22C10.9998 22.5523 11.4476 23 11.9998 23C12.5521 23 12.9998 22.5523 12.9998 22V19.9381C14.2116 19.787 15.3392 19.3649 16.32 18.7344L19.5857 22.0001C19.9762 22.3906 20.6094 22.3906 20.9999 22.0001C21.3905 21.6096 21.3905 20.9764 20.9999 20.5859L3.41414 3.00005Z" fill="#272937"/>
<path d="M13.9999 10.7573V5C13.9999 3.89543 13.1044 3 11.9999 3C10.8953 3 9.99985 3.89543 9.99985 5V6.75727L8.00669 4.76411C8.12878 2.66477 9.8699 1 11.9999 1C14.209 1 15.9999 2.79086 15.9999 5V12C15.9999 12.2377 15.9791 12.4705 15.9394 12.6968L13.9999 10.7573Z" fill="#272937"/>
<path d="M19.0419 15.7993L17.543 14.3004C17.7143 13.8882 17.8409 13.4527 17.9169 13C17.9715 12.6748 17.9999 12.3407 17.9999 12C17.9999 11.4477 18.4476 11 18.9999 11C19.5521 11 19.9999 11.4477 19.9999 12C19.9999 13.375 19.6529 14.6691 19.0419 15.7993Z" fill="#272937"/>
</svg>
