<svg width="24" height="24" viewBox="0 0 24 24" fill="none" xmlns="http://www.w3.org/2000/svg">
<path d="M12 1C9.79086 1 8 2.79086 8 5V12C8 14.2091 9.79086 16 12 16C14.2091 16 16 14.2091 16 12V5C16 2.79086 14.2091 1 12 1Z" fill="#272937"/>
<path d="M5 11C4.44772 11 4 11.4477 4 12C4 16.0796 7.05369 19.446 11 19.9381V22C11 22.5523 11.4477 23 12 23C12.5523 23 13 22.5523 13 22V19.9381C16.9463 19.446 20 16.0796 20 12C20 11.4477 19.5523 11 19 11C18.4477 11 18 11.4477 18 12C18 12.3407 17.9716 12.6748 17.917 13C17.441 15.8377 14.973 18 12 18C9.027 18 6.55904 15.8377 6.08296 13C6.0284 12.6748 6 12.3407 6 12C6 11.4477 5.55228 11 5 11Z" fill="#272937"/>
</svg>
