<svg width="24" height="24" viewBox="0 0 24 24" fill="none" xmlns="http://www.w3.org/2000/svg">
<path d="M12 9.5C13.1046 9.5 14 8.60457 14 7.5C14 6.39543 13.1046 5.5 12 5.5C10.8954 5.5 10 6.39543 10 7.5C10 8.60457 10.8954 9.5 12 9.5Z" fill="#272937"/>
<path fill-rule="evenodd" clip-rule="evenodd" d="M4 2C2.89543 2 2 2.89543 2 4V11C2 12.1046 2.89543 13 4 13H20C21.1046 13 22 12.1046 22 11V4C22 2.89543 21.1046 2 20 2H4ZM4 4V11H20V4H4Z" fill="#272937"/>
<path d="M22 21C22 21.5523 21.5523 22 21 22H3C2.44772 22 2 21.5523 2 21C2 20.4477 2.44772 20 3 20H21C21.5523 20 22 20.4477 22 21Z" fill="#272937"/>
<path d="M22 16.5C22 17.0523 21.5523 17.5 21 17.5H3C2.44772 17.5 2 17.0523 2 16.5C2 15.9477 2.44772 15.5 3 15.5H21C21.5523 15.5 22 15.9477 22 16.5Z" fill="#272937"/>
</svg>
