<svg width="24" height="24" viewBox="0 0 24 24" fill="currentColor" xmlns="http://www.w3.org/2000/svg">
<path fill-rule="evenodd" clip-rule="evenodd" d="M4 2C2.89543 2 2 2.89543 2 4V11C2 12.1046 2.89543 13 4 13H20C21.1046 13 22 12.1046 22 11V4C22 2.89543 21.1046 2 20 2H4ZM12 10C13.3807 10 14.5 8.88071 14.5 7.5C14.5 6.11929 13.3807 5 12 5C10.6193 5 9.5 6.11929 9.5 7.5C9.5 8.88071 10.6193 10 12 10Z" fill="currentColor"/>
<path d="M22 16.5C22 17.0523 21.5523 17.5 21 17.5H3C2.44772 17.5 2 17.0523 2 16.5C2 15.9477 2.44772 15.5 3 15.5H21C21.5523 15.5 22 15.9477 22 16.5Z" fill="currentColor"/>
<path d="M21 22C21.5523 22 22 21.5523 22 21C22 20.4477 21.5523 20 21 20H3C2.44772 20 2 20.4477 2 21C2 21.5523 2.44772 22 3 22H21Z" fill="currentColor"/>
</svg>
