<svg width="24" height="24" viewBox="0 0 24 24" fill="currentColor" xmlns="http://www.w3.org/2000/svg">
<path fill-rule="evenodd" clip-rule="evenodd" d="M22 12C22 17.5228 17.5228 22 12 22C6.47715 22 2 17.5228 2 12C2 6.47715 6.47715 2 12 2C17.5228 2 22 6.47715 22 12ZM10.5 10C10.5 10.8284 9.82843 11.5 9 11.5C8.17157 11.5 7.5 10.8284 7.5 10C7.5 9.17157 8.17157 8.5 9 8.5C9.82843 8.5 10.5 9.17157 10.5 10ZM15 11.5C15.8284 11.5 16.5 10.8284 16.5 10C16.5 9.17157 15.8284 8.5 15 8.5C14.1716 8.5 13.5 9.17157 13.5 10C13.5 10.8284 14.1716 11.5 15 11.5ZM15.7422 16.5C15.2833 16.8072 14.6687 16.6693 14.2452 16.3148C13.637 15.8055 12.8541 15.5 12 15.5C11.1459 15.5 10.363 15.8055 9.75477 16.3148C9.33132 16.6693 8.71672 16.8072 8.25777 16.5C7.79882 16.1928 7.67027 15.5636 8.05518 15.1676C9.05371 14.1401 10.452 13.5 12 13.5C13.548 13.5 14.9463 14.1401 15.9448 15.1676C16.3297 15.5636 16.2012 16.1928 15.7422 16.5Z" fill="currentColor"/>
</svg>
