<svg width="24" height="24" viewBox="0 0 24 24" fill="none" xmlns="http://www.w3.org/2000/svg">
<path d="M11 7C11 6.44772 11.4477 6 12 6C12.5523 6 13 6.44772 13 7V10C13 10.5523 12.5523 11 12 11C11.4477 11 11 10.5523 11 10V7Z" fill="#272937"/>
<path fill-rule="evenodd" clip-rule="evenodd" d="M5 7C5 4.23858 7.23858 2 10 2H14C16.7614 2 19 4.23858 19 7V15C19 18.866 15.866 22 12 22C8.13401 22 5 18.866 5 15V7ZM7 7C7 5.34315 8.34315 4 10 4H14C15.6569 4 17 5.34315 17 7V15C17 17.7614 14.7614 20 12 20C9.23858 20 7 17.7614 7 15V7Z" fill="#272937"/>
</svg>
