<svg width="24" height="24" viewBox="0 0 24 24" fill="none" xmlns="http://www.w3.org/2000/svg">
<path fill-rule="evenodd" clip-rule="evenodd" d="M7 15.5352C6.41165 15.1948 5.72858 15 5 15C2.79086 15 1 16.7909 1 19C1 21.2092 2.79086 23 5 23C7.20914 23 9 21.2092 9 19V10.5715L19 8.42862V13.5352C18.4117 13.1948 17.7286 13 17 13C14.7909 13 13 14.7909 13 17C13 19.2092 14.7909 21 17 21C19.2091 21 21 19.2092 21 17V3.47403C21 2.20074 19.826 1.25163 18.5809 1.51843L8.58094 3.66128C7.6588 3.85888 7 4.67381 7 5.61688V15.5352ZM17 15C18.1046 15 19 15.8955 19 17C19 18.1046 18.1046 19 17 19C15.8954 19 15 18.1046 15 17C15 15.8955 15.8954 15 17 15ZM9 8.52608L19 6.38322V3.47403L9 5.61688V8.52608ZM5 17C3.89543 17 3 17.8955 3 19C3 20.1046 3.89543 21 5 21C6.10457 21 7 20.1046 7 19C7 17.8955 6.10457 17 5 17Z" fill="#272937"/>
</svg>
