<svg width="24" height="24" viewBox="0 0 24 24" fill="currentColor" xmlns="http://www.w3.org/2000/svg">
<path d="M4.8069 2C3.98001 2.00381 3.19566 2.3671 2.65797 2.99532C2.21357 3.51456 1.96206 4.17697 2.00467 4.85909C2.27326 9.15824 4.04992 13.3803 7.33479 16.6652C10.6197 19.9501 14.8418 21.7267 19.1409 21.9953C19.823 22.0379 20.4854 21.7864 21.0047 21.342C21.6329 20.8043 21.9962 20.02 22 19.1931V17.1789C22 16.2614 21.3758 15.4616 20.4858 15.2388L17.3832 14.4618C16.8619 14.3313 16.3101 14.416 15.852 14.6968L13.5444 16.1115C13.2049 16.3197 12.7731 16.3078 12.46 16.0618C11.6576 15.4315 10.6953 14.5582 10.0685 13.9315C9.44178 13.3047 8.56849 12.3424 7.93822 11.54C7.69221 11.2269 7.68033 10.7951 7.88847 10.4556L9.30315 8.14796C9.58398 7.68988 9.66868 7.13806 9.53816 6.61684L8.76124 3.51419C8.53838 2.62421 7.73859 2 6.82114 2H4.8069Z" fill="currentColor"/>
</svg>
