<svg width="24" height="24" viewBox="0 0 24 24" fill="none" xmlns="http://www.w3.org/2000/svg">
<path d="M5 3C5 2.44772 5.44772 2 6 2H18C18.5523 2 19 2.44772 19 3C19 3.55228 18.5523 4 18 4H6C5.44772 4 5 3.55228 5 3Z" fill="#272937"/>
<path d="M10.15 15.2608C10.15 15.7227 10.65 16.0113 11.05 15.7804L14.0999 14.0196C14.1499 13.9908 14.1937 13.9565 14.2312 13.9181C14.4937 13.6498 14.45 13.1824 14.0999 12.9804L11.05 11.2196C10.65 10.9887 10.15 11.2773 10.15 11.7392V15.2608Z" fill="#272937"/>
<path fill-rule="evenodd" clip-rule="evenodd" d="M2 8C2 6.89543 2.89543 6 4 6H20C21.1046 6 22 6.89543 22 8V19C22 20.1046 21.1046 21 20 21H4C2.89543 21 2 20.1046 2 19V8ZM4 19V8H20V19H4Z" fill="#272937"/>
</svg>
