<svg width="24" height="24" viewBox="0 0 24 24" fill="none" xmlns="http://www.w3.org/2000/svg">
<path d="M3 6C3 5.44772 3.44772 5 4 5H17C17.5523 5 18 5.44772 18 6C18 6.55229 17.5523 7 17 7H4C3.44772 7 3 6.55229 3 6Z" fill="#272937"/>
<path d="M4.00011 10C3.44782 10 3.00011 10.4477 3.00011 11C3.00011 11.5523 3.44782 12 4.00011 12H17.0001C17.5524 12 18.0001 11.5523 18.0001 11C18.0001 10.4477 17.5524 10 17.0001 10H4.00011Z" fill="#272937"/>
<path d="M3.00011 16C3.00011 15.4477 3.44782 15 4.00011 15H14.0001C14.5524 15 15.0001 15.4477 15.0001 16C15.0001 16.5523 14.5524 17 14.0001 17H4.00011C3.44782 17 3.00011 16.5523 3.00011 16Z" fill="#272937"/>
<path d="M17.0072 20.813C17.0774 21.3261 17.6535 21.6267 18.1222 21.3588L22.8605 18.6512C23.3644 18.3633 23.3644 17.6367 22.8605 17.3488L18.1222 14.6412C17.6222 14.3555 17.0001 14.7165 17.0001 15.2924V20.7076C17.0001 20.7436 17.0025 20.7788 17.0072 20.813Z" fill="#272937"/>
</svg>
