<svg width="24" height="24" viewBox="0 0 24 24" fill="currentColor" xmlns="http://www.w3.org/2000/svg">
<path fill-rule="evenodd" clip-rule="evenodd" d="M7 2C6.44772 2 6 2.44772 6 3V7H5C3.34315 7 2 8.34315 2 10V17C2 18.1046 2.89543 19 4 19H6V21C6 21.5523 6.44772 22 7 22H17C17.5523 22 18 21.5523 18 21V19H20C21.1046 19 22 18.1046 22 17V10C22 8.34315 20.6569 7 19 7H18V3C18 2.44772 17.5523 2 17 2H7ZM16 7V4H8V7H16ZM16 16.5H8V20H16V16.5ZM17.5 12.75C18.1904 12.75 18.75 12.1904 18.75 11.5C18.75 10.8096 18.1904 10.25 17.5 10.25C16.8096 10.25 16.25 10.8096 16.25 11.5C16.25 12.1904 16.8096 12.75 17.5 12.75Z" fill="currentColor"/>
</svg>
