<svg width="24" height="24" viewBox="0 0 24 24" fill="none" xmlns="http://www.w3.org/2000/svg">
<path fill-rule="evenodd" clip-rule="evenodd" d="M13.5 21C13.5 21.4652 13.8144 22 14.2796 22H18C19.1046 22 20 21.1046 20 20V16.9646C20.1633 16.9879 20.3302 17 20.5 17C20.6698 17 20.8367 16.9879 21 16.9646C22.6962 16.7219 24 15.2632 24 13.5C24 11.7368 22.6962 10.2781 21 10.0354C20.8367 10.0121 20.6698 10 20.5 10C20.3302 10 20.1633 10.0121 20 10.0354V7C20 5.89543 19.1046 5 18 5H14.9646C14.9879 4.8367 15 4.66976 15 4.5C15 4.33024 14.9879 4.1633 14.9646 4C14.7219 2.30385 13.2632 1 11.5 1C9.73676 1 8.27806 2.30385 8.03545 4C8.01209 4.1633 8 4.33024 8 4.5C8 4.66976 8.01209 4.8367 8.03545 5H5C3.89543 5 3 5.89543 3 7V10.7204C3 11.1856 3.53481 11.5 4 11.5C4.36429 11.5 4.70583 11.5974 5 11.7676C5.5978 12.1134 6 12.7597 6 13.5C6 14.2403 5.5978 14.8866 5 15.2324C4.70583 15.4026 4.36429 15.5 4 15.5C3.53481 15.5 3 15.8144 3 16.2796V20C3 21.1046 3.89543 22 5 22H8.72038C9.18557 22 9.5 21.4652 9.5 21C9.5 20.6357 9.5974 20.2942 9.76757 20C10.1134 19.4022 10.7597 19 11.5 19C12.2403 19 12.8866 19.4022 13.2324 20C13.4026 20.2942 13.5 20.6357 13.5 21ZM12.8214 5.8584C12.7352 6.46089 13.2027 7 13.8113 7H18V11.1887C18 11.7973 18.5391 12.2648 19.1416 12.1786L20.2832 12.0153C20.353 12.0053 20.4253 12 20.5 12C21.3284 12 22 12.6716 22 13.5C22 14.3284 21.3284 15 20.5 15C20.4253 15 20.353 14.9947 20.2832 14.9847L19.1416 14.8214C18.5391 14.7352 18 15.2027 18 15.8113V20H15.374C14.9299 18.2748 13.3638 17 11.5 17C9.63616 17 8.07006 18.2748 7.62602 20H5V17.374C6.72523 16.9299 8 15.3638 8 13.5C8 11.6362 6.72523 10.0701 5 9.62602V7H9.18866C9.79728 7 10.2648 6.46089 10.1786 5.8584L10.0153 4.7168C10.0053 4.64702 10 4.57472 10 4.5C10 3.67157 10.6716 3 11.5 3C12.3284 3 13 3.67157 13 4.5C13 4.57471 12.9947 4.64701 12.9847 4.71681L12.8214 5.8584Z" fill="#272937"/>
</svg>
