<svg width="24" height="24" viewBox="0 0 24 24" fill="none" xmlns="http://www.w3.org/2000/svg">
<path d="M11.5 1C9.70508 1 8.25 2.45507 8.25 4.25C8.25 4.50814 8.2801 4.75924 8.33697 5H5C3.89543 5 3 5.89543 3 7V9.65134C3 10.1488 3.50249 10.5 4 10.5C5.65685 10.5 7 11.8431 7 13.5C7 15.1569 5.65685 16.5 4 16.5C3.50249 16.5 3 16.8512 3 17.3487V20C3 21.1046 3.89543 22 5 22H7.65134C8.14884 22 8.5 21.4975 8.5 21C8.5 19.3431 9.84315 18 11.5 18C13.1569 18 14.5 19.3431 14.5 21C14.5 21.4975 14.8512 22 15.3487 22H18C19.1046 22 20 21.1046 20 20V16.663C20.2408 16.7199 20.4919 16.75 20.75 16.75C22.5449 16.75 24 15.2949 24 13.5C24 11.7051 22.5449 10.25 20.75 10.25C20.4919 10.25 20.2408 10.2801 20 10.337V7C20 5.89543 19.1046 5 18 5H14.663C14.7199 4.75924 14.75 4.50814 14.75 4.25C14.75 2.45507 13.2949 1 11.5 1Z" fill="#272937"/>
</svg>
