<svg width="24" height="24" viewBox="0 0 24 24" fill="none" xmlns="http://www.w3.org/2000/svg">
<path d="M11.2756 13.5065C10.9983 13.5065 10.7627 13.2794 10.7993 13.0046C10.8196 12.8526 10.8513 12.7447 10.8945 12.5978C10.8956 12.5942 10.8966 12.5905 10.8977 12.5869C10.9053 12.5613 10.9131 12.5344 10.9213 12.5059C11.0204 12.1735 11.1642 11.9051 11.3528 11.7005C11.5414 11.496 11.7683 11.3106 12.0336 11.1444C12.2317 11.0166 12.4091 10.8839 12.5657 10.7465C12.7223 10.6091 12.847 10.4573 12.9396 10.2911C13.0323 10.1217 13.0787 9.93311 13.0787 9.72537C13.0787 9.50484 13.0259 9.31148 12.9205 9.14529C12.815 8.9791 12.6728 8.85126 12.4938 8.76177C12.318 8.67228 12.1231 8.62754 11.9089 8.62754C11.7012 8.62754 11.5046 8.67388 11.3193 8.76656C11.1339 8.85605 10.9821 8.99028 10.8638 9.16926C10.8251 9.22675 10.7923 9.28885 10.7652 9.35556C10.6641 9.60488 10.459 9.82604 10.19 9.82604H9.22875C8.94771 9.82604 8.71708 9.59326 8.76178 9.3158C8.82867 8.90051 8.96685 8.54325 9.17632 8.24401C9.46716 7.82533 9.85228 7.51372 10.3317 7.30918C10.8111 7.10143 11.34 6.99756 11.9185 6.99756C12.5545 6.99756 13.117 7.10303 13.606 7.31397C14.095 7.52171 14.4785 7.82374 14.7566 8.22004C15.0346 8.61635 15.1737 9.09416 15.1737 9.65346C15.1737 10.0274 15.1113 10.3598 14.9867 10.6506C14.8652 10.9383 14.6943 11.194 14.4737 11.4177C14.2532 11.6382 13.9927 11.838 13.6923 12.0169C13.4398 12.1672 13.2321 12.3238 13.0691 12.4868C12.9093 12.6498 12.7894 12.8383 12.7095 13.0525C12.7037 13.0687 12.6981 13.0851 12.6926 13.1015C12.6167 13.3313 12.4136 13.5065 12.1716 13.5065H11.2756Z" fill="#272937"/>
<path d="M11.7219 17.0746C11.4023 17.0746 11.1291 16.9628 10.9022 16.7391C10.6784 16.5121 10.5682 16.2405 10.5714 15.9241C10.5682 15.6109 10.6784 15.3424 10.9022 15.1187C11.1291 14.895 11.4023 14.7831 11.7219 14.7831C12.0256 14.7831 12.2924 14.895 12.5226 15.1187C12.7527 15.3424 12.8693 15.6109 12.8725 15.9241C12.8693 16.135 12.8134 16.3284 12.7047 16.5042C12.5993 16.6767 12.4602 16.8158 12.2876 16.9212C12.1151 17.0235 11.9265 17.0746 11.7219 17.0746Z" fill="#272937"/>
<path fill-rule="evenodd" clip-rule="evenodd" d="M22 12C22 17.5228 17.5228 22 12 22C6.47715 22 2 17.5228 2 12C2 6.47715 6.47715 2 12 2C17.5228 2 22 6.47715 22 12ZM20 12C20 16.4183 16.4183 20 12 20C7.58172 20 4 16.4183 4 12C4 7.58172 7.58172 4 12 4C16.4183 4 20 7.58172 20 12Z" fill="#272937"/>
</svg>
