<svg width="24" height="24" viewBox="0 0 24 24" fill="currentColor" xmlns="http://www.w3.org/2000/svg">
<path fill-rule="evenodd" clip-rule="evenodd" d="M6 2C4.89543 2 4 2.89543 4 4V20.7C4 21.6027 5.10158 22.0433 5.72414 21.3897L7.39192 19.6385C7.73942 19.2736 8.30409 19.2243 8.7096 19.5233L11.4065 21.5123C11.7594 21.7725 12.2406 21.7725 12.5935 21.5123L15.2904 19.5233C15.6959 19.2243 16.2606 19.2736 16.6081 19.6385L18.2759 21.3897C18.8984 22.0433 20 21.6027 20 20.7V4C20 2.89543 19.1046 2 18 2H6ZM15.5 9C16.0523 9 16.5 8.55229 16.5 8C16.5 7.44772 16.0523 7 15.5 7H8.5C7.94772 7 7.5 7.44772 7.5 8C7.5 8.55229 7.94772 9 8.5 9H15.5ZM14.5 12.5C14.5 13.0523 14.0523 13.5 13.5 13.5H8.5C7.94772 13.5 7.5 13.0523 7.5 12.5C7.5 11.9477 7.94772 11.5 8.5 11.5H13.5C14.0523 11.5 14.5 11.9477 14.5 12.5Z" fill="currentColor"/>
</svg>
