<svg width="24" height="24" viewBox="0 0 24 24" fill="none" xmlns="http://www.w3.org/2000/svg">
<path d="M16 8C16 8.55229 15.5523 9 15 9H9C8.44772 9 8 8.55229 8 8C8 7.44772 8.44772 7 9 7H15C15.5523 7 16 7.44772 16 8Z" fill="#272937"/>
<path d="M13 13C13.5523 13 14 12.5523 14 12C14 11.4477 13.5523 11 13 11H9C8.44772 11 8 11.4477 8 12C8 12.5523 8.44772 13 9 13H13Z" fill="#272937"/>
<path fill-rule="evenodd" clip-rule="evenodd" d="M15.5 19L18.3451 21.4657C18.9926 22.027 20 21.567 20 20.71V4C20 2.89543 19.1046 2 18 2H6C4.89543 2 4 2.89543 4 4V20.71C4 21.567 5.00736 22.027 5.65493 21.4657L8.5 19L11.3461 21.4598C11.7216 21.7844 12.2784 21.7844 12.6539 21.4598L15.5 19ZM7.19014 17.4886C7.94108 16.8378 9.05597 16.837 9.8078 17.4868L12 19.3815L14.1922 17.4868C14.944 16.837 16.0589 16.8378 16.8099 17.4886L18 18.5201V4H6V18.5201L7.19014 17.4886Z" fill="#272937"/>
</svg>
