<svg width="24" height="24" viewBox="0 0 24 24" fill="currentColor" xmlns="http://www.w3.org/2000/svg">
<path fill-rule="evenodd" clip-rule="evenodd" d="M8.50023 4.5C8.50023 6.433 10.0672 8 12.0002 8C13.9332 8 15.5002 6.433 15.5002 4.5C15.5002 2.567 13.9332 1 12.0002 1C10.0672 1 8.50023 2.567 8.50023 4.5ZM12.0002 6C11.1718 6 10.5002 5.32843 10.5002 4.5C10.5002 3.67157 11.1718 3 12.0002 3C12.8287 3 13.5002 3.67157 13.5002 4.5C13.5002 5.32843 12.8287 6 12.0002 6Z" fill="currentColor"/>
<path fill-rule="evenodd" clip-rule="evenodd" d="M12.0002 23C10.0672 23 8.50023 21.433 8.50023 19.5C8.50023 17.567 10.0672 16 12.0002 16C13.9332 16 15.5002 17.567 15.5002 19.5C15.5002 21.433 13.9332 23 12.0002 23ZM10.5002 19.5C10.5002 20.3284 11.1718 21 12.0002 21C12.8287 21 13.5002 20.3284 13.5002 19.5C13.5002 18.6716 12.8287 18 12.0002 18C11.1718 18 10.5002 18.6716 10.5002 19.5Z" fill="currentColor"/>
<path d="M4.85189 9.77626C3.93299 10.3068 3.61815 11.4818 4.14867 12.4007C4.63313 13.2398 5.6666 13.5868 6.55931 13.2102L16.6638 8.9471C18.4858 8.17838 20.5951 8.88671 21.5839 10.5993C22.6667 12.4748 22.0241 14.873 20.1486 15.9558L18.1318 17.1202C17.6535 17.3963 17.0419 17.2325 16.7658 16.7542C16.4897 16.2759 16.6535 15.6643 17.1318 15.3881L19.1486 14.2237C20.0675 13.6932 20.3824 12.5182 19.8518 11.5993C19.3674 10.7602 18.3339 10.4132 17.4412 10.7898L7.33675 15.0529C5.51472 15.8216 3.4054 15.1133 2.41662 13.4007C1.33381 11.5252 1.9764 9.12702 3.85189 8.04421L5.86868 6.87981C6.34697 6.60367 6.95856 6.76754 7.2347 7.24584C7.51085 7.72413 7.34697 8.33572 6.86868 8.61186L4.85189 9.77626Z" fill="currentColor"/>
</svg>
