<svg width="24" height="24" viewBox="0 0 24 24" fill="currentColor" xmlns="http://www.w3.org/2000/svg">
<path fill-rule="evenodd" clip-rule="evenodd" d="M10 6C10 6.74182 9.79807 7.43647 9.44617 8.03198L12 10.5858L19.5858 3C19.9763 2.60948 20.6095 2.60948 21 3C21.3905 3.39053 21.3905 4.02369 21 4.41422L9.44617 15.968C9.79807 16.5635 10 17.2582 10 18C10 20.2091 8.20914 22 6 22C3.79086 22 2 20.2091 2 18C2 15.7909 3.79086 14 6 14C6.7418 14 7.43644 14.2019 8.03196 14.5538L10.5858 12L8.03195 9.44619C7.43644 9.79807 6.7418 10 6 10C3.79086 10 2 8.20914 2 6C2 3.79086 3.79086 2 6 2C8.20914 2 10 3.79086 10 6ZM8 6C8 7.10457 7.10457 8 6 8C4.89543 8 4 7.10457 4 6C4 4.89543 4.89543 4 6 4C7.10457 4 8 4.89543 8 6ZM6 20C7.10457 20 8 19.1046 8 18C8 16.8954 7.10457 16 6 16C4.89543 16 4 16.8954 4 18C4 19.1046 4.89543 20 6 20Z" fill="currentColor"/>
<path d="M14.4749 13.0607L21 19.5858C21.3905 19.9763 21.3905 20.6095 21 21C20.6095 21.3905 19.9763 21.3905 19.5858 21L13.0606 14.4749L14.4749 13.0607Z" fill="currentColor"/>
</svg>
