<svg width="24" height="24" viewBox="0 0 24 24" fill="none" xmlns="http://www.w3.org/2000/svg">
<path d="M11.1306 2.66444C10.4608 2.84279 9.93761 3.37783 9.75926 4.05556C9.71566 4.21805 9.69981 4.49548 9.69981 5.02657V5.77167H9.27177C8.58612 5.77167 8.16601 5.92227 7.75383 6.31464C7.63096 6.42958 7.47243 6.63171 7.40505 6.75853C7.17915 7.18657 7.16329 7.31736 7.16329 8.78378V10.1155L6.67977 10.2898C6.41027 10.385 6.08924 10.5118 5.96241 10.5752C5.33225 10.8883 4.93988 11.5343 4.93592 12.2556C4.93592 12.5727 4.96762 12.6837 5.71669 15.1251C6.14869 16.5202 6.48557 17.6774 6.46971 17.6933C6.45782 17.7091 6.30722 17.721 6.14076 17.7171C5.76028 17.7171 5.48285 17.6259 5.13012 17.396C4.97555 17.293 4.7972 17.2098 4.71001 17.1979C4.27404 17.1384 3.92924 17.5189 4.01247 17.9668C4.06795 18.2799 4.74568 18.7356 5.41944 18.914C5.76425 19.0091 6.48953 19.0091 6.86605 18.914C7.23067 18.8268 7.70627 18.589 8.06693 18.3195C8.54252 17.9628 9.01019 17.8399 9.50957 17.939C9.80682 17.9945 10.0327 18.1055 10.4172 18.3829C11.3049 19.021 12.2958 19.1676 13.2787 18.807C13.6076 18.6881 13.8969 18.5256 14.1585 18.3155C14.6539 17.9113 15.3118 17.8003 15.8945 18.0183C16.0134 18.0619 16.2591 18.2085 16.4414 18.3433C17.0795 18.807 17.6066 18.9853 18.3398 18.9853C18.6965 18.9853 18.8669 18.9655 19.1127 18.8942C19.7706 18.7079 20.4047 18.2719 20.4602 17.9628C20.5474 17.5189 20.1986 17.1384 19.7587 17.1979C19.6636 17.2098 19.509 17.2851 19.3663 17.3842C19.0294 17.6219 18.7441 17.7131 18.3517 17.7171C18.1734 17.721 18.0148 17.7091 18.0029 17.6933C17.9871 17.6774 18.32 16.5439 18.7401 15.1766C19.4733 12.7946 19.509 12.6718 19.5209 12.3111C19.5367 11.8752 19.4575 11.57 19.2355 11.2252C18.9581 10.7932 18.6489 10.591 17.7968 10.2859L17.3094 10.1115V8.78378C17.3094 7.31736 17.2935 7.1826 17.0676 6.75853C17.0002 6.63171 16.8417 6.42958 16.7188 6.31464C16.3066 5.92227 15.8865 5.77167 15.2009 5.77167H14.7728V5.02657C14.7728 4.49548 14.757 4.21805 14.7134 4.05556C14.535 3.36991 14.0079 2.83882 13.3262 2.66047C13.0052 2.57725 11.4437 2.58121 11.1306 2.66444ZM13.2113 3.97233C13.4729 4.16653 13.4848 4.2022 13.4967 5.0226L13.5085 5.77167H12.2403H10.9681V5.08205C10.9681 4.3647 10.9918 4.23391 11.1385 4.07141C11.3129 3.88514 11.404 3.86928 12.2839 3.88117C13.0409 3.8891 13.1122 3.89703 13.2113 3.97233ZM15.6567 7.09541C15.8231 7.16279 15.9935 7.36492 16.0213 7.52741C16.0332 7.59875 16.0411 8.10209 16.0332 8.64903L16.0213 9.63985L14.7332 9.17218C12.8942 8.50239 12.8744 8.49446 12.2561 8.49446C11.622 8.4905 11.6022 8.49446 9.79889 9.15237L8.45137 9.64382L8.43948 8.64903C8.43155 8.10209 8.43948 7.59875 8.45137 7.52741C8.47911 7.36888 8.64557 7.16675 8.80806 7.09541C8.98641 7.01615 15.4704 7.01615 15.6567 7.09541ZM11.6022 13.7379V17.6259L11.4754 17.5585C11.404 17.5229 11.19 17.3802 10.9998 17.2454C10.5757 16.9403 10.1794 16.7698 9.69584 16.6866C9.08153 16.5796 8.4157 16.6787 7.87669 16.9482L7.64285 17.0671L7.51603 16.6589C6.54502 13.5199 6.2121 12.3864 6.2121 12.2398C6.2121 12.0535 6.27948 11.895 6.40234 11.784C6.46179 11.7285 11.4318 9.87765 11.5745 9.85784C11.5903 9.85387 11.6022 11.6017 11.6022 13.7379ZM15.4466 10.7852C16.81 11.2807 17.9712 11.7206 18.0267 11.7602C18.1615 11.8553 18.2605 12.0654 18.2605 12.2596C18.2605 12.3428 17.9871 13.3019 17.6462 14.4117C17.3054 15.5135 16.9844 16.5598 16.9289 16.7381L16.8298 17.0592L16.5365 16.9244C15.835 16.5994 15.0305 16.5558 14.3171 16.7976C13.9722 16.9165 13.8018 17.0076 13.4451 17.2653C13.2707 17.3881 13.0686 17.5229 13.0012 17.5585L12.8705 17.6259V13.7339C12.8705 10.6386 12.8823 9.84991 12.922 9.86576C12.9458 9.87369 14.0832 10.2898 15.4466 10.7852Z" fill="black"/>
</svg>
