<svg width="24" height="24" viewBox="0 0 24 24" fill="currentColor" xmlns="http://www.w3.org/2000/svg">
<path fill-rule="evenodd" clip-rule="evenodd" d="M21 5C21 3.89543 20.1046 3 19 3H5C3.89543 3 3 3.89543 3 5V9C3 10.1046 3.89543 11 5 11H19C20.1046 11 21 10.1046 21 9V5ZM7 8.25C7.69036 8.25 8.25 7.69036 8.25 7C8.25 6.30964 7.69036 5.75 7 5.75C6.30964 5.75 5.75 6.30964 5.75 7C5.75 7.69036 6.30964 8.25 7 8.25Z" fill="currentColor"/>
<path fill-rule="evenodd" clip-rule="evenodd" d="M19 13C20.1046 13 21 13.8954 21 15V19C21 20.1046 20.1046 21 19 21H5C3.89543 21 3 20.1046 3 19V15C3 13.8954 3.89543 13 5 13H19ZM8.25 17C8.25 17.6904 7.69036 18.25 7 18.25C6.30964 18.25 5.75 17.6904 5.75 17C5.75 16.3096 6.30964 15.75 7 15.75C7.69036 15.75 8.25 16.3096 8.25 17Z" fill="currentColor"/>
</svg>
