<svg width="24" height="24" viewBox="0 0 24 24" fill="none" xmlns="http://www.w3.org/2000/svg">
<path fill-rule="evenodd" clip-rule="evenodd" d="M16 12C16 14.2091 14.2091 16 12 16C9.79086 16 8 14.2091 8 12C8 9.79084 9.79086 7.99997 12 7.99997C14.2091 7.99997 16 9.79084 16 12ZM14 12C14 13.1045 13.1046 14 12 14C10.8954 14 10 13.1045 10 12C10 10.8954 10.8954 9.99997 12 9.99997C13.1046 9.99997 14 10.8954 14 12Z" fill="#272937"/>
<path fill-rule="evenodd" clip-rule="evenodd" d="M13.0006 2.17806C12.3815 1.82037 11.6185 1.82037 10.9994 2.17806L3.99945 6.22251C3.38096 6.57986 3 7.23993 3 7.95424V16.0457C3 16.76 3.38095 17.4201 3.99944 17.7774L10.9994 21.8219C11.6185 22.1796 12.3815 22.1796 13.0006 21.8219L20.0006 17.7774C20.619 17.4201 21 16.76 21 16.0457V7.95424C21 7.23993 20.619 6.57986 20.0006 6.22251L13.0006 2.17806ZM19 7.95424L12 3.90979L5 7.95424V16.0457L12 20.0901L19 16.0457V7.95424Z" fill="#272937"/>
</svg>
