<svg width="24" height="24" viewBox="0 0 24 24" fill="none" xmlns="http://www.w3.org/2000/svg">
<path fill-rule="evenodd" clip-rule="evenodd" d="M13.0003 4.41424V8.00002C6.12584 8.00002 2.88164 12.6092 1.18803 17.5048C0.835848 18.5228 2.34637 19.2997 3.21353 18.6606C5.3141 17.1125 7.81859 16.2976 11.0003 16.0684C11.639 16.0224 12.3049 16 13.0003 16V19.5858C13.0003 20.4767 14.0775 20.9229 14.7075 20.2929L22.2932 12.7071C22.6838 12.3166 22.6838 11.6834 22.2932 11.2929L14.7075 3.70713C14.0775 3.07716 13.0003 3.52333 13.0003 4.41424ZM13.0003 10C14.1049 10 15.0003 9.10459 15.0003 8.00002V6.82845L20.1719 12L15.0003 17.1716V16C15.0003 14.8955 14.1049 14 13.0003 14C9.54153 14 6.60049 14.5233 4.05672 15.8038C4.71608 14.4816 5.52345 13.3091 6.51915 12.3757C8.02444 10.9647 10.0628 10 13.0003 10Z" fill="#272937"/>
</svg>
