<svg width="24" height="24" viewBox="0 0 24 24" fill="none" xmlns="http://www.w3.org/2000/svg">
<path d="M21 4.75C21 6.82107 19.3211 8.5 17.25 8.5C16.2281 8.5 15.3017 8.09126 14.6253 7.42835L8.37895 11.0513C8.45795 11.3543 8.5 11.6722 8.5 12C8.5 12.3278 8.45795 12.6457 8.37895 12.9487L14.6253 16.5716C15.3017 15.9087 16.2281 15.5 17.25 15.5C19.3211 15.5 21 17.1789 21 19.25C21 21.3211 19.3211 23 17.25 23C15.1789 23 13.5 21.3211 13.5 19.25C13.5 18.9222 13.5421 18.6043 13.6211 18.3012L7.37469 14.6783C6.69831 15.3413 5.77189 15.75 4.75 15.75C2.67893 15.75 1 14.0711 1 12C1 9.92893 2.67893 8.25 4.75 8.25C5.77189 8.25 6.69831 8.65875 7.37469 9.32166L13.6211 5.69877C13.5421 5.39574 13.5 5.07778 13.5 4.75C13.5 2.67893 15.1789 1 17.25 1C19.3211 1 21 2.67893 21 4.75Z" fill="#272937"/>
</svg>
