<svg width="24" height="24" viewBox="0 0 24 24" fill="currentColor" xmlns="http://www.w3.org/2000/svg">
<path fill-rule="evenodd" clip-rule="evenodd" d="M3 6.29971C3 5.50933 3.46547 4.79309 4.18772 4.47209L11.1877 1.36098C11.7049 1.13114 12.2951 1.13114 12.8123 1.36098L19.8123 4.47209C20.5345 4.79309 21 5.50933 21 6.29971V13C21 18.8766 14.6569 21.9341 12.621 22.764C12.2203 22.9274 11.7798 22.9274 11.379 22.764C9.34312 21.9341 3 18.8766 3 13V6.29971ZM12 3.1886L19 6.29971V13C19 15.145 17.8582 16.8748 16.2605 18.2663C14.7314 19.5979 12.9631 20.4531 12 20.8566C11.0369 20.4531 9.26856 19.5979 7.73955 18.2663C6.14184 16.8748 5 15.145 5 13V6.29971L12 3.1886Z" fill="currentColor"/>
</svg>
