<svg width="24" height="24" viewBox="0 0 24 24" fill="none" xmlns="http://www.w3.org/2000/svg">
<path fill-rule="evenodd" clip-rule="evenodd" d="M3 6.29971C3 5.50933 3.46547 4.79309 4.18772 4.47209L11.1877 1.36098C11.7049 1.13114 12.2951 1.13114 12.8123 1.36098L19.8123 4.47209C20.5345 4.79309 21 5.50933 21 6.29971V13C21 18.8766 14.6569 21.9341 12.621 22.764C12.2203 22.9274 11.7798 22.9274 11.379 22.764C9.34312 21.9341 3 18.8766 3 13V6.29971ZM16.5 8.49997C16.8905 8.89049 16.8905 9.52366 16.5 9.91418L11.7071 14.7071C11.3166 15.0976 10.6834 15.0976 10.2929 14.7071L8 12.4142C7.60948 12.0237 7.60948 11.3905 8 11C8.39052 10.6094 9.02369 10.6094 9.41422 11L11 12.5858L15.0858 8.49997C15.4763 8.10944 16.1095 8.10944 16.5 8.49997Z" fill="#272937"/>
</svg>
