<svg width="24" height="24" viewBox="0 0 24 24" fill="none" xmlns="http://www.w3.org/2000/svg">
<path d="M20 3.5C19.4477 3.5 19 3.94772 19 4.5V19.5C19 20.0523 19.4477 20.5 20 20.5C20.5523 20.5 21 20.0523 21 19.5V4.5C21 3.94772 20.5523 3.5 20 3.5Z" fill="#272937"/>
<path d="M3 19.2023C3 19.9864 3.86121 20.4655 4.52736 20.052L16.1311 12.8496C16.7613 12.4585 16.7613 11.5415 16.1311 11.1504L4.52736 3.94803C4.51695 3.94157 4.5065 3.93532 4.496 3.9293C4.4225 3.88711 4.34686 3.85549 4.27047 3.83367C3.65936 3.65909 3 4.11163 3 4.79767V19.2023Z" fill="#272937"/>
</svg>
