<svg width="24" height="24" viewBox="0 0 24 24" fill="none" xmlns="http://www.w3.org/2000/svg">
<path d="M5 4.5C5 3.94772 4.55228 3.5 4 3.5C3.44772 3.5 3 3.94772 3 4.5V19.5C3 20.0523 3.44772 20.5 4 20.5C4.55228 20.5 5 20.0523 5 19.5V4.5Z" fill="#272937"/>
<path fill-rule="evenodd" clip-rule="evenodd" d="M21 19.2023C21 19.9864 20.1388 20.4655 19.4726 20.052L7.86888 12.8496C7.23869 12.4585 7.23869 11.5415 7.86888 11.1504L19.4726 3.94803C20.1388 3.53455 21 4.01363 21 4.79767V19.2023ZM19 17.4047L10.2925 12L19 6.59533V17.4047Z" fill="#272937"/>
</svg>
