<svg width="24" height="24" viewBox="0 0 24 24" fill="currentColor" xmlns="http://www.w3.org/2000/svg">
<path d="M9 10C7.89543 10 7 9.10457 7 8C7 6.89543 7.89543 6 9 6C9.74024 6 10.3866 6.40216 10.7324 6.99991H20C20.5523 6.99991 21 7.44763 21 7.99991C21 8.5522 20.5523 8.99991 20 8.99991H10.7325C10.3867 9.59776 9.74031 10 9 10Z" fill="currentColor"/>
<path d="M3 7.99991C3 7.44763 3.44772 6.99991 4 6.99991H7.2676C7.0974 7.29411 7 7.63568 7 8C7 8.36425 7.09736 8.70576 7.2675 8.99991H4C3.44772 8.99991 3 8.5522 3 7.99991Z" fill="currentColor"/>
<path d="M15 18C14.2597 18 13.6133 17.5978 13.2675 16.9999H4.00002C3.44774 16.9999 3.00002 16.5522 3.00002 15.9999C3.00002 15.4476 3.44774 14.9999 4.00002 14.9999H13.2676C13.6134 14.4022 14.2597 14 15 14C15.7402 14 16.3866 14.4022 16.7324 14.9999H20C20.5523 14.9999 21 15.4476 21 15.9999C21 16.5522 20.5523 16.9999 20 16.9999H16.7325C16.7329 16.9991 16.7334 16.9983 16.7339 16.9975C16.7418 16.9838 16.7495 16.97 16.7571 16.9561C16.418 17.578 15.7583 18 15 18Z" fill="currentColor"/>
</svg>
