<svg width="24" height="24" viewBox="0 0 24 24" fill="none" xmlns="http://www.w3.org/2000/svg">
<path d="M11.9999 3C11.4476 3 10.9999 3.44772 10.9999 4V7.2676C10.4022 7.61343 10 8.25974 10 8.99998C10 10.1046 10.8954 11 12 11C12.0041 11 12.0082 11 12.0124 11H12.0111C12.0074 11 12.0037 11 12 11C11.6357 11 11.2941 10.9026 10.9999 10.7324V20C10.9999 20.5523 11.4476 21 11.9999 21C12.5522 21 12.9999 20.5523 12.9999 20V10.7325C13.5978 10.3867 14 9.74031 14 8.99998C14 8.25966 13.5978 7.61329 12.9999 7.26749V4C12.9999 3.44772 12.5522 3 11.9999 3Z" fill="currentColor"/>
<path d="M17.9999 20C17.9999 20.5523 18.4476 21 18.9999 21C19.5522 21 19.9999 20.5523 19.9999 20V16.7325C20.5978 16.3867 21 15.7403 21 15C21 14.2597 20.5978 13.6133 19.9999 13.2675V4C19.9999 3.44772 19.5522 3 18.9999 3C18.4476 3 17.9999 3.44772 17.9999 4V13.2676C17.4022 13.6134 17 14.2597 17 15C17 15.7402 17.4022 16.3866 17.9999 16.7324V20Z" fill="currentColor"/>
<path d="M3.9999 20C3.9999 20.5523 4.44762 21 4.9999 21C5.55219 21 5.9999 20.5523 5.9999 20V16.7325C6.59776 16.3867 7 15.7403 7 15C7 14.2597 6.59776 13.6133 5.9999 13.2675V4C5.9999 3.44772 5.55219 3 4.9999 3C4.44762 3 3.9999 3.44772 3.9999 4V13.2676C3.91584 13.3162 3.83565 13.3708 3.75991 13.4307C3.297 13.7971 3 14.3638 3 15C3 15.7402 3.40216 16.3866 3.9999 16.7324V20Z" fill="currentColor"/>
</svg>
