<svg width="24" height="24" viewBox="0 0 24 24" fill="none" xmlns="http://www.w3.org/2000/svg">
<path d="M1.73085 5.02759C1.3916 5.46394 1.52156 6.08756 1.98292 6.39192C2.44368 6.69587 3.06017 6.56572 3.40494 6.13464C4.33056 4.97732 5.48506 4.01102 6.79986 3.30436C7.2863 3.04291 7.52603 2.45985 7.31024 1.9515C7.09432 1.44282 6.50463 1.2022 6.01428 1.457C5.90966 1.51136 5.80588 1.5671 5.70295 1.6242C4.15907 2.48065 2.80788 3.64227 1.73085 5.02759Z" fill="#272937"/>
<path d="M22.1744 6.26381C22.5038 5.93459 22.5661 5.4094 22.2693 5.0276C21.1205 3.54991 19.6597 2.32676 17.9859 1.45701C17.9246 1.42516 17.8617 1.40105 17.7983 1.38423C17.3539 1.26655 16.8788 1.50641 16.6899 1.9515C16.4741 2.45985 16.7139 3.04291 17.2003 3.30436C18.5151 4.01103 19.6696 4.97732 20.5952 6.13465C20.94 6.56572 21.5565 6.69587 22.0172 6.39192C22.0749 6.35388 22.1274 6.31084 22.1744 6.26381Z" fill="#272937"/>
<path fill-rule="evenodd" clip-rule="evenodd" d="M21.0001 13C21.0001 17.9706 16.9707 22 12.0001 22C7.02949 22 3.00006 17.9706 3.00006 13C3.00006 8.02946 7.02949 4.00002 12.0001 4.00002C16.9707 4.00002 21.0001 8.02946 21.0001 13ZM8.99892 15.4102L12.5541 10.875H9.68756C9.20431 10.875 8.81256 10.4833 8.81256 10C8.81256 9.51677 9.20431 9.12502 9.68756 9.12502H14.3126C14.7958 9.12502 15.1876 9.51677 15.1876 10V10.05C15.1876 10.2457 15.122 10.4358 15.0012 10.5898L11.4461 15.125H14.3126C14.7958 15.125 15.1876 15.5168 15.1876 16C15.1876 16.4833 14.7958 16.875 14.3126 16.875H9.68756C9.20431 16.875 8.81256 16.4833 8.81256 16V15.95C8.81256 15.7543 8.87817 15.5642 8.99892 15.4102Z" fill="#272937"/>
</svg>
