<svg width="24" height="24" viewBox="0 0 24 24" fill="none" xmlns="http://www.w3.org/2000/svg">
<path fill-rule="evenodd" clip-rule="evenodd" d="M14 13.5859L3.41418 3.00006L14 13.5859Z" fill="#272937"/>
<path d="M18.298 15.0553L16.7632 13.5205C16.9199 13.0297 17 12.5169 17 12.0001C17 11.3434 16.8707 10.6933 16.6194 10.0866C16.4961 9.78895 16.3446 9.50463 16.1675 9.23738C15.8623 8.77705 15.8521 8.14791 16.2426 7.75739C16.6332 7.36686 17.2731 7.36327 17.604 7.80541C17.953 8.27169 18.2433 8.78075 18.4672 9.32125C18.8189 10.1705 19 11.0808 19 12.0001C19 12.0575 18.9993 12.1149 18.9979 12.1723C18.9767 13.0328 18.797 13.8826 18.4672 14.6788C18.4639 14.6868 18.4606 14.6947 18.4572 14.7027C18.4074 14.8218 18.3543 14.9394 18.298 15.0553Z" fill="#272937"/>
<path d="M21.2287 17.986L19.7387 16.496C19.9386 16.152 20.1157 15.7942 20.2687 15.425C20.7184 14.3392 20.9499 13.1754 20.9499 12.0001C20.9499 10.8247 20.7184 9.66093 20.2686 8.57508C19.9499 7.80562 19.526 7.08598 19.0103 6.43622C18.6584 5.99279 18.6531 5.34701 19.0534 4.9467C19.4537 4.5464 20.1069 4.5436 20.4682 4.97941C21.1692 5.82496 21.7409 6.77226 22.1627 7.79055C22.7155 9.12513 23 10.5555 23 12.0001C23 13.4446 22.7155 14.875 22.1627 16.2096C21.9055 16.8304 21.5926 17.4249 21.2287 17.986Z" fill="#272937"/>
<path d="M14 10.7573L9.28455 6.04182L12.3492 3.41497C12.9979 2.85896 14 3.31988 14 4.17424V10.7573Z" fill="#272937"/>
<path d="M3.41418 3.00006C3.02366 2.60953 2.3905 2.60952 1.99998 3.00005C1.60945 3.39057 1.60945 4.02374 1.99998 4.41426L5.58576 8.00005H3C1.89543 8.00005 1 8.89548 1 10V14.0001C1 14.0691 1.0035 14.1373 1.01033 14.2045C1.11275 15.2131 1.96447 16.0001 3 16.0001H7L12.3492 20.5851C12.9979 21.1411 14 20.6802 14 19.8258V16.4143L19.5858 22.0001C19.9763 22.3906 20.6095 22.3906 21 22.0001C21.3905 21.6095 21.3905 20.9764 21 20.5858L15.9442 15.5301L14 13.5859L3.41418 3.00006Z" fill="#272937"/>
</svg>
