<svg width="24" height="24" viewBox="0 0 24 24" fill="none" xmlns="http://www.w3.org/2000/svg">
<path d="M3 15.9999C1.89543 15.9999 1 15.1045 1 13.9999V9.99995C1 8.89538 1.89543 7.99995 3 7.99995H7L12.3492 3.41492C12.9979 2.85891 14 3.31982 14 4.17417V19.8257C14 20.6801 12.9979 21.141 12.3492 20.585L7 15.9999H3Z" fill="currentColor"/>
<path d="M19 13.4142L17.4142 14.9999C17.0237 15.3905 16.3905 15.3905 16 14.9999C15.6095 14.6094 15.6095 13.9762 16 13.5857L17.5858 11.9999L16 10.4142C15.6095 10.0236 15.6095 9.39045 16 8.99993C16.3905 8.6094 17.0237 8.6094 17.4142 8.99993L19 10.5857L20.5858 8.99992C20.9763 8.6094 21.6095 8.6094 22 8.99992C22.3905 9.39044 22.3905 10.0236 22 10.4142L20.4142 11.9999L22 13.5857C22.3905 13.9763 22.3905 14.6094 22 14.9999C21.6095 15.3905 20.9763 15.3905 20.5858 14.9999L19 13.4142Z" fill="currentColor"/>
</svg>
