<svg width="24" height="24" viewBox="0 0 24 24" fill="currentColor" xmlns="http://www.w3.org/2000/svg">
<path fill-rule="evenodd" clip-rule="evenodd" d="M3.4142 2.99992C3.02367 2.6094 2.39051 2.6094 1.99998 2.99992C1.60946 3.39045 1.60946 4.02361 1.99998 4.41414L5.58577 7.99992H3C1.89543 7.99992 1 8.89535 1 9.99992V13.9999C1 15.1045 1.89543 15.9999 3 15.9999H7L12.3492 20.585C12.9979 21.141 14 20.6801 14 19.8257V16.4142L19.5858 21.9999C19.9763 22.3905 20.6095 22.3905 21 21.9999C21.3905 21.6094 21.3905 20.9762 21 20.5857L3.4142 2.99992ZM7.51763 9.93178C7.35002 9.97669 7.17608 9.99992 7 9.99992H3V13.9999H7C7.47742 13.9999 7.9391 14.1707 8.30158 14.4814L12 17.6515V14.4142L7.51763 9.93178Z" fill="currentColor"/>
<path d="M12 6.34839V8.75713L14 10.7571V4.17417C14 3.31982 12.9979 2.85891 12.3492 3.41492L9.28461 6.04173L10.703 7.46012L12 6.34839Z" fill="currentColor"/>
<path d="M16.7632 13.5203L18.2981 15.0552C18.358 14.9315 18.4144 14.806 18.4672 14.6787C18.8189 13.8294 19 12.9192 19 11.9999C19 11.0807 18.8189 10.1704 18.4672 9.32113C18.2433 8.78063 17.953 8.27157 17.604 7.8053C17.2731 7.36315 16.6332 7.36675 16.2426 7.75727C15.8521 8.1478 15.8623 8.77694 16.1675 9.23726C16.3446 9.50452 16.4961 9.78883 16.6194 10.0865C16.8707 10.6931 17 11.3433 17 11.9999C17 12.5167 16.9199 13.0296 16.7632 13.5203Z" fill="currentColor"/>
<path d="M19.7387 16.4958L21.2287 17.9858C21.5926 17.4247 21.9055 16.8303 22.1627 16.2094C22.7155 14.8749 23 13.4445 23 11.9999C23 10.5554 22.7155 9.12501 22.1627 7.79043C21.7409 6.77213 21.1692 5.82483 20.4682 4.97929C20.1069 4.54347 19.4537 4.54628 19.0534 4.94658C18.6531 5.34688 18.6584 5.99266 19.0103 6.43609C19.526 7.08586 19.9499 7.8055 20.2686 8.57496C20.7184 9.66081 20.9499 10.8246 20.9499 11.9999C20.9499 13.1752 20.7184 14.3391 20.2686 15.4249C20.1157 15.7941 19.9386 16.1518 19.7387 16.4958Z" fill="currentColor"/>
</svg>
