<svg width="24" height="24" viewBox="0 0 24 24" fill="currentColor" xmlns="http://www.w3.org/2000/svg">
<path d="M3 15.9999C1.89543 15.9999 1 15.1045 1 13.9999V9.99995C1 8.89538 1.89543 7.99995 3 7.99995H7L12.3492 3.41492C12.9979 2.85891 14 3.31982 14 4.17417V19.8257C14 20.6801 12.9979 21.141 12.3492 20.585L7 15.9999H3Z" fill="currentColor"/>
<path d="M16.3997 7.62914C16.7883 7.37288 17.3145 7.41848 17.604 7.80536C17.953 8.27164 18.2433 8.7807 18.4672 9.32119C18.8189 10.1704 19 11.0807 19 11.9999C19 12.0574 18.9993 12.1148 18.9979 12.1722C18.9767 13.0327 18.797 13.8825 18.4672 14.6787C18.2433 15.2192 17.953 15.7283 17.604 16.1946C17.2731 16.6367 16.6332 16.6331 16.2426 16.2426C15.8521 15.8521 15.8623 15.2229 16.1675 14.7626C16.3446 14.4953 16.4961 14.211 16.6194 13.9134C16.6508 13.8375 16.6803 13.761 16.7079 13.6839C16.901 13.1441 17 12.5745 17 11.9999C17 11.9589 16.9995 11.9179 16.9985 11.8769C16.9834 11.2622 16.855 10.6552 16.6194 10.0865C16.4961 9.7889 16.3446 9.50458 16.1675 9.23733C15.8623 8.777 15.8521 8.14786 16.2426 7.75734C16.2915 7.70852 16.3442 7.66575 16.3997 7.62914Z" fill="currentColor"/>
</svg>
