<svg width="24" height="24" viewBox="0 0 24 24" fill="none" xmlns="http://www.w3.org/2000/svg">
<path d="M3 15.9999C1.89543 15.9999 1 15.1045 1 13.9999V9.99995C1 8.89538 1.89543 7.99995 3 7.99995H7L12.3492 3.41492C12.9979 2.85891 14 3.31982 14 4.17417V19.8257C14 20.6801 12.9979 21.141 12.3492 20.585L7 15.9999H3Z" fill="#272937"/>
<path d="M17.604 7.80536C17.2731 7.36322 16.6332 7.36681 16.2426 7.75734C15.8521 8.14786 15.8623 8.777 16.1675 9.23733C16.3446 9.50458 16.4961 9.7889 16.6194 10.0865C16.8707 10.6932 17 11.3433 17 11.9999C17 12.6566 16.8707 13.3067 16.6194 13.9134C16.4961 14.211 16.3446 14.4953 16.1675 14.7626C15.8623 15.2229 15.8521 15.8521 16.2426 16.2426C16.6332 16.6331 17.2731 16.6367 17.604 16.1946C17.953 15.7283 18.2433 15.2192 18.4672 14.6787C18.8189 13.8294 19 12.9192 19 11.9999C19 11.0807 18.8189 10.1704 18.4672 9.32119C18.4532 9.28741 18.4389 9.25375 18.4244 9.22022C18.2068 8.71723 17.9312 8.24249 17.604 7.80536Z" fill="#272937"/>
<path d="M19.0534 4.94658C19.4537 4.54628 20.1069 4.54347 20.4682 4.97929C20.5558 5.08498 20.6414 5.19226 20.725 5.30107C21.3098 6.06276 21.7936 6.89941 22.1627 7.79042C22.2318 7.95724 22.2967 8.12556 22.3574 8.29522C22.7822 9.48282 23 10.736 23 11.9999C23 13.4445 22.7155 14.8749 22.1627 16.2095C21.7409 17.2278 21.1692 18.175 20.4682 19.0206C20.1069 19.4564 19.4537 19.4536 19.0534 19.0533C18.6531 18.653 18.6584 18.0072 19.0103 17.5638C19.526 16.914 19.9499 16.1944 20.2686 15.4249C20.7184 14.3391 20.9499 13.1753 20.9499 11.9999C20.9499 10.8246 20.7184 9.6608 20.2686 8.57495C19.9499 7.80549 19.526 7.08586 19.0103 6.43609C18.9663 6.38066 18.9278 6.32207 18.8947 6.26119C18.6634 5.83505 18.7031 5.29684 19.0534 4.94658Z" fill="#272937"/>
</svg>
