<svg width="24" height="24" viewBox="0 0 24 24" fill="none" xmlns="http://www.w3.org/2000/svg">
<path fill-rule="evenodd" clip-rule="evenodd" d="M1 13.9999C1 15.1045 1.89543 15.9999 3 15.9999H7L12.3492 20.585C12.9979 21.141 14 20.6801 14 19.8257V4.17417C14 3.31982 12.9979 2.85891 12.3492 3.41492L7 7.99995H3C1.89543 7.99995 1 8.89538 1 9.99995V13.9999ZM8.30158 14.4814C7.9391 14.1707 7.47742 13.9999 7 13.9999H3V9.99995H7C7.47742 9.99995 7.9391 9.82916 8.30158 9.51846L12 6.34839V17.6515L8.30158 14.4814Z" fill="#272937"/>
<path d="M16.3997 7.62914C16.7883 7.37288 17.3145 7.41848 17.604 7.80536C17.953 8.27164 18.2433 8.7807 18.4672 9.32119C18.8189 10.1704 19 11.0807 19 11.9999C19 12.0574 18.9993 12.1148 18.9979 12.1722C18.9767 13.0327 18.797 13.8825 18.4672 14.6787C18.2433 15.2192 17.953 15.7283 17.604 16.1946C17.2731 16.6367 16.6332 16.6331 16.2426 16.2426C15.8521 15.8521 15.8623 15.2229 16.1675 14.7626C16.3446 14.4953 16.4961 14.211 16.6194 13.9134C16.8707 13.3067 17 12.6566 17 11.9999C17 11.3433 16.8707 10.6932 16.6194 10.0865C16.4961 9.7889 16.3446 9.50458 16.1675 9.23733C16.1293 9.17979 16.0958 9.11961 16.0671 9.05759C15.866 8.62344 15.9009 8.09905 16.2426 7.75734C16.2915 7.70852 16.3442 7.66575 16.3997 7.62914Z" fill="#272937"/>
</svg>
