<svg width="24" height="24" viewBox="0 0 24 24" fill="currentColor" xmlns="http://www.w3.org/2000/svg">
<path d="M11.0771 2.46985C11.2479 2.05917 11.6242 1.85385 12.0005 1.85388V5.45805L12.0004 5.45784L10.5143 9.03086C10.2263 9.72333 9.57506 10.1965 8.82748 10.2564L4.97011 10.5656L7.90902 13.0831C8.47859 13.571 8.72734 14.3366 8.55332 15.0661L7.65544 18.8302L10.9579 16.8131C11.2779 16.6176 11.6392 16.5199 12.0005 16.5199V18.52L12.0004 18.5199L6.64613 21.7903C5.88703 22.2539 4.94578 21.5701 5.15216 20.7049L6.60791 14.6021L1.84305 10.5204C1.16751 9.94177 1.52703 8.83526 2.41369 8.76417L8.66765 8.2628L11.0771 2.46985Z" fill="currentColor"/>
</svg>
