<svg width="24" height="24" viewBox="0 0 24 24" fill="none" xmlns="http://www.w3.org/2000/svg">
<path fill-rule="evenodd" clip-rule="evenodd" d="M17.034 20.3411C16.6121 20.763 16.0398 21 15.443 21L5.25 21C4.00732 21 3 19.9927 3 18.75L3 5.25C3 4.00736 4.00732 3 5.25 3L18.75 3C19.9926 3 21 4.00736 21 5.25L21 15.443C21 16.0397 20.763 16.6121 20.341 17.034L17.034 20.3411ZM15.443 18.75H5.25L5.25 5.25L18.75 5.25V15.443L15.443 18.75Z" fill="currentColor"/>
<path d="M16.375 8.62506C16.375 9.24638 15.8713 9.75006 15.25 9.75006L7.50002 9.75006C6.8787 9.75006 6.37502 9.24638 6.37502 8.62506C6.37502 8.00374 6.8787 7.50006 7.50002 7.50006L15.25 7.50006C15.8713 7.50006 16.375 8.00374 16.375 8.62506Z" fill="currentColor"/>
<path d="M12 13.2501C12.6213 13.2501 13.125 12.7464 13.125 12.1251C13.125 11.5037 12.6213 11.0001 12 11.0001H7.5C6.87869 11.0001 6.37501 11.5037 6.37501 12.1251C6.37501 12.7464 6.87869 13.2501 7.5 13.2501H12Z" fill="currentColor"/>
</svg>
