<svg width="24" height="24" viewBox="0 0 24 24" fill="none" xmlns="http://www.w3.org/2000/svg">
<path d="M15 15C15 14.4477 15.4477 14 16 14H17C17.5523 14 18 14.4477 18 15C18 15.5523 17.5523 16 17 16H16C15.4477 16 15 15.5523 15 15Z" fill="currentColor"/>
<path d="M6 11C6 10.4477 6.44772 10 7 10H8C8.55229 10 9 10.4477 9 11C9 11.5523 8.55229 12 8 12H7C6.44772 12 6 11.5523 6 11Z" fill="currentColor"/>
<path d="M6 15C6 14.4477 6.44772 14 7 14H12C12.5523 14 13 14.4477 13 15C13 15.5523 12.5523 16 12 16H7C6.44772 16 6 15.5523 6 15Z" fill="currentColor"/>
<path d="M11 11C11 10.4477 11.4477 10 12 10H17C17.5523 10 18 10.4477 18 11C18 11.5523 17.5523 12 17 12H12C11.4477 12 11 11.5523 11 11Z" fill="currentColor"/>
<path fill-rule="evenodd" clip-rule="evenodd" d="M2 6C2 4.89543 2.89543 4 4 4H20C21.1046 4 22 4.89543 22 6V18C22 19.1046 21.1046 20 20 20H4C2.89543 20 2 19.1046 2 18V6ZM4 18V6H20V18H4Z" fill="currentColor"/>
</svg>
