<svg width="24" height="24" viewBox="0 0 24 24" fill="none" xmlns="http://www.w3.org/2000/svg">
<path fill-rule="evenodd" clip-rule="evenodd" d="M4 4C2.89543 4 2 4.89543 2 6V18C2 19.1046 2.89543 20 4 20H20C21.1046 20 22 19.1046 22 18V6C22 4.89543 21.1046 4 20 4H4ZM17 15C16.4477 15 16 15.4477 16 16C16 16.5523 16.4477 17 17 17H18C18.5523 17 19 16.5523 19 16C19 15.4477 18.5523 15 18 15H17ZM7 11C7.55229 11 8 11.4477 8 12C8 12.5523 7.55229 13 7 13H6C5.44772 13 5 12.5523 5 12C5 11.4477 5.44772 11 6 11H7ZM6 15C5.44772 15 5 15.4477 5 16C5 16.5523 5.44772 17 6 17H13C13.5523 17 14 16.5523 14 16C14 15.4477 13.5523 15 13 15H6ZM18 11C18.5523 11 19 11.4477 19 12C19 12.5523 18.5523 13 18 13H11C10.4477 13 10 12.5523 10 12C10 11.4477 10.4477 11 11 11H18Z" fill="#272937"/>
</svg>
