<svg width="24" height="24" viewBox="0 0 24 24" fill="currentColor" xmlns="http://www.w3.org/2000/svg">
<path d="M12 18.5C12.6904 18.5 13.25 17.9404 13.25 17.25C13.25 16.5596 12.6904 16 12 16C11.3096 16 10.75 16.5596 10.75 17.25C10.75 17.9404 11.3096 18.5 12 18.5Z" fill="currentColor"/>
<path fill-rule="evenodd" clip-rule="evenodd" d="M5.5 2C4.39543 2 3.5 2.89543 3.5 4V20C3.5 21.1046 4.39543 22 5.5 22H18.5C19.6046 22 20.5 21.1046 20.5 20V4C20.5 2.89543 19.6046 2 18.5 2H5.5ZM5.5 4V20H18.5V4H5.5Z" fill="currentColor"/>
</svg>
