<svg width="24" height="24" viewBox="0 0 24 24" fill="none" xmlns="http://www.w3.org/2000/svg">
<path d="M7.5 9C8.32843 9 9 8.32843 9 7.5C9 6.67157 8.32843 6 7.5 6C6.67157 6 6 6.67157 6 7.5C6 8.32843 6.67157 9 7.5 9Z" fill="#272937"/>
<path fill-rule="evenodd" clip-rule="evenodd" d="M2 4C2 2.89543 2.89543 2 4 2H11.1716C11.702 2 12.2107 2.21071 12.5858 2.58579L21.5858 11.5858C22.3668 12.3668 22.3668 13.6332 21.5858 14.4142L14.4142 21.5858C13.6332 22.3668 12.3668 22.3668 11.5858 21.5858L2.58579 12.5858C2.21071 12.2107 2 11.702 2 11.1716V4ZM20.1716 13L11.1716 4H4V11.1716L13 20.1716L20.1716 13Z" fill="#272937"/>
</svg>
