<svg width="24" height="24" viewBox="0 0 24 24" fill="none" xmlns="http://www.w3.org/2000/svg">
<path d="M15.5896 16.0001L13.0038 18.5858V3.00006C13.0038 2.96554 13.0021 2.93143 12.9987 2.89782C12.9475 2.39356 12.5216 2.00006 12.0038 2.00006C11.4516 2.00006 11.0038 2.44778 11.0038 3.00006V18.5859L8.41805 16.0001C8.02752 15.6096 7.39435 15.6096 7.00383 16.0001C6.61331 16.3906 6.61331 17.0238 7.00383 17.4143L11.2967 21.7072C11.6873 22.0977 12.3204 22.0977 12.7109 21.7072L17.0038 17.4143C17.3944 17.0238 17.3944 16.3906 17.0038 16.0001C16.6133 15.6096 15.9801 15.6096 15.5896 16.0001Z" fill="currentColor"/>
</svg>
