<svg width="24" height="24" viewBox="0 0 24 24" fill="none" xmlns="http://www.w3.org/2000/svg">
<path d="M11.2946 5.63586C11.2946 6.18815 11.7423 6.63587 12.2946 6.63587H15.9514L4.93059 17.6567C4.92754 17.6597 4.92451 17.6628 4.92151 17.6659C4.54009 18.0571 4.54312 18.6834 4.93059 19.0709C5.32111 19.4614 5.95428 19.4614 6.3448 19.0709L17.3656 8.05007V11.7069C17.3656 12.2592 17.8133 12.7069 18.3656 12.7069C18.9179 12.7069 19.3656 12.2592 19.3656 11.7069V5.63586C19.3656 5.08358 18.9179 4.63586 18.3656 4.63586H12.2946C11.7423 4.63586 11.2946 5.08358 11.2946 5.63586Z" fill="#272937"/>
</svg>
