<svg width="24" height="24" viewBox="0 0 24 24" fill="none" xmlns="http://www.w3.org/2000/svg">
<path d="M5.63769 12.7069C6.18998 12.7069 6.63769 12.2592 6.63769 11.7069V8.05009L17.6585 19.0709C18.049 19.4614 18.6822 19.4614 19.0727 19.0709C19.4632 18.6804 19.4632 18.0472 19.0727 17.6567L8.0519 6.63587L11.7087 6.63586C12.261 6.63586 12.7087 6.18815 12.7087 5.63586C12.7087 5.42876 12.6458 5.23635 12.538 5.07675C12.3582 4.81075 12.0539 4.63586 11.7087 4.63586L5.63769 4.63588C5.08541 4.63588 4.6377 5.08359 4.6377 5.63588V11.7069C4.6377 12.2592 5.08541 12.7069 5.63769 12.7069Z" fill="#272937"/>
</svg>
