<svg width="24" height="24" viewBox="0 0 24 24" fill="none" xmlns="http://www.w3.org/2000/svg">
<path d="M12.7087 18.3638C12.7087 17.8115 12.261 17.3638 11.7087 17.3638H8.05192L19.0727 6.34297C19.1216 6.29416 19.1643 6.24155 19.2009 6.1861C19.4572 5.79795 19.4144 5.27047 19.0727 4.92876C18.6822 4.53823 18.049 4.53823 17.6585 4.92876L6.6377 15.9496V12.2927C6.63769 11.7404 6.18998 11.2927 5.63769 11.2927C5.08541 11.2927 4.63769 11.7404 4.6377 12.2927L4.63771 18.3638C4.63771 18.9161 5.08542 19.3638 5.63771 19.3638H11.7087C12.261 19.3638 12.7087 18.9161 12.7087 18.3638Z" fill="currentColor"/>
</svg>
