<svg width="24" height="24" viewBox="0 0 24 24" fill="currentColor" xmlns="http://www.w3.org/2000/svg">
<path d="M12 14C11.4477 14 11 13.5523 11 13V9.5C11 8.94772 11.4477 8.5 12 8.5C12.5523 8.5 13 8.94772 13 9.5V13C13 13.5523 12.5523 14 12 14Z" fill="currentColor"/>
<path fill-rule="evenodd" clip-rule="evenodd" d="M15.6716 2.09869C15.8479 1.57511 15.5671 1.00352 15.031 0.869993C14.0605 0.628294 13.0453 0.5 12 0.5C10.9577 0.5 9.94528 0.62756 8.97738 0.86792C8.44118 1.00107 8.15991 1.57247 8.3359 2.09618C8.51185 2.61979 9.0783 2.89663 9.61638 2.77173C10.0671 2.6671 10.529 2.5915 11 2.547V4.05493C6.50005 4.55237 3 8.36745 3 13C3 17.9706 7.02944 22 12 22C16.9706 22 21 17.9706 21 13C21 10.875 20.2635 8.92199 19.0319 7.38232L19.9555 6.45876C20.346 6.06824 20.346 5.43507 19.9555 5.04455C19.565 4.65402 18.9318 4.65402 18.5413 5.04455L17.6177 5.96811C16.3229 4.93238 14.7359 4.24682 13 4.05493V2.547C13.4734 2.59173 13.9377 2.66788 14.3906 2.77336C14.9286 2.89863 15.4953 2.62218 15.6716 2.09869ZM12 20C15.866 20 19 16.866 19 13C19 9.13401 15.866 6 12 6C8.13401 6 5 9.13401 5 13C5 16.866 8.13401 20 12 20Z" fill="currentColor"/>
</svg>
