<svg width="24" height="24" viewBox="0 0 24 24" fill="currentColor" xmlns="http://www.w3.org/2000/svg">
<path d="M6.61916 3.80678C7.43222 3.30991 8.37465 2.98476 9.33642 3.00171C11.1481 2.9985 12.9602 3.00079 14.7719 3.00079C15.9634 2.98843 17.153 3.42897 18.0531 4.20474C18.6668 4.77351 19.1364 5.56621 19.1171 6.42212C19.1221 8.78833 19.1189 11.155 19.1185 13.5217C19.1447 14.188 18.8781 14.8429 18.4652 15.3594C17.8505 16.1228 16.9546 16.6137 16.0172 16.8725C16.5241 17.4009 17.06 17.9038 17.5752 18.4254C17.6857 18.5408 17.8188 18.6383 17.903 18.7757C17.9297 18.8503 17.8814 18.9236 17.8616 18.9941C17.7695 19.0138 17.6765 19.0317 17.5821 19.0294C17.1199 19.0267 16.6576 19.0312 16.1959 19.0262C16.0688 19.0326 15.9565 18.9667 15.875 18.8751C15.2544 18.2573 14.6319 17.6418 14.014 17.0213C12.7148 17.0227 11.4151 17.0204 10.1154 17.0227C9.53761 17.5992 8.95659 18.173 8.38063 18.7514C8.24942 18.8746 8.11406 19.045 7.91287 19.0289C7.41933 19.0289 6.92578 19.0285 6.4327 19.0289C6.33924 19.0395 6.28353 18.9571 6.2269 18.8994C6.21447 18.7496 6.34154 18.6534 6.43546 18.5573C7.00313 17.9995 7.56205 17.4325 8.13524 16.8803C7.64262 16.7319 7.14631 16.5629 6.72045 16.2684C5.94882 15.8059 5.29644 15.0764 5.0865 14.1884C4.93365 13.5327 5.04 12.8567 5.01191 12.1913C4.97416 11.4128 5.04184 10.6343 5.00179 9.85626C5.00455 9.52059 4.99304 9.18445 5.0133 8.84924C5.01376 8.26902 4.9958 7.68926 5.00317 7.10858C5.02803 6.68086 4.97831 6.24352 5.0911 5.82404C5.28907 4.97409 5.90278 4.27984 6.61916 3.80678ZM8.92114 4.53354C8.36774 4.59262 7.84289 4.81793 7.37973 5.11834C7.04733 5.33312 6.79365 5.6459 6.61271 5.99348C10.254 5.99897 13.8953 5.99531 17.5361 5.99531C17.1733 5.24107 16.3814 4.79732 15.5941 4.59949C15.1577 4.49736 14.7065 4.50286 14.2613 4.49141C13.5873 4.53537 12.9119 4.49095 12.2374 4.49095C11.4704 4.55003 10.7015 4.45157 9.93447 4.50698C9.597 4.50973 9.25815 4.50149 8.92114 4.53354ZM6.53859 10.0198C10.2282 10.017 13.9178 10.0161 17.6074 10.0202C17.6143 9.18033 17.6061 8.34046 17.6093 7.50058C13.9215 7.5102 10.2328 7.50196 6.54457 7.5047C6.5059 8.34275 6.55148 9.18079 6.53859 10.0198ZM6.53675 11.5186C6.54688 12.0324 6.49485 12.5462 6.53583 13.0591C6.55839 13.4163 6.47828 13.7983 6.65185 14.1298C6.9419 14.6762 7.48654 15.0302 8.04961 15.2532C8.50218 15.4309 8.98882 15.5316 9.47638 15.5229C11.2719 15.5165 13.0679 15.5289 14.8639 15.517C15.4818 15.5005 16.0863 15.2971 16.6199 14.9931C17.0186 14.76 17.3864 14.4266 17.5398 13.981C17.6314 13.7314 17.6093 13.4626 17.6111 13.2025C17.6042 12.6406 17.612 12.0787 17.6097 11.5168C13.9187 11.5204 10.2277 11.5163 6.53675 11.5186Z" fill="currentColor"/>
<path d="M11.6495 12.3359C12.0551 12.2379 12.5215 12.2705 12.8576 12.5397C13.1347 12.7856 13.341 13.1415 13.3226 13.5202C13.3447 14.1842 12.7324 14.8144 12.0514 14.7512C11.3981 14.8024 10.8231 14.1934 10.8185 13.5623C10.783 13.0343 11.1509 12.5095 11.6495 12.3359Z" fill="currentColor"/>
</svg>
