<svg width="24" height="24" viewBox="0 0 24 24" fill="none" xmlns="http://www.w3.org/2000/svg">
<path d="M4.48332 16.3H4C3.44772 16.3 3 15.8523 3 15.3V6C3 5.44772 3.44772 5 4 5H15.0333C15.5856 5 16.0333 5.44772 16.0333 6V15.05M8.35002 16.3H14.7833M16.0333 9.1H18.1098C18.4831 9.1 18.8382 9.25255 19.0945 9.51895C19.1521 9.5788 19.2105 9.63825 19.2768 9.68833L21.1007 11.0669C21.167 11.117 21.2283 11.1741 21.2741 11.2434C21.4209 11.466 21.5 11.7276 21.5 11.9961V14.9333C21.5 15.6881 20.8881 16.3 20.1333 16.3H18.65M8.46667 16.9833C8.46667 18.1155 7.54885 19.0333 6.41667 19.0333C5.28448 19.0333 4.36667 18.1155 4.36667 16.9833C4.36667 15.8511 5.28448 14.9333 6.41667 14.9333C7.54885 14.9333 8.46667 15.8511 8.46667 16.9833ZM18.7667 16.9833C18.7667 18.1155 17.8489 19.0333 16.7167 19.0333C15.5845 19.0333 14.6667 18.1155 14.6667 16.9833C14.6667 15.8511 15.5845 14.9333 16.7167 14.9333C17.8489 14.9333 18.7667 15.8511 18.7667 16.9833Z" stroke="currentColor" stroke-width="1.5"/>
</svg>
