<svg width="24" height="24" viewBox="0 0 24 24" fill="none" xmlns="http://www.w3.org/2000/svg">
<path d="M5.62496 1.36875C5.39996 1.52344 5.28746 1.69687 5.26402 1.93594C5.23121 2.19844 5.38121 2.48906 5.62496 2.63906C5.78433 2.74219 5.82183 2.74219 7.98277 2.76562L10.1718 2.78906L7.93121 5.025L5.69527 7.26562H4.64058C3.45933 7.26562 3.29058 7.29375 2.7234 7.575C2.25465 7.80938 1.80933 8.25469 1.57496 8.72344C1.24683 9.38438 1.26558 9.01406 1.26558 15C1.26558 20.9812 1.24683 20.6156 1.57027 21.2719C1.90308 21.9422 2.66715 22.5281 3.41246 22.6828C3.5859 22.7203 6.16402 22.7344 12.014 22.7344C19.2937 22.7344 20.4046 22.725 20.6671 22.6641C21.4125 22.4859 22.1156 21.9188 22.4484 21.2203C22.5468 21.0094 22.6546 20.7234 22.6828 20.5875C22.7531 20.2406 22.7531 9.75937 22.6828 9.4125C22.4859 8.45156 21.6562 7.58906 20.6906 7.34063C20.4656 7.28438 20.1562 7.26562 19.3546 7.26562H18.3046L16.0687 5.025L13.8281 2.78906L16.0171 2.76562C18.2015 2.74219 18.2109 2.74219 18.3843 2.63437C18.614 2.48906 18.7687 2.17031 18.7359 1.9125C18.7078 1.6875 18.5953 1.51875 18.375 1.36875L18.2203 1.26562H12H5.77965L5.62496 1.36875ZM14.1093 5.17969L16.1953 7.26562H12H7.80465L9.89058 5.17969C11.039 4.03125 11.9859 3.09375 12 3.09375C12.014 3.09375 12.9609 4.03125 14.1093 5.17969ZM20.5359 8.87344C20.7562 8.98125 21.0187 9.24375 21.1265 9.46406C21.2062 9.62344 21.2109 9.90938 21.2109 15C21.2109 20.0906 21.2062 20.3766 21.1265 20.5359C21.0187 20.7562 20.7562 21.0188 20.5359 21.1266C20.3765 21.2063 19.9921 21.2109 12 21.2109C4.00777 21.2109 3.6234 21.2063 3.46402 21.1266C3.24371 21.0188 2.98121 20.7562 2.8734 20.5359C2.79371 20.3766 2.78902 20.0813 2.77496 15.0938C2.76558 11.1937 2.77496 9.77344 2.81715 9.63281C2.91558 9.28125 3.22027 8.9625 3.58121 8.82656C3.68902 8.78437 5.75621 8.775 12.0468 8.77969C19.9828 8.78906 20.3765 8.79375 20.5359 8.87344Z" fill="currentColor"/>
<path d="M5.68116 11.325C5.59679 11.3719 5.47022 11.4797 5.39991 11.5688L5.27335 11.7328L5.25929 14.9391C5.24522 18.5156 5.23116 18.3422 5.56866 18.6C5.80772 18.7828 6.1921 18.7828 6.43116 18.6C6.76397 18.3469 6.74991 18.5063 6.74991 15C6.74991 11.5031 6.76397 11.6531 6.43585 11.4047C6.23429 11.25 5.90147 11.2125 5.68116 11.325Z" fill="currentColor"/>
<path d="M9.63281 11.3625C9.52969 11.4234 9.40313 11.5453 9.35156 11.6344C9.2625 11.7844 9.25781 11.8734 9.25781 15V18.2109L9.36094 18.375C9.51094 18.6187 9.80156 18.7687 10.0641 18.7359C10.3031 18.7125 10.4766 18.6 10.6313 18.375L10.7344 18.2203V15V11.7797L10.6313 11.625C10.3781 11.2594 9.975 11.1516 9.63281 11.3625Z" fill="currentColor"/>
<path d="M13.7344 11.3016C13.6688 11.3297 13.5657 11.3953 13.5094 11.4516C13.2563 11.6859 13.2657 11.5641 13.2657 15.0141V18.2203L13.3735 18.375C13.6032 18.7125 13.9125 18.8203 14.2782 18.6797C14.4282 18.6234 14.5266 18.5437 14.6157 18.4078L14.7422 18.2156V15.0047V11.7891L14.6297 11.6109C14.4469 11.3109 14.0485 11.175 13.7344 11.3016Z" fill="currentColor"/>
<path d="M17.6812 11.325C17.5968 11.3719 17.4702 11.4797 17.3999 11.5688L17.2733 11.7328L17.2593 14.9391C17.2452 18.5156 17.2312 18.3422 17.5687 18.6C17.8077 18.7828 18.1921 18.7828 18.4312 18.6C18.764 18.3469 18.7499 18.5063 18.7499 15C18.7499 11.5031 18.764 11.6531 18.4358 11.4047C18.2343 11.25 17.9015 11.2125 17.6812 11.325Z" fill="currentColor"/>
</svg>
