<svg width="24" height="24" viewBox="0 0 24 24" fill="none" xmlns="http://www.w3.org/2000/svg">
<path d="M10 11C12.2091 11 14 9.20914 14 7C14 4.79086 12.2091 3 10 3C7.79086 3 6 4.79086 6 7C6 9.20914 7.79086 11 10 11Z" fill="#272937"/>
<path d="M17.5815 16.479C17.8642 16.8074 18 17.2333 18 17.6666V19C18 20.1046 17.1046 21 16 21H4C2.89543 21 2 20.1046 2 19V17.6666C2 17.2333 2.13576 16.8074 2.41847 16.479C4.25235 14.3488 6.96866 13 10 13C13.0313 13 15.7477 14.3488 17.5815 16.479Z" fill="#272937"/>
<path d="M20 13C19.4477 13 19 12.5523 19 12V10H17C16.4477 10 16 9.55229 16 9C16 8.44772 16.4477 8 17 8H19V6C19 5.44772 19.4477 5 20 5C20.5523 5 21 5.44772 21 6V8H23C23.5523 8 24 8.44772 24 9C24 9.55229 23.5523 10 23 10H21V12C21 12.5523 20.5523 13 20 13Z" fill="#272937"/>
</svg>
