<svg width="24" height="24" viewBox="0 0 24 24" fill="none" xmlns="http://www.w3.org/2000/svg">
<path fill-rule="evenodd" clip-rule="evenodd" d="M2.41419 2.00005C2.02367 1.60952 1.3905 1.60952 0.999978 2.00005C0.609454 2.39057 0.609454 3.02374 0.999978 3.41426L2.58576 5.00005H2C0.895431 5.00005 0 5.89548 0 7.00005V17.0001C0 18.1046 0.895431 19.0001 2 19.0001H15C15.4466 19.0001 15.8591 18.8537 16.1919 18.6062L18.5858 21.0001C18.9763 21.3906 19.6095 21.3906 20 21.0001C20.3905 20.6095 20.3905 19.9764 20 19.5858L2.41419 2.00005ZM4.58576 7.00005H2V17.0001H14.5858L4.58576 7.00005Z" fill="#272937"/>
<path d="M17 13.7573L15 11.7573V7.00005H10.2427L8.24271 5.00005H15C16.1046 5.00005 17 5.89548 17 7.00005V8.90005L22.4265 5.10147C23.0893 4.63752 24 5.11168 24 5.9207V18.2339C24 19.0112 23.152 19.4913 22.4855 19.0914L22.1068 18.8641L22 18.7573V7.84136L17 11.3414V13.7573Z" fill="#272937"/>
</svg>
