<svg width="24" height="24" viewBox="0 0 24 24" fill="currentColor" xmlns="http://www.w3.org/2000/svg">
<path fill-rule="evenodd" clip-rule="evenodd" d="M17 17V15.8L22.4855 19.0913C23.152 19.4912 24 19.0111 24 18.2338V5.92069C24 5.11166 23.0893 4.63751 22.4265 5.10145L17 8.90003V7.00003C17 5.89546 16.1046 5.00003 15 5.00003H2C0.895431 5.00003 0 5.89546 0 7.00003V17C0 18.1046 0.895431 19 2 19H15C16.1046 19 17 18.1046 17 17ZM15 7.00003H2V17H15V7.00003ZM22 7.84134L17 11.3413V13.4677L22 16.4677V7.84134Z" fill="currentColor"/>
</svg>
