<svg width="24" height="24" viewBox="0 0 24 24" fill="none" xmlns="http://www.w3.org/2000/svg">
<path fill-rule="evenodd" clip-rule="evenodd" d="M11.7204 1.89823C11.8461 1.82567 12.0009 1.82567 12.1266 1.89823L19.2175 5.99212C19.3432 6.06468 19.4206 6.19878 19.4206 6.34391V14.5318C19.4206 14.6769 19.3432 14.811 19.2175 14.8836L12.1266 18.9775C12.0009 19.05 11.8461 19.05 11.7204 18.9775L4.62952 14.8836C4.50384 14.811 4.42642 14.6769 4.42642 14.5318V6.34391C4.42642 6.19878 4.50384 6.06468 4.62952 5.99212L11.7204 1.89823ZM11.9235 2.71905L5.23882 6.57843V14.2973L11.9235 18.1567L18.6082 14.2972V6.57843L11.9235 2.71905Z" fill="currentColor"/>
<path fill-rule="evenodd" clip-rule="evenodd" d="M19.2197 6.22522C19.3319 6.41951 19.2653 6.66794 19.071 6.78011L12.1263 10.7896C12.0007 10.8622 11.8458 10.8622 11.7201 10.7896L9.83634 9.70203C9.64205 9.58986 9.57549 9.34143 9.68765 9.14715C9.79982 8.95286 10.0483 8.8863 10.2425 8.99847L11.9232 9.96881L18.6648 6.07654C18.8591 5.96437 19.1075 6.03094 19.2197 6.22522ZM4.63761 6.23148C4.74978 6.03719 4.99821 5.97063 5.1925 6.0828L7.07609 7.17032C7.27037 7.28249 7.33693 7.53092 7.22476 7.72521C7.11259 7.91949 6.86416 7.98605 6.66988 7.87388L4.78628 6.78636C4.592 6.67419 4.52544 6.42576 4.63761 6.23148Z" fill="currentColor"/>
<path fill-rule="evenodd" clip-rule="evenodd" d="M18.7633 16.7818C18.8213 16.5651 19.0441 16.4365 19.2608 16.4946L20.7021 16.8808C20.8061 16.9087 20.8949 16.9767 20.9487 17.07C21.0026 17.1633 21.0172 17.2742 20.9893 17.3783L20.6031 18.8196C20.545 19.0363 20.3223 19.1649 20.1056 19.1069C19.8889 19.0488 19.7603 18.8261 19.8184 18.6094L20.0995 17.5604L19.0505 17.2793C18.8338 17.2213 18.7052 16.9985 18.7633 16.7818Z" fill="currentColor"/>
<path fill-rule="evenodd" clip-rule="evenodd" d="M13.997 19.5334C14.2137 19.5914 14.3423 19.8142 14.2842 20.0309L14.0031 21.0798L15.0521 21.3609C15.2688 21.419 15.3974 21.6417 15.3393 21.8584C15.2813 22.0751 15.0585 22.2037 14.8418 22.1456L13.4005 21.7594C13.2964 21.7315 13.2077 21.6634 13.1539 21.5701C13.1 21.4768 13.0854 21.366 13.1133 21.2619L13.4995 19.8206C13.5576 19.6039 13.7803 19.4753 13.997 19.5334Z" fill="currentColor"/>
<path fill-rule="evenodd" clip-rule="evenodd" d="M20.7656 17.1755C20.8778 17.3698 20.8112 17.6183 20.6169 17.7304L13.8915 21.6133C13.6972 21.7255 13.4488 21.6589 13.3366 21.4647C13.2245 21.2704 13.291 21.0219 13.4853 20.9098L20.2107 17.0269C20.405 16.9147 20.6534 16.9813 20.7656 17.1755Z" fill="currentColor"/>
<path fill-rule="evenodd" clip-rule="evenodd" d="M9.84973 19.5334C10.0664 19.4753 10.2892 19.6039 10.3472 19.8206L10.7334 21.2619C10.7914 21.4786 10.6629 21.7013 10.4462 21.7594L9.00484 22.1456C8.78815 22.2037 8.56541 22.0751 8.50734 21.8584C8.44928 21.6417 8.57787 21.419 8.79457 21.3609L9.84354 21.0798L9.56249 20.0309C9.50443 19.8142 9.63303 19.5914 9.84973 19.5334Z" fill="currentColor"/>
<path fill-rule="evenodd" clip-rule="evenodd" d="M5.08343 16.7817C5.1415 16.9984 5.0129 17.2212 4.79621 17.2792L3.74721 17.5603L4.02829 18.6093C4.08635 18.826 3.95776 19.0487 3.74106 19.1068C3.52437 19.1648 3.30163 19.0362 3.24356 18.8196L2.85735 17.3782C2.82946 17.2742 2.84406 17.1633 2.89793 17.07C2.95179 16.9767 3.04051 16.9086 3.14458 16.8807L4.58594 16.4945C4.80263 16.4365 5.02537 16.5651 5.08343 16.7817Z" fill="currentColor"/>
<path fill-rule="evenodd" clip-rule="evenodd" d="M3.08072 17.1755C3.19289 16.9813 3.44132 16.9147 3.6356 17.0269L10.361 20.9097C10.5553 21.0219 10.6218 21.2703 10.5097 21.4646C10.3975 21.6589 10.1491 21.7255 9.95478 21.6133L3.2294 17.7304C3.03512 17.6183 2.96855 17.3698 3.08072 17.1755Z" fill="currentColor"/>
<path fill-rule="evenodd" clip-rule="evenodd" d="M11.9234 10.0316C12.1477 10.0316 12.3296 10.2135 12.3296 10.4379V18.4226C12.3296 18.647 12.1477 18.8288 11.9234 18.8288C11.699 18.8288 11.5172 18.647 11.5172 18.4226V10.4379C11.5172 10.2135 11.699 10.0316 11.9234 10.0316Z" fill="currentColor"/>
<path fill-rule="evenodd" clip-rule="evenodd" d="M8.04986 8.4362C8.04986 8.21187 8.23172 8.03001 8.45606 8.03001H8.46037C8.6847 8.03001 8.86656 8.21187 8.86656 8.4362C8.86656 8.66054 8.6847 8.8424 8.46037 8.8424H8.45606C8.23172 8.8424 8.04986 8.66054 8.04986 8.4362Z" fill="currentColor"/>
<path fill-rule="evenodd" clip-rule="evenodd" d="M11.7204 1.89823C11.8461 1.82567 12.0009 1.82567 12.1266 1.89823L19.2175 5.99212C19.3432 6.06468 19.4206 6.19878 19.4206 6.34391V14.5318C19.4206 14.6769 19.3432 14.811 19.2175 14.8836L12.1266 18.9775C12.0009 19.05 11.8461 19.05 11.7204 18.9775L4.62952 14.8836C4.50384 14.811 4.42642 14.6769 4.42642 14.5318V6.34391C4.42642 6.19878 4.50384 6.06468 4.62952 5.99212L11.7204 1.89823ZM11.9235 2.71905L5.23882 6.57843V14.2973L11.9235 18.1567L18.6082 14.2972V6.57843L11.9235 2.71905Z" stroke="currentColor" stroke-width="0.3" stroke-miterlimit="2.6131" stroke-linecap="round" stroke-linejoin="round"/>
<path fill-rule="evenodd" clip-rule="evenodd" d="M19.2197 6.22522C19.3319 6.41951 19.2653 6.66794 19.071 6.78011L12.1263 10.7896C12.0007 10.8622 11.8458 10.8622 11.7201 10.7896L9.83634 9.70203C9.64205 9.58986 9.57549 9.34143 9.68765 9.14715C9.79982 8.95286 10.0483 8.8863 10.2425 8.99847L11.9232 9.96881L18.6648 6.07654C18.8591 5.96437 19.1075 6.03094 19.2197 6.22522ZM4.63761 6.23148C4.74978 6.03719 4.99821 5.97063 5.1925 6.0828L7.07609 7.17032C7.27037 7.28249 7.33693 7.53092 7.22476 7.72521C7.11259 7.91949 6.86416 7.98605 6.66988 7.87388L4.78628 6.78636C4.592 6.67419 4.52544 6.42576 4.63761 6.23148Z" stroke="currentColor" stroke-width="0.3" stroke-miterlimit="2.6131" stroke-linecap="round" stroke-linejoin="round"/>
<path fill-rule="evenodd" clip-rule="evenodd" d="M18.7633 16.7818C18.8213 16.5651 19.0441 16.4365 19.2608 16.4946L20.7021 16.8808C20.8061 16.9087 20.8949 16.9767 20.9487 17.07C21.0026 17.1633 21.0172 17.2742 20.9893 17.3783L20.6031 18.8196C20.545 19.0363 20.3223 19.1649 20.1056 19.1069C19.8889 19.0488 19.7603 18.8261 19.8184 18.6094L20.0995 17.5604L19.0505 17.2793C18.8338 17.2213 18.7052 16.9985 18.7633 16.7818Z" stroke="currentColor" stroke-width="0.3" stroke-miterlimit="2.6131" stroke-linecap="round" stroke-linejoin="round"/>
<path fill-rule="evenodd" clip-rule="evenodd" d="M13.997 19.5334C14.2137 19.5914 14.3423 19.8142 14.2842 20.0309L14.0031 21.0798L15.0521 21.3609C15.2688 21.419 15.3974 21.6417 15.3393 21.8584C15.2813 22.0751 15.0585 22.2037 14.8418 22.1456L13.4005 21.7594C13.2964 21.7315 13.2077 21.6634 13.1539 21.5701C13.1 21.4768 13.0854 21.366 13.1133 21.2619L13.4995 19.8206C13.5576 19.6039 13.7803 19.4753 13.997 19.5334Z" stroke="currentColor" stroke-width="0.3" stroke-miterlimit="2.6131" stroke-linecap="round" stroke-linejoin="round"/>
<path fill-rule="evenodd" clip-rule="evenodd" d="M20.7656 17.1755C20.8778 17.3698 20.8112 17.6183 20.6169 17.7304L13.8915 21.6133C13.6972 21.7255 13.4488 21.6589 13.3366 21.4647C13.2245 21.2704 13.291 21.0219 13.4853 20.9098L20.2107 17.0269C20.405 16.9147 20.6534 16.9813 20.7656 17.1755Z" stroke="currentColor" stroke-width="0.3" stroke-miterlimit="2.6131" stroke-linecap="round" stroke-linejoin="round"/>
<path fill-rule="evenodd" clip-rule="evenodd" d="M9.84973 19.5334C10.0664 19.4753 10.2892 19.6039 10.3472 19.8206L10.7334 21.2619C10.7914 21.4786 10.6629 21.7013 10.4462 21.7594L9.00484 22.1456C8.78815 22.2037 8.56541 22.0751 8.50734 21.8584C8.44928 21.6417 8.57787 21.419 8.79457 21.3609L9.84354 21.0798L9.56249 20.0309C9.50443 19.8142 9.63303 19.5914 9.84973 19.5334Z" stroke="currentColor" stroke-width="0.3" stroke-miterlimit="2.6131" stroke-linecap="round" stroke-linejoin="round"/>
<path fill-rule="evenodd" clip-rule="evenodd" d="M5.08343 16.7817C5.1415 16.9984 5.0129 17.2212 4.79621 17.2792L3.74721 17.5603L4.02829 18.6093C4.08635 18.826 3.95776 19.0487 3.74106 19.1068C3.52437 19.1648 3.30163 19.0362 3.24356 18.8196L2.85735 17.3782C2.82946 17.2742 2.84406 17.1633 2.89793 17.07C2.95179 16.9767 3.04051 16.9086 3.14458 16.8807L4.58594 16.4945C4.80263 16.4365 5.02537 16.5651 5.08343 16.7817Z" stroke="currentColor" stroke-width="0.3" stroke-miterlimit="2.6131" stroke-linecap="round" stroke-linejoin="round"/>
<path fill-rule="evenodd" clip-rule="evenodd" d="M3.08072 17.1755C3.19289 16.9813 3.44132 16.9147 3.6356 17.0269L10.361 20.9097C10.5553 21.0219 10.6218 21.2703 10.5097 21.4646C10.3975 21.6589 10.1491 21.7255 9.95478 21.6133L3.2294 17.7304C3.03512 17.6183 2.96855 17.3698 3.08072 17.1755Z" stroke="currentColor" stroke-width="0.3" stroke-miterlimit="2.6131" stroke-linecap="round" stroke-linejoin="round"/>
<path fill-rule="evenodd" clip-rule="evenodd" d="M11.9234 10.0316C12.1477 10.0316 12.3296 10.2135 12.3296 10.4379V18.4226C12.3296 18.647 12.1477 18.8288 11.9234 18.8288C11.699 18.8288 11.5172 18.647 11.5172 18.4226V10.4379C11.5172 10.2135 11.699 10.0316 11.9234 10.0316Z" stroke="currentColor" stroke-width="0.3" stroke-miterlimit="2.6131" stroke-linecap="round" stroke-linejoin="round"/>
<path fill-rule="evenodd" clip-rule="evenodd" d="M8.04986 8.4362C8.04986 8.21187 8.23172 8.03001 8.45606 8.03001H8.46037C8.6847 8.03001 8.86656 8.21187 8.86656 8.4362C8.86656 8.66054 8.6847 8.8424 8.46037 8.8424H8.45606C8.23172 8.8424 8.04986 8.66054 8.04986 8.4362Z" stroke="currentColor" stroke-width="0.3" stroke-miterlimit="2.6131" stroke-linecap="round" stroke-linejoin="round"/>
</svg>
