<svg width="24" height="24" viewBox="0 0 24 24" fill="none" xmlns="http://www.w3.org/2000/svg">
<path d="M13.6273 21C13.2596 20.9905 13 20.9205 13 20.5V19.6H11V20.5C11 20.9205 10.7404 20.9905 10.3727 21H13.6273Z" fill="#272937"/>
<path fill-rule="evenodd" clip-rule="evenodd" d="M3.58579 10.4142C3.21071 10.7892 3 11.2979 3 11.8284V20C3 20.5522 3.44772 21 4 21H10C10.0448 21 10.0889 21.0003 10.1321 21.0007C10.216 21.0013 10.2967 21.002 10.3727 21C10.7404 20.9905 11 20.9205 11 20.5V19.6H9H4.4V11.8284L11.7875 4.41332C11.9047 4.29564 12.0953 4.29564 12.2125 4.41332L19.6 11.8284V19.6H15H13V20.5C13 20.9205 13.2596 20.9905 13.6273 21C13.7033 21.002 13.784 21.0013 13.8679 21.0007C13.9111 21.0003 13.9552 21 14 21H20C20.5523 21 21 20.5522 21 20V11.8284C21 11.2979 20.7893 10.7892 20.4142 10.4142L13.4142 3.41416C12.6332 2.63311 11.3668 2.63311 10.5858 3.41416L3.58579 10.4142Z" fill="#272937"/>
<path fill-rule="evenodd" clip-rule="evenodd" d="M17.7541 18.8253L17.7433 16.9018L17.7431 16.8817C17.7324 15.0211 17.7322 14.9743 17.6568 14.8774C17.6172 14.8234 17.5379 14.7441 17.4839 14.7045C17.3902 14.6324 17.3254 14.6288 16.2267 14.6108L15.0669 14.5928L15.0488 12.4675L15.0308 10.3423L14.9516 10.2306C14.7787 9.98927 14.9012 10.0001 11.987 10.0001C9.07287 10.0001 9.19535 9.98927 9.02244 10.2306L8.9432 10.3423L8.92519 12.4675L8.90718 14.5928L7.74728 14.6108C6.64863 14.6288 6.58379 14.6324 6.49013 14.7045C6.4361 14.7441 6.35685 14.8234 6.31723 14.8774C6.24185 14.9743 6.24158 15.0211 6.23089 16.8817L6.23078 16.9018L6.21997 18.8253V19.96H11.987H17.7541V18.8253ZM11.4827 11.9777C11.4251 11.8696 11.4107 11.7687 11.4107 11.495V11.1528H10.7443H10.0779V12.8638V14.5748H11.987H13.8962V12.8638V11.1528H13.2298H12.5634V11.495C12.5634 11.7687 12.549 11.8696 12.4913 11.9777C12.286 12.3847 11.688 12.3847 11.4827 11.9777ZM9.25658 16.837C8.98282 16.7037 8.92519 16.5812 8.92519 16.1381V15.7635H8.15072H7.37626V17.2944V18.8253H9.39347H11.4107V17.2944V15.7635H10.7443H10.0779V16.0589C10.0779 16.4551 10.0346 16.5956 9.86535 16.7469C9.67083 16.9234 9.48352 16.9486 9.25658 16.837ZM14.1087 16.7469C13.9394 16.5956 13.8962 16.4551 13.8962 16.0589V15.7635H13.2298H12.5634V17.2944V18.8253H14.5806H16.5978V17.2944V15.7635H15.8233H15.0488V16.1381C15.0488 16.5812 14.9912 16.7037 14.7174 16.837C14.4905 16.9486 14.3032 16.9234 14.1087 16.7469Z" fill="#272937"/>
</svg>
