<svg width="24" height="24" viewBox="0 0 24 24" fill="none" xmlns="http://www.w3.org/2000/svg">
<path d="M6 1C6.55229 1 7 1.44772 7 2V17H22C22.5523 17 23 17.4477 23 18C23 18.5523 22.5523 19 22 19H19V22C19 22.5523 18.5523 23 18 23C17.4477 23 17 22.5523 17 22V19H7C5.89543 19 5 18.1046 5 17V7H2C1.44772 7 1 6.55229 1 6C1 5.44772 1.44772 5 2 5H5V2C5 1.44772 5.44772 1 6 1Z" fill="#272937"/>
<path d="M18 15C17.4477 15 17 14.5523 17 14V7H10C9.44772 7 9 6.55229 9 6C9 5.44772 9.44772 5 10 5H17C18.1046 5 19 5.89543 19 7V14C19 14.5523 18.5523 15 18 15Z" fill="#272937"/>
</svg>
